<svg xmlns="http://www.w3.org/2000/svg" xmlns:xlink="http://www.w3.org/1999/xlink" viewBox="0 0 900 900"><defs><style>.cls-1{fill:none;}.cls-2{clip-path:url(#clip-path);}.cls-3{clip-path:url(#clip-path-2);}.cls-4{fill:#606060;}.cls-5{isolation:isolate;}.cls-6{fill:#252525;}.cls-7{mix-blend-mode:multiply;opacity:0.5;fill:url(#Nueva_muestra_de_motivo_18);}.cls-8{fill:#fff;}.cls-9{fill:#e5542e;}</style><clipPath id="clip-path"><rect class="cls-1" width="500" height="500"/></clipPath><clipPath id="clip-path-2"><rect class="cls-1" x="-125" width="750" height="500"/></clipPath><pattern id="Nueva_muestra_de_motivo_18" data-name="Nueva muestra de motivo 18" width="500" height="500" patternTransform="translate(-4259.98 3323.09) scale(1.5)" patternUnits="userSpaceOnUse" viewBox="0 0 500 500"><rect class="cls-1" width="500" height="500"/><g class="cls-2"><g class="cls-3"><path class="cls-4" d="M-4.52,99.13a39.21,39.21,0,0,0,0-10.22c-.4-4.26-.78-8.29.94-12.68,1.59-4,4.47-7,7.25-9.85,2.45-2.51,5-5.1,6.54-8.39,1.93-4,2.83-15-.65-18.58-1.7-1.78-3.1-2.61-4.4-2.61-1.51,0-2.62,1.12-3.8,2.29C0,40.46-1.59,42-4.12,42.3a10.21,10.21,0,0,1-1.2.08c-3.5,0-4.81-2.07-6.33-4.46-1.35-2.13-2.89-4.54-6.23-5.45a8.48,8.48,0,0,0-2.25-.3c-2.53,0-4.93,1.1-7.25,2.15s-4.79,2.18-7.37,2.18h-.16l-2.83-1.88C-39.93,32.25-42.41,31-44.92,31c-3.91,0-7.21,3-8.6,7.89-2.07,7.26.89,9.77,5,13.23,1.17,1,2.51,2.13,3.84,3.48l2.24,2.22c3.8,3.74,8.12,8,9.9,12.42,1.54,3.86,1.48,9,1.41,13.91a58.09,58.09,0,0,0,.34,9.15c1.46,9.64,9.24,18.42,16.31,18.42h0C-11.51,111.72-6.29,110.08-4.52,99.13ZM-38.43,35.34l3.21,2.16h.47c2.8,0,5.33-1.15,7.78-2.27s4.53-2.06,6.84-2.06a7.76,7.76,0,0,1,2,.26c3,.81,4.33,3,5.64,5,1.54,2.42,3.13,4.93,7.18,4.93A12,12,0,0,0-4,43.3C-1.13,43,.63,41.21,2,39.8c1.08-1.07,2-2,3.1-2s2.2.76,3.68,2.3c3.16,3.29,2.25,13.73.47,17.46-1.5,3.14-3.86,5.56-6.36,8.12-2.85,2.93-5.8,5.95-7.46,10.19-1.81,4.61-1.42,8.75-1,13.14a38.09,38.09,0,0,1,0,10c-1.22,7.58-4.4,11.75-9,11.75-6.62,0-13.92-8.38-15.32-17.57a57.09,57.09,0,0,1-.33-9c.07-5,.14-10.24-1.48-14.29-1.86-4.64-6.26-9-10.13-12.77L-44,54.9c-1.36-1.38-2.71-2.53-3.91-3.54-4-3.34-6.59-5.55-4.69-12.19,1.27-4.42,4.19-7.17,7.64-7.17C-42.69,32-40.44,33.16-38.43,35.34Z"/><path class="cls-4" d="M-1.36,114.51c2-3.45,1.2-10.34.68-14.9-.08-.73-.16-1.4-.22-2-.09-1-.2-1.91-.31-2.86-.52-4.64-1-9,0-13.66,1.05-5,4.39-8.86,7.62-12.62S13,60.73,14,55.69c.75-3.9.52-15.45-3.37-20.17C8.47,32.88,5.47,32.91,2,35.7c-.4.32-.78.67-1.16,1C-.46,38-1.71,39.12-3.66,38.84c-1.66-.24-3-1.71-4.35-3.13-.46-.49-.91-1-1.37-1.4-3.26-3.05-6-4.94-9.48-4.94a12.21,12.21,0,0,0-4.81,1.09A16.26,16.26,0,0,1-30,32.08c-2.13,0-4.2-.75-6.84-2a37.62,37.62,0,0,0-15.23-3.65q-.68,0-1.35,0c-4.5.24-8.41,2.41-10.2,5.66-1.55,2.81-1.39,6.16.45,9.42,1.16,2.05,3.66,4.09,6.08,6.06,2.81,2.28,5.71,4.64,6.21,6.8l.05.23,1.46.74c1,1,2.21,2.06,3.52,3.16A38,38,0,0,1-40,64.22c2.92,3.85,4,8.67,4.83,12.88a84.51,84.51,0,0,1,1,10.17c.47,7.4,1,15,4.7,20.69,3,4.48,13.33,10.17,20.73,10.17h0C-5.29,118.13-2.74,116.88-1.36,114.51Zm-55.1-67.65C-58.8,45-61.23,43-62.3,41.09c-1.66-3-1.82-6-.44-8.45,1.62-2.95,5.21-4.92,9.37-5.14.43,0,.87,0,1.3,0A36.67,36.67,0,0,1-37.25,31c2.76,1.27,4.94,2,7.25,2a17,17,0,0,0,6.71-1.7,11.43,11.43,0,0,1,4.43-1c3.17,0,5.71,1.79,8.8,4.67.44.41.87.88,1.31,1.36,1.45,1.54,2.94,3.14,5,3.43,2.41.35,3.92-1,5.36-2.38.36-.33.73-.67,1.11-1,3-2.41,5.37-2.54,7.21-.31,3.41,4.14,4,15,3.16,19.34C12.11,60.28,9,63.94,5.63,67.83S-1.1,75.68-2.21,80.9c-1,4.79-.52,9.25,0,14,.1.95.21,1.89.3,2.85.06.59.14,1.27.23,2,.51,4.43,1.28,11.13-.56,14.29-1.2,2.07-3.39,3.12-6.52,3.12h0c-7.43,0-17.35-5.88-19.9-9.72-3.6-5.43-4.07-12.94-4.53-20.2a87.3,87.3,0,0,0-1.06-10.3c-.82-4.32-2-9.27-5-13.3a39.8,39.8,0,0,0-6-5.8,44.67,44.67,0,0,1-3.5-3.15L-50,54C-50.66,51.58-53.48,49.28-56.46,46.86Z"/><path class="cls-4" d="M-.9,128.29c4.23-4.46,3.78-13.12,3.41-20.08l-.08-1.57c-.11-2.43-.35-4.85-.58-7.19C1,91,.22,82.93,5.11,74.92a110,110,0,0,1,6.76-9.49c1-1.25,1.93-2.5,2.88-3.79,3.78-5.1,4.68-9.42,5-15.61.32-5.88.09-12-3.69-17-2.29-3-4.54-4.53-6.7-4.53H9.25c-2.37.07-3.47,1.62-4.54,3.12A15.6,15.6,0,0,1,3.65,29L2.39,30.5C.4,32.88-1,34.6-3,34.6c-1.21,0-2.62-.61-4.46-1.92-.77-.56-1.54-1.15-2.31-1.74-3.45-2.66-7-5.41-11.67-5.11A13.89,13.89,0,0,0-26,27.15a17.73,17.73,0,0,1-2.88,1,8.82,8.82,0,0,1-2,.23,17.18,17.18,0,0,1-4.72-.9c-1.53-.44-3.07-.91-4.63-1.38C-43.71,25.06-47.33,24-51,23.19a39.88,39.88,0,0,0-8.13-1A18.06,18.06,0,0,0-68,24.3a11.42,11.42,0,0,0-5.48,14.22c2.5,6.34,7.5,9.55,12.33,12.65,1.59,1,3.24,2.08,4.76,3.23l1.35,1c7.12,4.72,15.41,11.48,16.45,22,.28,2.82.66,5.67,1,8.43.35,2.58.7,5.25,1,7.91.14,1.33.24,2.63.34,3.92.35,4.41.68,8.57,2.27,12.87,5,13.5,12.81,20.07,24.53,20.66l.88,0h0A10.1,10.1,0,0,0-.9,128.29ZM-51.17,24.17c3.59.75,7.19,1.85,10.67,2.91,1.56.48,3.11,1,4.72,1.41a17.45,17.45,0,0,0,4.92.92,9.57,9.57,0,0,0,2.24-.26,17.75,17.75,0,0,0,3.05-1.08,13.11,13.11,0,0,1,4.21-1.24c4.29-.29,7.68,2.35,11,4.9.78.6,1.55,1.2,2.34,1.76,2,1.44,3.61,2.11,5,2.11,2.41,0,4-1.87,6.15-4.45.39-.47.8-1,1.25-1.47s.77-1,1.12-1.48c1-1.42,1.88-2.65,3.85-2.7s3.82,1.39,5.9,4.14c3.59,4.73,3.8,10.65,3.49,16.33C18.44,52,17.58,56.15,14,61,13,62.33,12,63.58,11.08,64.82A109.67,109.67,0,0,0,4.26,74.4C-.81,82.7,0,90.88.85,99.55c.23,2.33.47,4.73.59,7.14l.08,1.57c.35,6.77.79,15.19-3.15,19.34a9,9,0,0,1-6.91,2.59h0l-.83,0c-11.27-.57-18.79-6.93-23.64-20-1.55-4.16-1.87-8.26-2.21-12.6-.11-1.29-.21-2.61-.35-3.94-.27-2.68-.63-5.36-1-7.94-.36-2.75-.74-5.59-1-8.4-1.07-10.9-9.59-17.86-16.86-22.68l-1.33-1c-1.55-1.17-3.21-2.24-4.82-3.27-4.91-3.16-9.56-6.14-11.94-12.18a10.43,10.43,0,0,1,5-13,17.06,17.06,0,0,1,8.4-2A38.86,38.86,0,0,1-51.17,24.17Z"/><path class="cls-4" d="M6.41,142.34c7.06-8.34,4.36-24.4,2-38.57C7,95.62,5.72,87.92,6.49,83c1-6.15,5.22-11.12,9.72-16.38A74.25,74.25,0,0,0,23,57.87c5.68-9.14,8.55-26.42,3.91-35.85-3.47-7-9-10.42-15.23-9.23-4,.76-6.69,3.1-9.31,5.36A41.4,41.4,0,0,1-1.26,21a6.53,6.53,0,0,1-3.83,1.27,16.33,16.33,0,0,1-5-1.18,31.51,31.51,0,0,0-4.34-1.27,12.9,12.9,0,0,0-2.39-.23,19.33,19.33,0,0,0-7.49,1.9,19.92,19.92,0,0,1-5.55,1.67c-1.93.2-4.25-.23-7.38-1.27l-2.7-.68-3.13-1.14c-8.35-3.08-17-6.26-26.64-6.26-7.4,0-13.83,3.16-17.2,8.46-3,4.75-3.2,10.56-.5,16.34C-83.5,47.05-75.66,52-68.07,56.72-66,58-63.94,59.3-62,60.64a83.63,83.63,0,0,1,11.21,8.74c3.68,3.64,4.52,7.91,5.5,12.85.14.68.28,1.38.42,2.08.48,2.29.94,4.57,1.4,6.85,2,10,4.09,20.39,7.93,30.31,2.44,6.28,9.85,25.4,25.46,26.36.75,0,1.5.07,2.22.07h0C-1.51,147.9,3.29,146,6.41,142.34ZM-44.12,22.9l3.21,1.18,2.76.69a20.77,20.77,0,0,0,8.58,1.4,23,23,0,0,0,6.38-1.88,16.7,16.7,0,0,1,6.35-1.68,9.44,9.44,0,0,1,1.82.18,28.67,28.67,0,0,1,3.93,1.15,18.58,18.58,0,0,0,6,1.35A9.57,9.57,0,0,0,.43,23.5a44.92,44.92,0,0,0,3.86-3.08C6.72,18.33,9,16.34,12.2,15.73a10,10,0,0,1,1.87-.18c5.45,0,8.67,4.89,10.1,7.8,4.16,8.44,1.4,24.63-3.76,32.93a70.14,70.14,0,0,1-6.48,8.36C9.36,70,4.62,75.51,3.53,82.51c-.85,5.42.48,13.36,1.89,21.76,2.28,13.52,4.86,28.85-1.3,36.13-2.56,3-6.48,4.5-12,4.5h0q-1,0-2-.06c-9.21-.57-16.68-8.57-22.84-24.46-3.75-9.67-5.71-19.45-7.79-29.81-.46-2.29-.92-4.58-1.4-6.88-.14-.69-.28-1.37-.41-2-1-5.2-2-10.12-6.34-14.4a86.05,86.05,0,0,0-11.61-9.08c-2-1.37-4.13-2.71-6.18-4-7.22-4.53-14.69-9.2-18.24-16.81-2.26-4.83-2.15-9.61.31-13.46,2.82-4.44,8.3-7.08,14.67-7.08C-60.61,16.83-52.6,19.78-44.12,22.9Z"/><path class="cls-4" d="M143.43,140.06c.65-5-3.76-10.56-7.74-11.52l-1.9-1.89-.12-.09a64.87,64.87,0,0,1-5.65-3.84c-6.62-4.76-16.61-12-23.57-12-4.39,0-7,2.78-7.9,8.28-1.16,7.55,8.69,16.5,10.67,18.21a39.75,39.75,0,0,0,22.17,9.25,38.82,38.82,0,0,0,3.91.22h0C139.54,146.72,142.86,144.54,143.43,140.06Zm-16-16.52c2.45,1.76,4.39,3.16,5.69,3.87l2.06,2.05.14,0c3.59.76,7.68,6,7.11,10.45-.5,3.89-3.49,5.78-9.14,5.78a37,37,0,0,1-3.81-.22,38.66,38.66,0,0,1-21.61-9c-5.3-4.58-11.18-11.86-10.34-17.31.77-5,3-7.43,6.91-7.43C111.08,111.76,120.92,118.85,127.44,123.54Z"/><path class="cls-4" d="M134.44,153c8,0,14.05-3.82,15.89-9.93,1.92-6.36-1.26-13.42-8.12-18l-3-1c-2.84-3.77-7.22-6-11.47-8.11-2-1-3.83-1.93-5.54-3L121,112.2c-6.34-4-11.34-7.19-19-9.18-6.21-1.63-10.5-1.15-13,1.39-1.78,1.81-2.65,4.7-2.59,8.6.11,7.51,4.44,16.25,10.77,21.73,9,7.84,22.73,18.26,37.19,18.26Zm-32.66-49c7.49,2,12.2,4.94,18.7,9.06l1.21.77a63,63,0,0,0,5.63,3c4.19,2.11,8.52,4.28,11.21,7.94l.1.12,3.08,1c6.44,4.32,9.45,10.92,7.67,16.83-1.72,5.68-7.44,9.21-14.95,9.22l0,.5V152c-14.12,0-27.62-10.28-36.54-18-6.12-5.3-10.31-13.74-10.42-21-.06-3.61.72-6.27,2.31-7.88,1.35-1.37,3.28-2,5.91-2A25.18,25.18,0,0,1,101.78,104Z"/><path class="cls-4" d="M152.69,150.7c5.27-6,5.26-11.88,5.25-19.27V129.5c0-4.84-1-8.23-3.12-10.34-2.77-2.78-7.3-3.15-11.45-3.16l-3.36.48c-3.19-1.49-6.47-2.67-9.65-3.81s-6.19-2.23-9.21-3.63a58.7,58.7,0,0,1-10.27-6.57,69.72,69.72,0,0,0-8.21-5.53c-5.77-3.16-10.41-4.69-14.18-4.69a9.6,9.6,0,0,0-8.85,5c-3,5.1-3.37,13.62-1.19,25.34.24,1.3.44,2.68.65,4.14,1,6.69,2.07,14.27,7.94,18.32,4.09,2.82,9.68,4.78,15.08,6.68,2.72,1,5.3,1.85,7.62,2.84,9,3.81,16.07,5.58,22.35,5.58h0A26,26,0,0,0,152.69,150.7Zm-50.5-52.89a72.63,72.63,0,0,1,8.1,5.46A59,59,0,0,0,120.73,110c3.06,1.42,6.23,2.56,9.3,3.66s6.5,2.34,9.69,3.84l.14.07,3.58-.52c5.48,0,8.67.86,10.67,2.86s2.84,5.07,2.83,9.64v1.93c0,7.47,0,12.86-5,18.62a25.06,25.06,0,0,1-19.83,9.1h0c-6.14,0-13.12-1.75-22-5.5-2.35-1-4.94-1.91-7.67-2.87-5.35-1.87-10.87-3.81-14.85-6.55-5.51-3.81-6.58-11.16-7.52-17.65-.21-1.46-.42-2.85-.66-4.17-2.13-11.48-1.77-19.77,1.08-24.66a8.55,8.55,0,0,1,8-4.5C92.09,93.25,96.57,94.74,102.19,97.81Z"/><path class="cls-4" d="M147.58,165.31c14-8.39,24.26-27.72,16.69-42.06-3.21-6.07-11.42-8.92-17.74-10.25-1-.22-2-.39-3-.57a32.66,32.66,0,0,1-7.75-2c-1-.43-2-1-2.92-1.46a18.14,18.14,0,0,0-6.4-2.46H125c-2.87-.17-4.94-1.73-7.35-3.76a92.62,92.62,0,0,1-7.28-7.17C104.17,89,97.79,82.26,88.71,82.26a20.67,20.67,0,0,0-5.8.87c-18.27,5.33-20.76,30.12-19.36,43.92.86,8.5,3.58,19.69,11.61,24.75,5.09,3.21,11,4.27,16.78,5.29a86.75,86.75,0,0,1,8.87,1.9,46.52,46.52,0,0,1,9.46,4.45c3.63,2.05,7.39,4.17,11.56,5.05a43.18,43.18,0,0,0,8.82.9h0C137.18,169.39,143.19,167.94,147.58,165.31Zm-38-69a91.34,91.34,0,0,0,7.36,7.25c2.55,2.14,4.75,3.8,8,4h1.43a17.23,17.23,0,0,1,6,2.34c1,.51,2,1,3,1.49a34.37,34.37,0,0,0,8,2.09c1,.17,2,.34,3,.56,6.11,1.28,14,4,17.06,9.74,7.32,13.84-2.72,32.57-16.31,40.73-4.24,2.54-10.07,3.94-16.42,3.94a41.83,41.83,0,0,1-8.61-.88c-4-.85-7.71-2.93-11.28-4.94a47.32,47.32,0,0,0-9.67-4.54,87.75,87.75,0,0,0-9-1.92c-5.66-1-11.5-2.05-16.43-5.16-8.09-5.1-10.46-17.22-11.15-24-1.37-13.5,1-37.72,18.65-42.86a19.77,19.77,0,0,1,5.52-.83C97.35,83.26,103.59,89.87,109.62,96.26Z"/><path class="cls-4" d="M139.69,174c6.93-1.18,15-6.77,20.83-10.85l.75-.52c7-4.84,14.95-10.56,21.23-17.1a23,23,0,0,0,4.93-25.12c-3.94-9.35-13.7-12-21.76-13.28s-16.06-2.31-24.08-3.12c-1.44-.15-2.87-.26-4.29-.36-6.52-.49-12.68-1-18-5.21-2.67-2.15-4.79-5.06-7-8.14a66.2,66.2,0,0,0-5.16-6.47c-4.77-5-11.75-8.54-16.77-10.59a30.06,30.06,0,0,0-11-2c-3.5,0-8.43.6-12.06,3.49-3.26,2.59-9,10.08-9.87,14.31l-1.43,2.87c-3.19,7-3.63,16-3.63,24.62,0,2.29-.12,4.7-.25,7.26-.32,6.5-.65,13.22.92,19,2.1,7.77,9.6,15.56,17.81,18.52a26.93,26.93,0,0,0,9.35,1.33c1.56,0,3.14-.06,4.68-.12s3-.12,4.53-.12a29.58,29.58,0,0,1,5.77.47c3.79.76,7.11,2.79,10.63,4.95a49.36,49.36,0,0,0,8.56,4.48c4.16,1.51,10.18,2.38,16.51,2.38h0A52.65,52.65,0,0,0,139.69,174ZM84.83,159.51c-1.5.06-3.06.12-4.56.12a24.3,24.3,0,0,1-8.33-1.15c-7.25-2.62-14.1-9.7-15.93-16.48-1.45-5.34-1.13-11.83-.82-18.1.13-2.59.25-5,.25-7.4,0-7.92.39-16.89,3.34-23.33l1.6-3.2,0-.22c.54-3.11,5.72-10.23,8.82-12.7,2.31-1.83,5.93-2.84,10.2-2.84A26.86,26.86,0,0,1,89.25,76c6.71,2.75,12.3,6.26,15.73,9.88a61.94,61.94,0,0,1,4.91,6.18,44.8,44.8,0,0,0,7.58,8.71c6,4.84,12.61,5.33,19.61,5.86,1.39.1,2.79.21,4.2.35,8,.81,15.79,1.82,23.92,3.1,7.3,1.15,16.1,3.5,19.46,11.48a20,20,0,0,1-4.32,21.88c-6.1,6.34-13.93,12-20.79,16.72l-.75.52c-5.63,3.92-13.34,9.29-19.62,10.36a50.82,50.82,0,0,1-8.23.62h0c-5.91,0-11.7-.83-15.49-2.2a45.37,45.37,0,0,1-8-4.22c-3.59-2.2-7.3-4.47-11.61-5.33a32.38,32.38,0,0,0-6.36-.53C87.93,159.39,86.36,159.45,84.83,159.51Z"/><path class="cls-4" d="M170.13-4.9A41,41,0,0,0,166-2.52c-1.08.67-2.2,1.38-3.32,2-.85.45-1.75.9-2.66,1.36C153.69,4,146.49,7.64,145,14.9c-.16.75-.32,1.51-.46,2.25-1,4.82-1.8,9-4.69,10.65-2,1.13-4.8,1-8.7-.28-7.66-2.58-13.64-8.15-19.42-13.53l-.39-.37c-1-.9-2.56-2.15-4.4-3.59C101.89,6.1,94.32.17,94.44-3l-1,0c-.13,3.66,7.06,9.3,12.83,13.83,1.83,1.43,3.4,2.67,4.34,3.54l.39.37c5.86,5.46,11.92,11.1,19.78,13.75a18.23,18.23,0,0,0,5.72,1.11,7.45,7.45,0,0,0,3.8-.92c3.28-1.89,4.2-6.47,5.17-11.32.14-.73.29-1.48.45-2.24,1.45-6.78,8.42-10.3,14.57-13.4.92-.46,1.82-.91,2.68-1.37,1.15-.61,2.28-1.32,3.38-2A28.77,28.77,0,0,1,172-4.61l.25-.09.05-.2Z"/><path class="cls-4" d="M187.51-4.9c-4.72,5-14.67,9.37-20.7,10.94-1.16.3-2.28.56-3.35.81-6.38,1.47-11.42,2.63-14,10.47-.45,1.36-.84,2.74-1.21,4.08-1.94,7-3.47,12.59-12.79,10.24-5.84-1.47-10.6-4.39-15.64-7.47-1.07-.66-2.14-1.32-3.23-2a96.11,96.11,0,0,1-11-8c-2.17-1.76-4.42-3.57-6.73-5.22L97.47,8a68.61,68.61,0,0,1-8.16-6.43,45.36,45.36,0,0,1-3.06-3.42c-.87-1.05-1.77-2.11-2.64-3H82.19a45.83,45.83,0,0,1,3.3,3.66C86.54,0,87.62,1.3,88.61,2.26a70.85,70.85,0,0,0,8.28,6.53l1.39,1c2.28,1.64,4.52,3.44,6.69,5.19a96.92,96.92,0,0,0,11.1,8.1c1.08.64,2.15,1.3,3.22,1.95,5.1,3.12,9.92,6.08,15.91,7.59a17.3,17.3,0,0,0,4.14.57c6.69,0,8.24-5.62,9.87-11.51.36-1.33.74-2.7,1.19-4,2.41-7.3,7-8.35,13.29-9.81,1.08-.25,2.2-.51,3.37-.81C173.47,5.34,184.23.55,188.85-4.9Z"/><path class="cls-4" d="M205.32-4.9a81.09,81.09,0,0,1-12.09,8.08c-4.4,2.25-9.5,3.28-14.45,4.27-2.3.46-4.48.9-6.58,1.46-7.82,2.05-12,4.27-16.08,12a45.41,45.41,0,0,0-2.06,5c-1.8,4.85-4.05,10.88-7.76,12.05-4.78,1.51-15.17-3.26-20.74-5.82l-2-.92a113.23,113.23,0,0,1-20.79-12.07A180,180,0,0,0,83.05,6.67C74.13,1.84,67.8-2.28,65.19-4.9H63.85C66.69-1.48,75.31,3.62,82.57,7.55a177.94,177.94,0,0,1,19.58,12.37,114,114,0,0,0,21,12.17l2,.92c5.24,2.41,13.5,6.2,19,6.2a8.25,8.25,0,0,0,2.47-.33c4.18-1.32,6.52-7.61,8.4-12.66a42.93,42.93,0,0,1,2-4.87c3.91-7.37,7.93-9.5,15.45-11.48,2.08-.54,4.24-1,6.53-1.44,5-1,10.19-2,14.71-4.36a85,85,0,0,0,13.23-9Z"/><path class="cls-4" d="M231.66-4.9a63.59,63.59,0,0,1-12.55,8.07c-9.25,4.41-19.07,7.15-28.3,9.46a73.41,73.41,0,0,1-7.5,1.26c-6,.8-12.13,1.63-15.8,4.6-3.44,2.78-6.12,6.93-8.71,10.94-5.45,8.44-10.6,16.42-22.12,10.63-3.28-1.66-6.71-3.1-10-4.49s-7-2.93-10.38-4.65c-2.07-1.06-4.13-2.21-6.12-3.32-4.91-2.75-10-5.58-15.58-7.19-1.26-.37-2.52-.72-3.78-1.08C83,17.14,75,14.88,67.67,10.93c-5.77-3.1-10.48-7.2-15-11.16C50.86-1.78,49-3.37,47.14-4.9H45.53C47.75-3.14,49.9-1.29,52,.52c4.6,4,9.35,8.13,15.22,11.29,7.42,4,15.5,6.28,23.32,8.49l3.78,1.07c5.48,1.58,10.28,4.26,15.36,7.1,2,1.12,4.07,2.27,6.16,3.34,3.42,1.74,7,3.24,10.44,4.69,3.3,1.38,6.72,2.81,10,4.45A17.17,17.17,0,0,0,143.93,43c7.27,0,11.55-6.62,15.71-13.07,2.55-3.94,5.18-8,8.5-10.7s9.48-3.61,15.31-4.39a77,77,0,0,0,7.61-1.28c9.28-2.32,19.15-5.08,28.48-9.52a66.19,66.19,0,0,0,13.71-9Z"/><path class="cls-4" d="M257.92-4.9c-5.08,1.77-9.53,4.58-13.84,7.3-1.3.82-2.6,1.64-3.92,2.44-9.06,5.45-23.09,10.34-37.53,13.08-5.2,1-10.32.66-15.73.32A92.43,92.43,0,0,0,175.34,18c-7,.44-10.25,6.62-13.13,12.08a56.18,56.18,0,0,1-2.9,5.1c-5.25,7.89-9.14,11.26-18.25,10.35-7.4-.73-14.14-3.43-22-7.25-15.26-7.45-30.68-9.13-47-10.92l-3-.32C57.62,25.77,49.58,22.63,43,16.86,29.09,4.6,26.55-1.79,26.67-4.9h-3C23.5.82,29.21,8.7,41,19.11,48,25.23,56.81,28.69,68.77,30l3,.32C87.81,32.1,103,33.76,117.76,41c6.56,3.2,14.28,6.68,23,7.55,1.07.1,2.07.16,3,.16,8.48,0,12.9-4.14,18-11.83,1.11-1.68,2.1-3.55,3.06-5.37,2.75-5.22,5.35-10.15,10.66-10.48a88.64,88.64,0,0,1,11.18.23c5.36.34,10.9.69,16.48-.37C218,18.06,232.36,13,241.71,7.41c1.34-.81,2.65-1.64,4-2.47,4.37-2.76,8.5-5.37,13.27-7l.53-.18c2.44-.85,4.81-1.68,7.13-2.64Z"/><path class="cls-4" d="M-106.82,156c-2.8-2.67-7.8-2.28-9.81-2-5.22.76-8.64,3.91-11.36,7.68v1.76c3-4.57,6.33-7.7,11.5-8.45,3.9-.57,7.25.07,9,1.72a5.44,5.44,0,0,1,1.46,4.73c-.83,8.46-15,12.14-21.94,13.69v1c7.46-1.66,22-5.33,22.94-14.62A6.43,6.43,0,0,0-106.82,156Z"/><path class="cls-4" d="M-100.06,143.64c-2.58-1.83-5.92-2.08-9.67-.75-3.29,1.17-12.63,4.82-18.26,10.21v1.41c5.32-5.61,15.22-9.48,18.59-10.68s6.46-1,8.76.62c2.89,2.05,4.6,6.37,4.58,11.55,0,9.07-3.11,13.66-11.31,16.92A197.44,197.44,0,0,1-127.7,180l-.29.07v1l.56-.12A197.74,197.74,0,0,0-107,173.85c8.55-3.4,11.89-8.4,11.94-17.85C-95,150.41-96.86,145.91-100.06,143.64Z"/><path class="cls-4" d="M-79.07,159.47l0-.88c-.44-8.54-.86-16.6-9.85-20.93-7.19-3.47-17.6-3.33-27.15.36A36.6,36.6,0,0,0-128,145.29v1.39A35.05,35.05,0,0,1-115.75,139c9.3-3.59,19.4-3.74,26.36-.39,8.45,4.08,8.84,11.49,9.28,20.08l0,.89c.49,9.33-3,15.15-11.22,18.89A65,65,0,0,1-112.61,184a63.59,63.59,0,0,0-8,1.47,74,74,0,0,1-7.42,1.42v1a77.31,77.31,0,0,0,7.64-1.46,60.47,60.47,0,0,1,7.83-1.45,66.11,66.11,0,0,0,21.65-5.67C-82.19,175.4-78.55,169.27-79.07,159.47Z"/><path class="cls-4" d="M-46.56,186.89c-1.26-5.79-5.39-9.37-9.4-12.84-2.79-2.43-5.69-4.94-7.55-8.18-2.73-4.77-4-10.28-5.3-15.61C-71.4,139.34-73.85,129-88,127c-10.05-1.45-18.17,1.56-24.79,4.69-1.63.77-3.6,1.55-5.69,2.37a96.16,96.16,0,0,0-9.52,4.19v1.13A89.57,89.57,0,0,1-118.1,135c2.1-.84,4.09-1.62,5.75-2.4,6.48-3.07,14.42-6,24.21-4.61,13.47,1.94,15.84,11.94,18.35,22.52,1.29,5.4,2.61,11,5.42,15.88,1.94,3.39,4.9,5.95,7.76,8.44,4.06,3.51,7.89,6.83,9.07,12.3.68,3.11.21,5.55-1.37,7.24-3.52,3.75-11.37,3-14.58,2.54a85.48,85.48,0,0,1-12-3c-5.11-1.54-10.4-3.13-16.08-3.42-5.34-.27-10.26,1-15,2.28a58.59,58.59,0,0,1-12,2.26,56,56,0,0,1-7.32-.32l-2.08-.17v1l2,.17a57.88,57.88,0,0,0,7.46.32,58.67,58.67,0,0,0,12.23-2.3c4.69-1.23,9.53-2.5,14.72-2.24,5.56.28,10.79,1.85,15.84,3.38a87.84,87.84,0,0,0,12.11,3,35,35,0,0,0,5.19.4c3.61,0,7.83-.65,10.27-3.25C-46.36,193.09-45.81,190.35-46.56,186.89Z"/><path class="cls-4" d="M-40.59,190.4c-1.87-7.46-7.07-12.66-12.1-17.69-5.87-5.88-11.42-11.43-11.88-20.24a62.49,62.49,0,0,1,.71-10.81c.63-5.15,1.29-10.47-.08-15.8-2.51-9.71-9.53-16.09-20.89-19-15.57-3.93-26.93,6.6-37.91,16.79-1.77,1.65-3.51,3.27-5.25,4.8v1.32c2-1.7,3.92-3.52,5.93-5.38,10.79-10,21.94-20.36,37-16.56,11,2.78,17.76,8.91,20.17,18.24,1.33,5.15.71,10.14,0,15.43a62.23,62.23,0,0,0-.7,11c.47,9.18,6.41,15.13,12.16,20.88,4.94,4.94,10,10,11.84,17.24,1.54,6.19,1.05,10.61-1.48,13.14-5.22,5.2-18.15,1.94-27.6-.44-1.35-.34-2.63-.67-3.81-.95a43.08,43.08,0,0,1-6.42-2.29A34.22,34.22,0,0,0-89,197.49c-5-.66-8.68,2-12.21,4.58-.71.51-1.42,1-2.15,1.53-2.57,1.76-5.26,3.81-8.11,6A138.15,138.15,0,0,1-128,220.92v1.14c6-3.21,11.77-7.6,17.14-11.69,2.84-2.16,5.52-4.2,8.07-5.94.74-.51,1.46-1,2.17-1.56,3.52-2.57,6.84-5,11.49-4.39A33,33,0,0,1-81.26,201a44.71,44.71,0,0,0,6.58,2.34c1.18.27,2.45.6,3.8.94,9.67,2.44,22.92,5.78,28.54.17C-39.54,201.7-38.95,197-40.59,190.4Z"/><path class="cls-4" d="M-40.93,178.52a96.91,96.91,0,0,0-8.62-8.25,96,96,0,0,1-8.26-7.87c-5-5.6-3.24-12.73-1.53-19.62l.23-.92c.22-.88.44-1.75.67-2.63,1.9-7.47,3.88-15.19,1.32-23.16-3.46-10.76-12.27-13.8-22.59-16.41-10-2.55-20.54-4.45-29.49-1.21A95.06,95.06,0,0,0-128,108.17v3.62a89.61,89.61,0,0,1,19.81-10.52c8.19-3,18.17-1.13,27.74,1.29C-70.68,105-63,107.67-60,117c2.3,7.16.43,14.45-1.37,21.5-.23.89-.45,1.78-.67,2.66l-.23.92c-1.81,7.29-3.87,15.56,2.2,22.34a100,100,0,0,0,8.51,8.12,94.29,94.29,0,0,1,8.37,8c6.93,7.8,9.9,17,7.74,24.05-1.7,5.55-6.54,9.49-14,11.39-7.3,1.85-18,.63-25.5-2.92a42.41,42.41,0,0,1-5.84-3.57c-4.92-3.37-10-6.87-17.28-3.72-6.44,2.78-13,9.67-17.75,14.71l-1,1A154.79,154.79,0,0,0-128,235v5l.08-.1a175.22,175.22,0,0,1,13.33-16.39l1-1c4.6-4.85,10.9-11.48,16.77-14s9.76.26,14.39,3.45a45.59,45.59,0,0,0,6.25,3.8c8.18,3.88,19.5,5.16,27.52,3.12,10.78-2.74,14.73-8.81,16.14-13.42C-30.1,197.41-33.3,187.09-40.93,178.52Z"/><path class="cls-4" d="M65.78,284.85c.8-.77,1.57-1.55,2.34-2.32,4.49-4.48,8.73-8.72,14.06-11.92A43.33,43.33,0,0,1,88,267.94c4.67-1.89,9.5-3.84,11.56-8a8,8,0,0,0-.49-8,11.81,11.81,0,0,0-10.5-5.41l-4.07,1.35a21.13,21.13,0,0,1-5,.62,29.37,29.37,0,0,1-7.38-1.15c-1.09-.28-2.23-.56-3.41-.78-5.47-1-10.36-3.06-16-5.82-1.09-.54-2.4-1.26-3.92-2.1-5.21-2.89-12.35-6.84-17.95-6.84a7.6,7.6,0,0,0-7.31,4.33c-3.74,7.36,1,23.56,3.51,32.26l.42,1.43c3,10.49,10.28,17.47,20.45,19.65a34.15,34.15,0,0,0,6.92,1h0C58.68,290.42,61.66,288.91,65.78,284.85ZM48.27,239.49c1.53.85,2.85,1.58,4,2.12,5.73,2.8,10.69,4.88,16.27,5.92,1.15.21,2.27.49,3.35.76a30.58,30.58,0,0,0,7.62,1.18,22.06,22.06,0,0,0,5.28-.66l3.94-1.32a11,11,0,0,1,9.51,4.95,7,7,0,0,1,.44,7c-1.89,3.85-6.54,5.73-11,7.55a43,43,0,0,0-6,2.75C76.23,273,72,277.29,67.42,281.82l-2.34,2.32c-4,3.9-6.65,5.28-10.29,5.28h0a33.15,33.15,0,0,1-6.71-.95c-9.79-2.1-16.78-8.82-19.7-18.94L28,268.09c-2.31-8-7.14-24.52-3.58-31.53a6.6,6.6,0,0,1,6.42-3.78C36.14,232.78,43.15,236.66,48.27,239.49Z"/><path class="cls-4" d="M56,277.5c3.46-.22,5.93-2.3,8.33-4.32.78-.66,1.6-1.34,2.43-1.94a25.42,25.42,0,0,1,5.57-2.83,20.92,20.92,0,0,0,6.64-3.71A71.57,71.57,0,0,0,84.33,258a2,2,0,0,0,.52-2.16c-.82-1.77-5.06-1.95-12.47-2.11-6.21-.14-13.24-.3-17.42-2a41.46,41.46,0,0,1-5.65-3.25c-3.58-2.3-7.28-4.67-10-4.81-2.11-.12-3.57.44-4.46,1.65-1.75,2.37-.75,6.65.45,10.52,2.29,7.34,10.8,21.71,20.11,21.71h0ZM39.24,244.63c2.47.14,6.22,2.54,9.53,4.66a42.45,42.45,0,0,0,5.81,3.34c4.35,1.78,11.49,1.94,17.78,2.08,5.4.12,11,.24,11.59,1.53.15.31-.14.78-.42,1.13A70.82,70.82,0,0,1,78.26,264a20,20,0,0,1-6.34,3.53,26.26,26.26,0,0,0-5.78,2.94c-.86.62-1.68,1.32-2.48,2-2.38,2-4.63,3.88-7.76,4.08l-.5,0h0c-8.39,0-16.8-13.47-19.15-21-1.07-3.42-2.1-7.61-.61-9.64a3.61,3.61,0,0,1,3.14-1.26Z"/><path class="cls-4" d="M58.25,301.65c5.9-2.1,10.06-7.94,14.09-13.58,2.56-3.58,5-7,7.76-9.4a40.85,40.85,0,0,1,9.07-5.57c4.88-2.42,9.49-4.71,12.7-10.34a16.12,16.12,0,0,0,2.57-7.76v-3.33l0-.15c-1.75-5.71-6.79-7-11.66-8.32a29.65,29.65,0,0,0-7.47-.79c-1.19,0-2.39,0-3.59.07-1.93.06-3.84.11-5.73,0-11.36-.54-18.09-5-27.06-11.75-5.29-4-15.44-10.66-24-10.66a11.93,11.93,0,0,0-6.59,1.79C6.84,229.31,13.1,251,15.46,259.15c4.36,15.11,17.55,43.67,36.27,43.67h0A19.48,19.48,0,0,0,58.25,301.65Zm-10-70.1c9.12,6.86,16,11.4,27.61,11.95,1.91.09,3.86,0,5.8,0,1.2,0,2.39-.07,3.57-.07a27.59,27.59,0,0,1,7.21.76c4.8,1.26,9.34,2.46,11,7.57V255a14.94,14.94,0,0,1-2.44,7.29c-3.06,5.36-7.53,7.58-12.27,9.93a41.58,41.58,0,0,0-9.29,5.72c-2.88,2.51-5.32,5.94-7.91,9.57-3.94,5.52-8,11.22-13.61,13.22a18.52,18.52,0,0,1-6.19,1.11h0c-18.79,0-31.86-31-35.31-42.94-3.61-12.51-7.29-29.86,2.47-36.16a11,11,0,0,1,6.05-1.63C33.48,221.09,44.12,228.4,48.3,231.55Z"/><path class="cls-4" d="M61.65,323.46c8.62-4.52,10.8-12.27,12.91-19.75a54.51,54.51,0,0,1,4-11c3-5.72,8.16-9.71,13.12-13.56a72.44,72.44,0,0,0,9.16-8c7.43-8.15,12.66-20.91,3-30-5.74-5.41-12.52-6.14-18.4-6.14-2,0-4.11.1-6.13.19s-4,.18-5.88.19l-6-.88c-5-.68-11.36-6.16-16.46-10.56-2-1.7-3.84-3.31-5.46-4.51-8.11-6-16.86-12-26.77-12.93C11.9,205.85,6.7,208,3.23,213-6.84,227.34.49,260.66,4.3,271.17c6.87,19,25.64,54.83,47.47,54.83h0A21.09,21.09,0,0,0,61.65,323.46Zm-43.1-116c9.66.94,18.28,6.8,26.28,12.73,1.58,1.18,3.44,2.78,5.4,4.47,5.47,4.72,11.68,10.07,17,10.79l6.11.89c2,0,4-.1,6-.19s4.08-.19,6.08-.19c5.68,0,12.23.7,17.72,5.86,9.15,8.63,4.08,20.82-3,28.64a70.84,70.84,0,0,1-9,7.87c-5,3.92-10.24,8-13.39,13.88a55.53,55.53,0,0,0-4,11.19c-2.15,7.61-4.17,14.81-12.42,19.14A20.21,20.21,0,0,1,51.77,325h0C29.7,325,10.7,285.9,5.24,270.83c-3.76-10.38-11-43.24-1.19-57.29a14.21,14.21,0,0,1,12.31-6.15C17.06,207.39,17.8,207.43,18.55,207.5Z"/><path class="cls-4" d="M63.39,332.28c8.47-5.2,10.87-13.36,13.18-21.25.6-2,1.23-4.17,2-6.21,3.48-9.89,8.72-15.08,15.73-21.33,7.51-6.7,16-14.28,19-25.59,1.89-7.25,1.31-14-1.65-19a17.7,17.7,0,0,0-11.33-8c-4.7-1.16-9.6-1.25-14.35-1.35-5.68-.11-11-.22-16.11-2-6.91-2.43-12.18-7.31-17.75-12.47-1-.91-2-1.83-3-2.73C38.56,202.85,23,191.49,8.86,191.49A23.47,23.47,0,0,0-6.51,197C-12.41,202-19,215.52-18.23,224.4v5.18c-1.72,14.95,3.76,33.72,4.88,37.34,3.39,11,8.94,21.67,14.3,32,1.18,2.27,2.35,4.52,3.48,6.75,7.65,15.07,25.41,31.08,43.27,31.08h0A29.63,29.63,0,0,0,63.39,332.28ZM47.08,214.6c1,.89,2,1.79,2.93,2.7,5.56,5.14,11.29,10.46,18.8,13.1,5.51,1.93,11.37,2,17,2.16,4.57.09,9.3.19,13.68,1.27a14.51,14.51,0,0,1,9.47,6.65c2.55,4.28,3,10.2,1.32,16.66-2.53,9.68-9.09,16.1-18.08,24.11-7.35,6.55-12.84,12-16.56,22.57-.75,2.12-1.38,4.28-2,6.37-2.26,7.68-4.39,14.94-11.88,19.53a26.63,26.63,0,0,1-14.12,4h0c-16.66,0-33.35-15.17-40.59-29.43-1.14-2.24-2.31-4.5-3.49-6.78C-1.69,287.33-7.17,276.75-10.48,266c-1.09-3.53-6.44-21.83-4.76-36.2V224.2c-.68-7.89,5.39-20.48,10.65-24.86a20.48,20.48,0,0,1,13.45-4.85C19.32,194.49,32.54,201.44,47.08,214.6Z"/><path class="cls-4" d="M-23.56,477.22c2.59,2.4,5.17,5,7.91,7.73C-8.21,492.38-.54,500,8,505.08h2c-9-4.93-17.07-13-24.91-20.84-2.75-2.74-5.34-5.34-7.93-7.75-10.22-9.53-22.93-21.38-27.9-37-2-6.13-.37-12.83,3.61-15.25,3.2-2,7.2-.79,11.28,3.28,6.27,6.26,9.67,15,13,23.43l.87,2.21A72.6,72.6,0,0,0-.19,483.23c3.11,2.45,7.3,4.5,11.73,6.67,6,2.94,12.27,6,15.33,10.07l.8-.6C24.46,495.09,18.12,492,12,489c-4.38-2.14-8.53-4.17-11.55-6.56a71.51,71.51,0,0,1-21.55-29.63l-.86-2.2c-3.18-8.14-6.78-17.37-13.2-23.78-4.36-4.36-8.92-5.61-12.5-3.43-4.43,2.7-6.17,9.76-4,16.42C-46.67,455.67-33.85,467.62-23.56,477.22Z"/><path class="cls-4" d="M-35.37,472.86c3.27,3.12,6.64,6.35,9.78,9.65,1.63,1.72,3.25,3.46,4.89,5.21,5.51,5.88,11.16,11.91,17.17,17.36H-2C-8.32,499.46-14.23,493.17-20,487q-2.46-2.62-4.9-5.21c-3.15-3.32-6.53-6.55-9.8-9.69-10.4-9.95-21.14-20.23-26.07-34.63-1.73-5.06-6.63-22.08,3.09-28.57,8.7-5.81,21.2,3.3,27,10.41,6,7.3,8.77,16.45,11.45,25.3,3.22,10.61,6.54,21.57,15.42,29.56,5.7,5.13,12.29,8.3,18.67,11.37,2.46,1.18,5,2.4,7.46,3.72,1.33.71,2.82,1.43,4.41,2.2,6.65,3.2,14.9,7.19,17.3,13.59h.3l.68-.25c-2.49-6.84-11-10.94-17.84-14.24-1.58-.76-3.07-1.48-4.38-2.18-2.49-1.33-5-2.56-7.49-3.74-6.61-3.18-12.85-6.18-18.44-11.21-8.67-7.8-12-18.63-15.13-29.11-2.71-8.94-5.51-18.19-11.63-25.65-6.3-7.67-19-16.82-28.37-10.6-10,6.7-5.77,23-3.48,29.73C-56.68,452.45-45.84,462.82-35.37,472.86Z"/><path class="cls-4" d="M-66.78,450.25c5.65,13.39,16.48,22.13,27,30.58l2.66,2.15c7,5.69,12.29,12.49,17.41,19.07l2.37,3h3.83c-1.3-1.63-2.58-3.26-3.83-4.87-5.23-6.71-10.63-13.65-17.89-19.56l-2.67-2.15C-48.6,469.9-58.66,461.77-64,449.08c-1.51-3.59-3.57-7.48-5.76-11.6-8.68-16.37-18.52-34.93-.18-46a20.61,20.61,0,0,1,17.45-2c14.89,4.63,27.84,23,32.91,34.21a140.25,140.25,0,0,1,6.32,18.52c4.06,14,8.25,28.5,21.67,37.62,5.26,3.57,11.72,6.19,18.55,9,10.37,4.2,21,8.54,26.76,16.36h3.63c-5.88-9.65-17.74-14.47-29.26-19.14-6.68-2.71-13-5.27-18-8.67-12.53-8.5-16.39-21.84-20.48-36a142.56,142.56,0,0,0-6.46-18.92c-6.35-14-19.93-31.23-34.77-35.84a23.47,23.47,0,0,0-19.88,2.35c-20.77,12.56-9.76,33.32-.92,50C-70.28,442.94-68.25,446.77-66.78,450.25Z"/><path class="cls-4" d="M-92.36,425.2c1.76,3.2,3.59,6.5,5.17,10l1.21,2.68c4.32,9.64,8.41,18.74,16,26.95,6.58,7.08,14.41,15.16,24.13,21.4,2.09,1.33,4.11,2.48,6.06,3.59,5.71,3.23,10.63,6,14.78,12.1l.49.71c.57.82,1.11,1.62,1.64,2.44h1.19c-.64-1-1.31-2-2-3l-.49-.71c-4.29-6.27-9.55-9.25-15.11-12.41-2-1.1-4-2.24-6-3.57-9.62-6.17-17.4-14.19-23.93-21.23-7.52-8.09-11.38-16.7-15.86-26.68l-1.21-2.68c-1.6-3.55-3.43-6.87-5.21-10.08-4.25-7.7-8.27-15-8.74-24.38-.61-12,4.06-22.2,13.13-28.78,10.33-7.5,25-9,38.19-3.93,17.89,6.86,31.54,27.42,41.72,62.84a133.21,133.21,0,0,1,2.83,13.38c1.18,6.69,2.4,13.61,5,19.5,4.13,9.43,12.11,12.33,20.56,15.4l1.93.7,4,1.45c8.25,3,16.78,6.08,24.59,11.06,5.26,3.35,8.75,7.5,12.44,11.89l1,1.23h1.31l-1.59-1.88c-3.57-4.25-7.28-8.65-12.66-12.09-7.9-5-16.49-8.15-24.79-11.15l-4-1.45-1.93-.7c-8.24-3-16-5.82-20-14.86C-1,457.16-2.2,450.31-3.37,443.68A136.43,136.43,0,0,0-6.23,430.2c-10.27-35.75-24.12-56.52-42.32-63.5-13.54-5.19-28.54-3.64-39.13,4.05-9.36,6.79-14.17,17.31-13.55,29.64C-100.74,410-96.67,417.4-92.36,425.2Z"/><path class="cls-4" d="M-106.94,426.2c1.66,3.19,3.36,6.48,4.92,9.83l.66,1.43c4.35,9.36,8.85,19,14,27.94,6.44,11.11,17.3,19.73,27.8,28.06,4.71,3.75,9.5,7.57,13.91,11.62h1.49c-4.65-4.35-9.77-8.42-14.78-12.4-10.43-8.28-21.21-16.84-27.55-27.78-5.14-8.87-9.63-18.53-14-27.87l-.66-1.43c-1.57-3.36-3.28-6.67-4.94-9.86-4.73-9.13-9.2-17.75-10.85-28.28-2.36-15.11,3-34,12.77-44.88,6.45-7.21,14.54-10.81,23.38-10.41,20.58.93,46,13.47,60.33,29.83,14.64,16.66,18.31,41.21,21.55,62.88l.33,2.19c.39,2.63.6,5.45.81,8.43.61,8.37,1.24,17,6.13,23,5.7,6.93,16.66,7.94,25.48,8.75l2.67.26,3.36.32c9.93.94,20.2,1.91,28.56,8.1,4.65,3.45,8.66,7.9,12.53,12.21,2.1,2.33,4.24,4.71,6.5,6.95h1.43c-2.51-2.43-4.88-5.05-7.19-7.62-3.9-4.35-7.94-8.84-12.68-12.34-8.58-6.36-19-7.34-29.06-8.29-1.12-.11-2.24-.21-3.35-.33L34,476.25c-8.63-.8-19.36-1.79-24.8-8.4-4.69-5.71-5.3-14.2-5.9-22.42-.22-3-.42-5.84-.82-8.5l-.33-2.2c-3.1-20.72-7-46.51-21.79-63.39-14.54-16.54-40.21-29.23-61-30.17-9.15-.43-17.5,3.3-24.17,10.74-9.94,11.1-15.41,30.32-13,45.7C-116.22,408.3-111.5,417.4-106.94,426.2Z"/><path class="cls-4" d="M181.72,465.88c3.24-7,1.26-19.94-.06-28.51-.21-1.38-.41-2.65-.56-3.77-1.79-13-1.08-23.9,2.14-32.27,1.65-4.31,4.3-8.42,6.87-12.39a100.3,100.3,0,0,0,5.3-8.84,36.66,36.66,0,0,0,2.34-5.62c2.44-7.78,2.41-14.31-.07-18.87-1.87-3.44-5.11-5.82-9.64-7.07a25,25,0,0,0-6.64-.86c-9,0-17.55,4.07-21.88,10.37-3.38,4.93-3.54,11-3.69,16.94-.13,5-.26,10.1-2.33,14.48-4.78,10.16-14.8,17-24.93,17a22.64,22.64,0,0,1-4.93-.55,84.13,84.13,0,0,0-18-2.28c-7.72,0-13.55,1.68-17.33,5-2.28,2-3.24,4.24-2.86,6.65.93,5.85,9.77,11.07,14.31,13A109.1,109.1,0,0,0,110.33,432c6.7,2.08,13,4.05,18.81,8.55,4.1,3.19,7.23,7.12,10.25,10.92,3.54,4.45,7.21,9.06,12.42,12.44,4.19,2.72,13.22,7.32,20.49,7.32h0C176.9,471.24,180.07,469.43,181.72,465.88Zm-58.3-59a23.36,23.36,0,0,0,5.15.57c10.51,0,20.89-7.06,25.84-17.56,2.15-4.57,2.29-9.82,2.42-14.89.16-6,.3-11.71,3.52-16.39,4.14-6,12.41-9.94,21.05-9.94a23.8,23.8,0,0,1,6.37.82c4.26,1.18,7.3,3.4,9,6.59,3,5.46,1.64,12.85,0,18.09a34.65,34.65,0,0,1-2.27,5.47c-1.52,3-3.42,5.91-5.25,8.75-2.59,4-5.28,8.17-7,12.57-3.27,8.53-4,19.55-2.19,32.76.15,1.13.35,2.4.56,3.79,1.3,8.46,3.26,21.24.14,27.94-1.47,3.17-4.34,4.78-8.51,4.78-7,0-15.85-4.5-19.94-7.16-5.08-3.29-8.53-7.63-12.19-12.22C137.11,447,134,443,129.76,439.77c-5.93-4.61-12.64-6.7-19.14-8.72a107.63,107.63,0,0,1-10.5-3.68c-4.37-1.87-12.86-6.84-13.72-12.26-.33-2,.53-4,2.53-5.73,3.6-3.16,9.2-4.75,16.67-4.75A82.76,82.76,0,0,1,123.42,406.89Z"/><path class="cls-4" d="M173.47,455.49c2.4-5,.94-14.36,0-20.53-.15-1-.3-1.9-.41-2.71-1.31-9.32-.79-17.08,1.56-23.06a48.82,48.82,0,0,1,5-8.86A70.06,70.06,0,0,0,183.5,394a25.7,25.7,0,0,0,1.73-4.06c1.79-5.57,1.78-10.27,0-13.57a11,11,0,0,0-7.19-5.22,21.89,21.89,0,0,0-5.66-.89c-4.11,0-7.15,1.84-10.17,6.14-2.55,3.64-3.12,7.27-3.67,10.79a29.85,29.85,0,0,1-2.37,8.78c-3.69,7.66-14.57,16.57-23.08,16.57a10.49,10.49,0,0,1-2.28-.24,62.8,62.8,0,0,0-13.25-1.64c-5.69,0-10,1.22-12.79,3.61-1.71,1.47-2.43,3.11-2.15,4.88.67,4.27,7.22,8.06,10.58,9.47a79.77,79.77,0,0,0,7.79,2.67c4.9,1.49,9.53,2.9,13.75,6.12a44.79,44.79,0,0,1,7.49,7.81c2.61,3.2,5.3,6.51,9.14,8.95,3.09,2,9.73,5.26,15.09,5.26h0C169.87,459.41,172.23,458.09,173.47,455.49Zm-42.89-42.23a11.74,11.74,0,0,0,2.49.26c8.86,0,20.17-9.21,24-17.14a30.33,30.33,0,0,0,2.45-9.06c.56-3.56,1.09-6.92,3.51-10.37,2.81-4,5.6-5.71,9.35-5.71a20.67,20.67,0,0,1,5.39.86,10,10,0,0,1,6.59,4.73c2.1,3.86,1.12,9.08-.06,12.79a26,26,0,0,1-1.66,3.9,72.44,72.44,0,0,1-3.84,6.26,50.35,50.35,0,0,0-5.13,9c-2.4,6.14-3,14.07-1.61,23.57.11.81.26,1.73.41,2.73,1,6,2.38,15.18.12,19.94-1.06,2.23-3.12,3.35-6.12,3.35h0c-5.13,0-11.56-3.21-14.55-5.11-3.71-2.35-6.23-5.45-8.9-8.73a46,46,0,0,0-7.66-8c-4.36-3.32-9.3-4.82-14.07-6.28a80.29,80.29,0,0,1-7.69-2.63c-3.71-1.55-9.42-5.15-10-8.71-.23-1.42.37-2.72,1.81-4,2.61-2.24,6.69-3.37,12.14-3.37A61.59,61.59,0,0,1,130.58,413.26Z"/><path class="cls-4" d="M181.92,474.47c8.56-9.14,6.07-23.14,3.87-35.5-.61-3.4-1.18-6.62-1.47-9.52-1.75-17.48,2.35-31.75,12.52-43.64,8.32-9.71,14-33.46,4.5-45.11-3.3-4-8.44-6.16-14.9-6.16-11,0-24.23,6.31-29.55,14.07-3.68,5.36-3.56,12.09-3.45,18.59,0,2,.07,3.91,0,5.78-.31,7.76-5.35,17.29-9.85,21.66-2.27,2.21-5.24,3.23-9.34,3.23a58.6,58.6,0,0,1-11-1.47,55.79,55.79,0,0,0-10.37-1.4h-.18c-2.15,0-4.44-.1-6.86-.21s-5.17-.24-7.78-.24c-5.22,0-11.86.42-16.92,3.66-8,5.14-7.89,15.65-3.69,22.93,3.62,6.27,11.25,10.92,23.3,14.2,16.57,4.52,28.89,10.53,39.09,26.54,5.41,8.5,9.69,14.32,19.38,17.7a21.33,21.33,0,0,0,7,1.14h0C172.41,480.72,178.26,478.38,181.92,474.47Zm-76.08-78.68c2.44.11,4.73.21,6.91.21H113a55.38,55.38,0,0,1,10.12,1.38,59.23,59.23,0,0,0,11.14,1.49c4.32,0,7.6-1.15,10-3.51,4.75-4.61,9.84-14.22,10.16-22.34.07-1.9,0-3.9,0-5.84-.11-6.34-.23-12.91,3.27-18,5.16-7.52,18-13.63,28.73-13.63,6.14,0,11,2,14.12,5.79,8.91,10.91,3.66,34.33-4.48,43.83-10.36,12.1-14.53,26.62-12.75,44.39.29,2.93.87,6.17,1.48,9.6,2.15,12.12,4.59,25.86-3.62,34.63-3.47,3.72-9.05,5.94-14.91,5.94a20.65,20.65,0,0,1-6.68-1.08c-9.39-3.27-13.57-9-18.87-17.3-10.37-16.28-22.86-22.38-39.66-27-11.79-3.21-19.22-7.71-22.7-13.74-4-6.88-4.14-16.79,3.36-21.59,4.84-3.1,11.3-3.5,16.38-3.5C100.69,395.55,103.31,395.67,105.84,395.79Z"/><path class="cls-4" d="M177.49,491.36c18.15-6.16,17.61-27.58,14-44.47-1.86-8.6-3-15.6-3-23.89,0-.82,0-1.73,0-2.71-.11-6.65-.28-16.7,4.38-20.43.14-.12,13.83-13,18.42-18.64,5.91-7.28,9.51-18.49,8.75-27.26-1.06-12.2-5.45-19.64-13.81-23.42-8-3.59-17.9-4.51-27.31-2.56-7.76,1.61-16.41,6.39-23.14,12.78-7,6.67-8.36,15.34-8.75,23.72-.73,15.12-12,18.3-21.41,18.3A65.36,65.36,0,0,1,108.07,380a66.81,66.81,0,0,0-18-2.61c-7,0-16.56,1.32-22.36,7.63-3.74,4.06-5.35,9.62-4.77,16.5,1.65,19.89,14.37,32.43,38.89,38.34l.81.19c7.2,1.73,14,3.36,19.84,8.43,4.16,3.62,7.36,8.22,10.45,12.68,1,1.42,2,2.84,3,4.23,9,12.26,22.47,26.88,35.9,26.88h0A17.57,17.57,0,0,0,177.49,491.36ZM107.8,381a66.18,66.18,0,0,0,17.73,2.8c14.06,0,21.8-6.66,22.4-19.26.39-8.17,1.69-16.61,8.45-23C163,335.22,171.45,330.54,179,329c9.2-1.91,18.92-1,26.69,2.5,8,3.6,12.2,10.78,13.22,22.58.74,8.54-2.77,19.46-8.53,26.55-4.54,5.59-18.19,18.42-18.3,18.52-5,4-4.83,14.35-4.72,21.2,0,1,0,1.87,0,2.69,0,8.38,1.16,15.44,3,24.11,3.57,16.48,4.15,37.38-13.31,43.31a16.62,16.62,0,0,1-5.35.87h0c-13,0-26.27-14.4-35.1-26.47-1-1.39-2-2.8-3-4.21-3.13-4.51-6.36-9.17-10.62-12.86-6-5.23-12.93-6.89-20.25-8.65l-.82-.2c-24-5.79-36.51-18-38.13-37.44-.55-6.6,1-11.89,4.51-15.74,5.56-6,14.83-7.31,21.63-7.31A65.72,65.72,0,0,1,107.8,381Z"/><path class="cls-4" d="M57,427c13.7,11.61,28.87,15.28,44.93,19.16l5.19,1.27c14.4,3.57,20.68,15.82,27.32,28.79.94,1.83,1.88,3.66,2.84,5.47,4.39,8.25,9.83,17.18,16.7,23.36h4.75c-7.83-5.72-14-15.69-18.8-24.77-1-1.8-1.89-3.61-2.82-5.43-6.66-13-13.54-26.44-29.27-30.34l-5.21-1.26c-15.7-3.8-30.53-7.39-43.69-18.54-9.78-8.28-21.2-22.13-21.21-33.91a16.59,16.59,0,0,1,6.35-13.06c10-8.48,23.66-13.34,37.59-13.34A53.76,53.76,0,0,1,94.58,366a76.33,76.33,0,0,1,11.29,4.22c6.5,2.81,13.23,5.72,19.78,5.72a18.34,18.34,0,0,0,14-6.25c3.41-3.67,6.4-14.54,6.72-15.76,2.26-8.39,7-12.6,11.15-16.32.7-.62,1.38-1.23,2-1.84a90.82,90.82,0,0,1,22.63-15.51,60.74,60.74,0,0,1,24.89-5.84c8.47,0,23.23,2.53,26.86,19.46,4.09,19.07-6.57,37.34-17.91,48.07-2.91,2.75-6,5.16-9,7.48-9.48,7.35-18.43,14.3-17.59,29.69.43,7.84,1.34,15.87,2.22,23.63.92,8.16,1.88,16.59,2.29,24.86.71,14.43.55,29.85-8.31,37.51h4.17c8.5-10,7.65-27.22,7.14-37.65-.42-8.38-1.38-16.85-2.31-25.05-.88-7.73-1.78-15.71-2.21-23.46-.75-13.82,7.21-20,16.44-27.16,3-2.37,6.21-4.82,9.22-7.67,11.93-11.3,23.13-30.59,18.79-50.88-3-14.08-13.61-21.83-29.8-21.83a63.69,63.69,0,0,0-26.17,6.13,93.62,93.62,0,0,0-23.4,16c-.63.59-1.3,1.18-2,1.79-4.26,3.8-9.56,8.52-12,17.78-.84,3.13-3.56,11.85-6,14.49a15.42,15.42,0,0,1-11.81,5.3c-5.93,0-12.37-2.78-18.59-5.47A78.45,78.45,0,0,0,95.29,363a57.07,57.07,0,0,0-13.65-1.61c-14.63,0-29,5.12-39.54,14.05-4.92,4.19-7.41,9.35-7.4,15.35C34.72,407.35,53.25,423.89,57,427Z"/><path class="cls-4" d="M13.85-.16c-.22-1.28-.43-2.49,0-3L13-3.8c-.68.89-.44,2.24-.17,3.81.32,1.86.68,4-.46,5.59S8.49,8.45,6,9.51a32.9,32.9,0,0,0-3,1.42C-4.14,15-8,15.65-16.56,15.5a28.86,28.86,0,0,0-9.16,1.69c-4,1.22-7.76,2.36-12.69.71-1.72-.58-3.45-1.18-5.17-1.79C-50,13.86-56.63,11.53-63.49,10.5-74.16,8.9-85,11.8-91.1,17.89c-4.65,4.63-6.53,10.92-5.46,18.18C-94.5,50-85.19,55.43-75.34,61.19c4.74,2.77,9.64,5.63,13.91,9.56C-50.32,81-48,97.88-46,112.8l.4,2.89c2.31,16.59,8.74,26.64,23.73,37.1,14.19,9.89,17.12,23.47,8.7,40.36A116.23,116.23,0,0,1-25.82,213.8c-2.58,3.3-3.61,3.32-3.93,3.18-2-.87-.17-11.67.42-15.21.11-.69.21-1.27.27-1.7,2.12-14.22-5.92-22.23-14.44-30.71a116,116,0,0,1-8.58-9.2c-5.54-6.88-7.36-13.07-5.88-20.06.37-1.77.79-3.49,1.19-5.16,1.54-6.32,3-12.28,1.67-19.53C-58.27,98-75.83,92-90,90s-26.81.27-38,3.59v1c11.13-3.33,23.82-5.58,37.86-3.64,13.84,1.9,31,7.72,34.05,24.58,1.28,7-.15,12.9-1.66,19.11-.4,1.68-.83,3.41-1.2,5.19-1.54,7.31.33,13.76,6.08,20.9a116.3,116.3,0,0,0,8.65,9.27C-35.87,178.36-28,186.2-30,199.93c-.06.42-.16,1-.27,1.67-1.51,9.07-2,15.31.17,16.29a1.47,1.47,0,0,0,.62.13c1.14,0,2.59-1.17,4.49-3.6a117,117,0,0,0,12.8-20.82c8.67-17.4,5.63-31.41-9-41.63s-21-20.15-23.32-36.42l-.4-2.88C-47,97.57-49.38,80.47-60.75,70c-4.35-4-9.3-6.89-14.08-9.68-9.64-5.64-18.75-11-20.74-24.4C-96.6,29-94.81,23-90.4,18.6c5.88-5.88,16.39-8.66,26.76-7.11,6.76,1,13.36,3.33,19.73,5.57,1.73.6,3.45,1.21,5.19,1.79,5.23,1.75,9.33.5,13.3-.71a27.52,27.52,0,0,1,8.85-1.64c8.81.15,12.72-.48,20.11-4.7.78-.44,1.81-.9,2.9-1.37C9,9.31,11.91,8,13.23,6.18S14.19,1.79,13.85-.16Z"/><path class="cls-4" d="M-5.69-2.83l-.75.66A2.39,2.39,0,0,1-5.9.22C-7.11,4.59-17.12,9.94-20.21,10.91c-6.34,2-14.64,2.22-22.77.61-1.76-.35-3.67-.77-5.69-1.21-13.07-2.87-31-6.79-41.72,1.81-6.77,5.42-10.46,12.07-11.28,20.33-.91,9.16,4,15.63,9.59,22a111.6,111.6,0,0,0,10.31,9.9c2.58,2.28,5.26,4.63,7.73,7.13a174.42,174.42,0,0,1,12.35,14.6q1.42,1.82,2.86,3.62C-53,97-51.93,106-50.88,114.63c.75,6.19,1.52,12.6,4,18.45,3.1,7.34,8.57,13.62,13.85,19.7,5.09,5.85,10.35,11.9,13.52,18.9,2.84,6.28,4.72,17.37,0,22.36-1.33,1.41-2.43,2-3.16,1.76-1.76-.62-2.21-5.78-2.56-9.94a29,29,0,0,0-1-6.42c-2.08-5.32-5.9-9.47-9.6-13.49-1.59-1.72-3.23-3.51-4.73-5.37a51.46,51.46,0,0,1-9.92-19.7A93.07,93.07,0,0,1-52.6,125c-.75-10.1-1.47-19.64-8.45-28.41-9.54-12-23.76-18.59-40-18.59-8.53,0-16.16-.38-23.23-5A31.39,31.39,0,0,1-128,70v1.33a29.76,29.76,0,0,0,3.15,2.44c7.29,4.81,15.4,5.21,23.78,5.21,15.94,0,29.88,6.47,39.23,18.21,6.79,8.53,7.49,17.92,8.24,27.87a93.61,93.61,0,0,0,2.15,16A52.37,52.37,0,0,0-41.33,161.2c1.52,1.9,3.17,3.69,4.77,5.43,3.81,4.13,7.39,8,9.4,13.17a28.45,28.45,0,0,1,.9,6.15c.42,4.9.86,10,3.23,10.8a2.31,2.31,0,0,0,.69.11c1,0,2.17-.7,3.53-2.13,5.34-5.63,3-17.38.2-23.46-3.23-7.14-8.54-13.24-13.68-19.15S-42.93,139.89-46,132.69c-2.42-5.72-3.19-12.06-3.93-18.18C-50.95,105.7-52,96.6-58,89.06c-1-1.19-1.9-2.4-2.85-3.61A174,174,0,0,0-73.33,70.77c-2.49-2.53-5.18-4.89-7.78-7.18a112.32,112.32,0,0,1-10.22-9.81c-5.42-6.19-10.22-12.47-9.35-21.23.8-8,4.36-14.41,10.91-19.65,10.39-8.31,28-4.44,40.89-1.61,2,.44,3.94.86,5.71,1.21,8.29,1.64,16.77,1.41,23.26-.63,3.33-1,13.65-6.59,15-11.39A3.37,3.37,0,0,0-5.69-2.83Z"/><path class="cls-4" d="M-21.51-3.23C-25.39,4.12-28.34,6.48-38,6c-3.06-.15-6.19-.41-9.21-.67C-52,4.93-57,4.5-62.06,4.5c-13.81,0-31,0-39.31,14.23-5.87,10.07-5.68,22.91.5,33.51A50.85,50.85,0,0,0-94.82,60c1.36,1.54,2.77,3.13,4,4.75,1,1.29,1.87,2.68,2.75,4a42.65,42.65,0,0,0,5.52,7.26c-1-.24-1.88-.52-2.79-.78A39.55,39.55,0,0,0-94,73.5c-2.66-.16-5.37-.08-8,0s-5,.14-7.52,0c-8.74-.46-13.62-3.73-18.45-8.57v1.41c4.76,4.61,9.73,7.7,18.4,8.16,2.53.13,5.11.06,7.6,0s5.28-.15,7.9,0a38.12,38.12,0,0,1,8.45,1.76c1.54.45,3.14.91,4.8,1.26l2.09.45-1.68-1.33c-2.83-2.24-4.86-5.35-6.82-8.36-.89-1.37-1.81-2.78-2.79-4.09-1.23-1.65-2.65-3.26-4-4.81A49.63,49.63,0,0,1-100,51.73c-6-10.28-6.19-22.73-.5-32.49C-92.6,5.67-76.06,5.5-62.6,5.5c5.25,0,10.33.41,15.25.83,3,.26,6.17.53,9.25.68,10.19.49,13.43-2.13,17.48-9.78Z"/><path class="cls-4" d="M-104,8c-7.08,5.91-10.1,12.64-10.08,22.52,0,11.3,5.35,18.49,11,26.1a83.64,83.64,0,0,1,8.16,12.5A8,8,0,0,0-94,70.41c-3.49-1.09-7.28-1.09-11-1.1-3.87,0-7.88,0-11.45-1.28-3.94-1.4-8.34-4.8-11.57-8.64v1.52c3.26,3.61,7.45,6.71,11.23,8.06s7.83,1.34,11.79,1.34c4.34,0,8.44,0,12.14,1.6l1.37.58-.73-1.29A11.62,11.62,0,0,0-93.06,70,8.6,8.6,0,0,1-94,68.65,84.39,84.39,0,0,0-102.25,56c-5.55-7.47-10.8-14.53-10.81-25.5,0-9.55,2.89-16.06,9.72-21.75C-99.46,5.51-85-3.76-81.39-.62l.65-.76C-85.17-5.21-100.31,4.92-104,8Z"/><path class="cls-4" d="M-98.41,67.2l-2.18-3C-107.3,55.06-114.9,44.68-118,33.84a34.23,34.23,0,0,1,.6-20.18c1.27-3.34,8.7-12.93,13-14.87a2.39,2.39,0,0,1,1.79-.25l.36-.94a3.38,3.38,0,0,0-2.56.28C-109.37-.06-117,9.76-118.31,13.3a35.22,35.22,0,0,0-.63,20.82c3.13,11,10.79,21.46,17.55,30.68l1.69,2.32c-6.75.82-17.49-1.79-24.56-7.82A21.08,21.08,0,0,1-128,55.21v1.68a23.47,23.47,0,0,0,3.08,3.17,37.68,37.68,0,0,0,22.54,8.21A21.22,21.22,0,0,0-98.73,68l.8-.13Z"/><path class="cls-4" d="M128.13,497.8c-2.06-3.81-4.18-7.75-5.92-11.67-.38-.85-.75-1.7-1.11-2.52-3.35-7.67-6.25-14.29-13.55-20.18-9.93-8-22.29-14-34.25-19.72-6-2.88-12.19-5.86-17.82-9-15-8.37-25.57-24.54-28.23-43.26-1.33-9.34,1.92-20.35,8.93-30.2,3.88-5.46,5.33-9.41,4.68-12.78-.78-4.06-4.55-7.22-10-10.72-17.87-11.54-36-24.26-44.34-41.63a169.27,169.27,0,0,1-10.83-29.91,108.82,108.82,0,0,1-2.06-11c-1.07-7-2.17-14.23-5.81-20.61-6.5-11.42-13.62-11.42-25.4-11.42H-59.4c-13.86,0-24.65,1.94-32.92,6.05A53.79,53.79,0,0,0-114,249.37c-1.58,2.55-3.42,5.21-5.37,8A140.09,140.09,0,0,0-128,271v2.16A121.9,121.9,0,0,1-118.52,258c2-2.83,3.81-5.49,5.4-8.07a52.88,52.88,0,0,1,21.24-19.78c8.06-4,18.56-5.94,32.11-5.94h2.22c11.42,0,18.31,0,24.53,10.91,3.55,6.22,4.64,13.36,5.69,20.27a112.43,112.43,0,0,0,2.08,11.11,170.23,170.23,0,0,0,10.9,30.09c8.44,17.61,26.71,30.42,44.7,42,5.2,3.36,8.81,6.36,9.53,10.06.59,3.09-.8,6.8-4.52,12-7.15,10.06-10.47,21.33-9.1,30.92,2.7,19,13.44,35.48,28.73,44,5.66,3.16,11.87,6.14,17.87,9,11.91,5.73,24.23,11.65,34.06,19.59C114,470,116.75,476.15,120.18,484l1.11,2.53c1.76,3.95,3.89,7.91,6,11.74,1.21,2.24,2.43,4.51,3.59,6.8H132C130.73,502.63,129.42,500.2,128.13,497.8Z"/><path class="cls-4" d="M102.88,474.76c-8.33-14.18-22.31-20.63-34.76-25.56-5-2-9.79-5.31-14.39-8.51a100.46,100.46,0,0,0-10.39-6.63C33.62,428.93,30.43,422,26,412.33l-.11-.24c-5.21-11.36-7.31-20.94-6.79-31.07a60.34,60.34,0,0,1,2.31-12c1.64-6.27,3.35-12.75,1.53-19.32-2.07-7.44-9.4-11.59-16.49-15.61a87.05,87.05,0,0,1-7.59-4.64c-9.74-7-15.7-13.86-22-25.34C-28.68,294-31.64,282.7-34.5,271.82c-2.31-8.79-4.69-17.87-8.44-26.39-3.54-8.06-9.06-12.57-16.39-13.4-12.81-1.46-27.8,8.87-36,19.82-7,9.36-13.79,19.41-19.71,29-1.17,1.9-2.49,3.93-3.89,6.08A141.62,141.62,0,0,0-128,302.26v2.42c2.43-5.67,6.36-11.7,9.93-17.15,1.4-2.16,2.73-4.19,3.9-6.11,5.9-9.61,12.7-19.63,19.66-29,8-10.73,22.6-20.85,35.06-19.43,6.95.79,12.2,5.1,15.59,12.81,3.71,8.45,6.09,17.49,8.39,26.24,2.87,10.94,5.85,22.26,11.46,32.5,6.37,11.62,12.4,18.58,22.28,25.67A85.8,85.8,0,0,0,6,334.94c6.91,3.92,14.06,8,16,15,1.75,6.3.16,12.37-1.53,18.79A61.6,61.6,0,0,0,18.1,381c-.52,10.3,1.6,20,6.88,31.54l.11.24c4.51,9.82,7.77,16.91,17.78,22.19a101.7,101.7,0,0,1,10.28,6.57c4.66,3.24,9.47,6.59,14.6,8.62C80,455,93.84,461.36,102,475.27a142,142,0,0,1,12.69,29.81h1A142.35,142.35,0,0,0,102.88,474.76Z"/><path class="cls-4" d="M76.73,484.65c-11.85-9.56-24.22-13.49-39.15-16.46-22.71-4.51-25-21-27.64-40.08-.36-2.61-.74-5.32-1.17-8-.33-2-.66-4.15-1-6.28C4.56,393.14.91,369.71-10.8,352.13c-14.32-21.51-34.14-32-60.58-32-13.25,0-24.71,1.47-37.57,8.69-5.54,3.11-14.64,10-19,17.35v9.91l.7-.2c-2.31-8.12,11.76-19.93,19.81-24.44,12.29-6.9,23.32-8.31,36.1-8.31,25.36,0,44.36,10,58.09,30.63,11.34,17,14.93,40.11,18.11,60.48q.5,3.2,1,6.29c.42,2.66.8,5.35,1.16,8,2.68,19.37,5.22,37.68,30,42.61C51.49,474,63.48,477.82,74.85,487q11.94,9.63,18.05,18.1h3.63Q90.16,495.5,76.73,484.65Z"/><path class="cls-4" d="M-82.36,493.33c-7.87-8.82-16-18.4-21.76-29.89-1.45-2.91-3-6-4.72-9.2-8.59-16.53-19.28-37.1-18.72-53.22l-.43,0v8.32c2.33,14.71,11,31.47,18.26,45.38,1.68,3.23,3.27,6.29,4.72,9.19,5.78,11.6,14,21.23,21.91,30.11a125.79,125.79,0,0,0,11.45,11.08h1.53A130.24,130.24,0,0,1-82.36,493.33Z"/><path class="cls-4" d="M-111.82,485.41c-1.51-2.47-3.81-5.69-6.48-9.41-3.09-4.31-6.58-9.19-9.69-14.08v1.85c2.9,4.47,6,8.87,8.88,12.81,2.65,3.71,4.94,6.91,6.44,9.35,4.36,7.13,8.59,13.45,12.79,19.15h1.25C-103,499.25-107.31,492.76-111.82,485.41Z"/><path class="cls-4" d="M428.79-4.9C423.07,4,410,12.37,402.68,15.56a144.41,144.41,0,0,1-18,6.08c-8.69,2.51-17.68,5.11-26,10.16a124,124,0,0,0-16.8,12.07,48.51,48.51,0,0,0-5.8,6.52c-2.54,3.23-5.17,6.57-8.35,8.4-4.44,2.55-8.89,2.91-11.89.94-2.72-1.78-3.95-5.21-3.46-9.68.76-6.94,7.58-14.47,11.65-19,5-5.53,9.84-11.75,14.51-17.77,4.81-6.18,9.77-12.57,14.76-18l-.25-.24h-.88c-4.89,5.34-9.73,11.57-14.42,17.6s-9.48,12.21-14.46,17.71C319.14,35,312.18,42.68,311.39,50c-.54,4.85.85,8.62,3.9,10.62A9.16,9.16,0,0,0,320.37,62a16,16,0,0,0,7.86-2.34c3.34-1.92,6-5.34,8.64-8.64a46.64,46.64,0,0,1,5.66-6.38,122.69,122.69,0,0,1,16.67-12c8.16-5,17.09-7.55,25.72-10a146.34,146.34,0,0,0,18.16-6.12C410.66,13.18,424.22,4.37,430-4.9Z"/><path class="cls-4" d="M462.58-4.9c-6.46,8.83-26.89,19.21-34.78,21.45-10.25,2.91-19.52,6.32-29.33,9.94-4.74,1.75-9.64,3.55-14.7,5.31-16.39,5.7-24.32,9.3-36.94,22.1-11.38,11.54-21.7,17.73-29.15,17.41a11.49,11.49,0,0,1-8.61-4.38c-9-10.76,5.43-33.23,10.05-39.87a101.64,101.64,0,0,0,14.53-32h-1A100.53,100.53,0,0,1,318.3,26.49c-4.73,6.78-19.42,29.78-10,41.08a12.46,12.46,0,0,0,9.34,4.74h.6c9.75,0,21.28-9.58,29.3-17.72C360,42,367.86,38.39,384.1,32.75c5.06-1.76,10-3.57,14.72-5.32,9.79-3.61,19-7,29.25-9.92,7.26-2.06,29.37-12.72,35.75-22.41Z"/><path class="cls-4" d="M481.47-4.9a110.26,110.26,0,0,1-54.66,34.19c-5.72,1.49-11.69,2.69-17.47,3.84-13.71,2.74-27.89,5.57-40.43,12.66-6.24,3.52-11.14,8.83-15.88,14-4.33,4.69-8.81,9.55-14.31,13-7.2,4.58-20.26,7.31-29.67,4-4.81-1.72-8-4.79-9.42-9.14-4.69-14.21,5.49-31.88,11-41.37,6.34-11,8.34-20.1,10.65-30.63l.12-.52h-1l-.06.3C318,5.85,316,14.88,309.72,25.75c-5.54,9.63-15.87,27.55-11,42.18,1.52,4.59,5,8,10,9.77a29.27,29.27,0,0,0,9.78,1.54c7.65,0,15.65-2.35,20.76-5.6,5.6-3.57,10.13-8.47,14.51-13.21,4.69-5.08,9.53-10.32,15.63-13.77,12.4-7,26.5-9.83,40.13-12.55,5.8-1.16,11.79-2.35,17.53-3.85A111.42,111.42,0,0,0,482.79-4.9Z"/><path class="cls-4" d="M510.31-4.9C505.74.11,498.85,5,492.17,9.65c-3.86,2.72-7.51,5.28-10.5,7.74C471,26.14,456.79,31.39,443,35.77c-7.93,2.51-16.88,3.69-25.55,4.83-14.6,1.93-29.7,3.91-41.59,12.24A116.87,116.87,0,0,0,361.7,65.06c-6.56,6.31-12.76,12.28-21.92,16.49-13.36,6.13-36.76,7.59-44.16-5.84-4.72-8.58-3.75-24,2.79-44.61a47.28,47.28,0,0,1,4.31-8.86,46.7,46.7,0,0,0,4.49-9.32c1-3.13.63-7,.31-10.76a42.08,42.08,0,0,1-.25-7.06h-1a45.27,45.27,0,0,0,.25,7.15c.32,3.65.65,7.43-.26,10.38a47.44,47.44,0,0,1-4.4,9.12,47.51,47.51,0,0,0-4.4,9.05c-6.73,21.17-7.64,36.44-2.71,45.39,4.48,8.15,13.76,10.92,23.21,10.92a56.86,56.86,0,0,0,22.24-4.65c9.31-4.28,15.57-10.3,22.19-16.68a117,117,0,0,1,14.05-12.12c11.7-8.19,26.67-10.16,41.16-12.06,8.7-1.15,17.7-2.34,25.71-4.88,13.88-4.4,28.21-9.7,39-18.56,3-2.43,6.6-5,10.44-7.69,7-4.94,14.28-10,18.91-15.37Z"/><path class="cls-4" d="M547.31-4.9c-9.56,12.16-26.78,22.21-37.83,27.81-16,8.11-33.63,14.55-53.91,19.69-8,2-15.95,3.45-23.65,4.83-21.31,3.81-41.43,7.4-60.65,22.64-1.65,1.31-3.29,2.65-4.94,4-10.29,8.35-20.93,17-33.68,19.49-11.26,2.21-34.4,3.71-41.48-6.41C284.83,78.08,287,64.4,289,52.33c.58-3.61,1.13-7,1.44-10.18a142.77,142.77,0,0,0,.14-14.31c-.24-12.06-.52-27,3.44-32.74h-3.44c-3.48,7.17-3.24,20.71-3,32.8.1,5.45.2,10.6-.13,14-.3,3.07-.84,6.44-1.41,10-2,12.63-4.35,26.95,2.68,37,5,7.15,16.26,9.32,27.12,9.32a92.71,92.71,0,0,0,17.39-1.69c13.49-2.64,24.42-11.52,35-20.1,1.64-1.34,3.28-2.67,4.92-4,18.62-14.77,38.39-18.3,59.31-22,7.75-1.39,15.78-2.82,23.86-4.87,20.49-5.19,38.33-11.71,54.52-19.92,11.83-6,30.53-17,40.2-30.49Z"/><path class="cls-4" d="M629.47,239.51h0c-6.59-1.92-13.41-3.9-20.06.84-3,2.15-5.15,5.57-7.2,8.87-2.53,4.08-5.15,8.3-9.45,10.06-5.83,2.39-9.9,2.68-12.11.87-3.81-3.11-2.1-12-.6-19.83.85-4.44,1.66-8.64,1.34-11.33-.61-5.13-3-10.33-5.59-15.85-4.48-9.63-9.12-19.6-4.2-29.95a10.46,10.46,0,0,1,7.11-5.7,12.92,12.92,0,0,1,10.74,2.16c3.48,2.6,4.22,6.28,5,10.17.67,3.31,1.36,6.74,3.84,9.54,2.92,3.29,8.54,5,14.48,6.84,6.6,2,13.33,4.1,16.7,8.41V213.1c-3.79-4-10.34-6-16.4-7.85-5.81-1.79-11.3-3.47-14-6.56-2.3-2.6-3-5.89-3.61-9.07-.79-3.9-1.6-7.94-5.39-10.77a13.89,13.89,0,0,0-11.58-2.33,11.47,11.47,0,0,0-7.78,6.24c-5.11,10.78-.38,21,4.2,30.81,2.53,5.43,4.92,10.57,5.51,15.54.3,2.53-.49,6.65-1.33,11-1.56,8.12-3.32,17.31.94,20.8a6.89,6.89,0,0,0,4.51,1.41,23.85,23.85,0,0,0,8.61-2.13c4.61-1.89,7.32-6.25,9.93-10.46,2-3.22,4.06-6.55,6.93-8.59,6.25-4.46,12.54-2.63,19.2-.69l.29.08Z"/><path class="cls-4" d="M629.47,247.38c-4.46-1.38-12.08-1.12-16.16,3-3.28,3.32-6.15,8.52-8.92,13.55a101.51,101.51,0,0,1-5.86,9.78c-6.43,8.92-14.61,12.47-21.89,9.51-6.61-2.7-12.41-11.28-10.43-24.37,2.59-17.13,3-28.08-1.54-44-.54-1.88-1.15-3.82-1.74-5.7-4-12.7-8.14-25.83,4.08-36,4.61-3.85,9.15-5.48,13.48-4.87,8.08,1.15,14.34,9.51,20.06,18,5,7.44,12.56,8.49,19.85,9.51a58.48,58.48,0,0,1,9.07,1.77v-1a59.67,59.67,0,0,0-8.93-1.72c-7.4-1-14.39-2-19.16-9.08-5.85-8.65-12.26-17.2-20.75-18.41-4.62-.66-9.42,1.06-14.26,5.09-12.73,10.6-8.5,24.06-4.4,37.07.59,1.87,1.2,3.81,1.73,5.67,4.52,15.76,4.09,26.61,1.52,43.59-1.78,11.8,2.66,22,11,25.44a14.72,14.72,0,0,0,5.57,1.11c6.11,0,12.36-3.83,17.5-11a101,101,0,0,0,5.92-9.87c2.74-5,5.57-10.12,8.76-13.34,3.81-3.85,11.37-4.09,15.45-2.7Z"/><path class="cls-4" d="M629.47,251.3c-15.37-.08-18.49,11.65-21.5,23-.46,1.73-.93,3.52-1.45,5.25-3.85,13-12.74,29.86-25.14,34.8-4.87,1.94-8.78,1.83-12-.33-11.13-7.51-11.29-37.68-11.39-57.64,0-7.41-.07-13.26-.62-16.65a162.7,162.7,0,0,0-4.34-16.9c-5.25-18.09-12.44-42.87-3.92-54.92,3.23-4.57,8.43-7,15.89-7.44,13.1-.77,25.67,5,34.48,15.73.9,1.1,1.69,2.12,2.41,3.05,3.86,5,6.19,8,14.82,9.21a66.41,66.41,0,0,0,12.74.36v-3a63.57,63.57,0,0,1-12.33-.31c-7.41-1-9.12-3.24-12.86-8.07-.74-.95-1.54-2-2.46-3.11-9.43-11.51-22.9-17.64-37-16.83-8.32.49-14.43,3.42-18.17,8.71-9.35,13.23-1.93,38.81,3.49,57.49a161.38,161.38,0,0,1,4.26,16.54c.51,3.16.54,9.2.58,16.18.11,21.83.27,51.72,12.71,60.12a12.91,12.91,0,0,0,7.36,2.21,20.22,20.22,0,0,0,7.41-1.58c13.38-5.33,22.67-22.47,26.91-36.74.52-1.76,1-3.58,1.47-5.33,2.94-11.13,5.53-20.85,18.6-20.8Z"/><path class="cls-4" d="M629.47,257a10.93,10.93,0,0,0-2.63,1c-10,5.2-13.22,25.35-16.08,43.13-1.54,9.57-2.87,17.83-5,22-5.3,10.21-16.74,26.85-33.71,23.54-15.7-3.06-18.6-20.49-20.93-34.49-.3-1.78-.59-3.51-.89-5.16-1.85-10-2.21-19.5-2.6-29.57-.24-6.25-.49-12.72-1.12-19.39-.85-8.91-3.42-17.95-5.9-26.69-1.61-5.67-3.28-11.53-4.39-17.13-.41-2.1-.89-4.26-1.39-6.54-2.85-13-6.09-27.8-.42-39.32,6.67-13.55,18.26-18.38,35.41-14.75,15,3.16,24.46,8.74,35,20.57,7.45,8.35,15.94,8,24.66,4.85v-1.09c-8.51,3.17-16.78,3.57-23.91-4.43-10.71-12-20.34-17.67-35.55-20.88-17.43-3.68-29.71,1.46-36.52,15.29-5.82,11.83-2.55,26.78.35,40,.5,2.28,1,4.43,1.38,6.52,1.12,5.64,2.79,11.53,4.41,17.22,2.47,8.69,5,17.69,5.86,26.51.63,6.64.88,13.09,1.12,19.33.39,10.11.76,19.65,2.62,29.71q.45,2.48.88,5.15c2.39,14.3,5.35,32.11,21.73,35.3a23.5,23.5,0,0,0,4.57.45c15.08,0,25.27-15,30.22-24.51,2.22-4.28,3.56-12.62,5.12-22.27,2.68-16.68,6-37.43,15.55-42.4a9.86,9.86,0,0,1,2.17-.82Z"/><path class="cls-4" d="M629.47,268.35c-.75.79-1.58,1.56-2.43,2.36a26.33,26.33,0,0,0-5.32,6c-2.29,4.06-3.92,10.69-4.33,15.15-.91,9.71-.21,19.64.47,29.25.2,2.93.42,6,.58,8.88,1.37,25.31-16.93,46.58-42.56,49.47A23.79,23.79,0,0,1,557.06,374c-17.81-15.18-19.75-56.4-20.57-74-1.46-31.05-6.33-61.59-15.32-96.11-3.95-15.17-7.13-34.14,3.39-46.27,10.34-11.91,26.16-17.57,42.32-15.13,14.55,2.2,27.93,12.73,38,21.66,8.18,7.27,16.42,9.21,24.62,5.83v-1.11c-8,3.42-16,1.6-24-5.47-10.14-9-23.68-19.66-38.49-21.9-16.5-2.49-32.66,3.29-43.22,15.46-10.84,12.49-7.62,31.78-3.61,47.19,9,34.45,13.83,64.92,15.29,95.89.83,17.74,2.79,59.26,20.93,74.72a24.33,24.33,0,0,0,16.2,5.95,29.84,29.84,0,0,0,3.37-.2c26.17-2.95,44.84-24.67,43.44-50.52-.15-2.92-.37-6-.57-8.89-.68-9.57-1.38-19.46-.48-29.08.41-4.36,2-10.82,4.21-14.75a25.84,25.84,0,0,1,5.13-5.81c.6-.56,1.19-1.11,1.75-1.67Z"/><path class="cls-4" d="M361.19,505.08c5.81-7.72,14.61-11.51,23.14-15.17a106.17,106.17,0,0,0,12.92-6.26c14.17-8.58,21.15-22.3,20.18-39.68v-.18c-1.44-26,2.5-33.66,6.07-35.55,2.29-1.2,5.28-.41,8.89,2.35,10.41,8,5.07,35.73,2.29,47.3-.31,1.3-.86,3.05-1.45,4.92-1.5,4.76-3.2,10.17-2.78,13.26.64,4.62,3,6.18,5.56,7.84a18.4,18.4,0,0,1,4.82,4.12,29,29,0,0,1,5.69,17.05h1a29.92,29.92,0,0,0-5.89-17.66,19,19,0,0,0-5.06-4.35c-2.53-1.66-4.53-3-5.11-7.13-.39-2.88,1.35-8.4,2.75-12.83.59-1.88,1.15-3.66,1.47-5,3.5-14.6,7.82-40.29-2.66-48.32-3.95-3-7.3-3.85-10-2.44-5.56,2.94-7.78,15.22-6.59,36.49V444c.94,17-5.87,30.39-19.71,38.76a105,105,0,0,1-12.8,6.2c-8.87,3.81-18,7.75-24,16.09Z"/><path class="cls-4" d="M337.05,505.08c7.7-5.23,16.17-9.38,24.91-13.66,7.06-3.45,14.35-7,21.26-11.24,11.36-6.94,19.09-12.36,22.94-24,3.58-10.84,4.46-23.3,5-35.13.06-1.18.1-2.55.15-4.07.27-9.59.74-25.64,7.6-28.95,3.07-1.49,7.27-.26,12.48,3.64,12.53,9.38,14.43,28.5,12,43.27-.55,3.35-1.42,6.8-2.35,10.46-3,11.83-6.09,24.05,1.18,34.95a84.12,84.12,0,0,0,7.41,9.2c4.48,5.06,8.54,9.66,9.92,15.55h1c-1.41-6.3-5.71-11.16-10.18-16.21a84,84,0,0,1-7.33-9.1c-7-10.52-4-22.53-1-34.14.93-3.68,1.81-7.16,2.36-10.55,2.45-15.06.48-34.58-12.41-44.23-5.53-4.14-10.08-5.4-13.52-3.74-7.4,3.57-7.86,19.37-8.16,29.82-.05,1.51-.09,2.88-.15,4-.59,11.77-1.46,24.16-5,34.87-3.74,11.34-11.34,16.66-22.51,23.49-6.87,4.19-14.14,7.75-21.18,11.19-9.23,4.52-18.15,8.9-26.22,14.56Z"/><path class="cls-4" d="M315.58,505.08c1.18-.57,2.36-1.12,3.55-1.62,5-2.15,10.54-4.18,16.36-6.34,25.91-9.59,55.27-20.47,61.88-47.05,1.07-4.29,1.24-13.13,1.45-23.37.46-22.71,1.09-53.81,11.6-63.23a10.34,10.34,0,0,1,8.25-2.74c12,1.06,25.31,28.81,29.05,38.45,5.86,15.12,2,33.19-1.48,45.47-.4,1.41-.79,2.75-1.16,4-4.13,14.33-5.85,20.26,7.26,32.94,1.17,1.12,2.5,2.35,3.92,3.64,6.14,5.6,13.66,12.47,16.43,19.83h1c-2.84-7.85-10.74-15.07-16.77-20.57-1.41-1.29-2.74-2.5-3.89-3.62-12.68-12.26-11.13-17.62-7-31.94.36-1.27.75-2.61,1.15-4,3.48-12.42,7.42-30.7,1.45-46.1-3.79-9.79-17.43-38-29.89-39.09a11.51,11.51,0,0,0-9,3c-10.83,9.71-11.47,41.07-11.93,64-.2,10.18-.38,19-1.42,23.15-6.48,26.06-35.58,36.84-61.26,46.35-5.83,2.16-11.34,4.21-16.4,6.36-1.83.78-3.65,1.64-5.44,2.54Z"/><path class="cls-4" d="M305,505.08a234,234,0,0,1,23.88-11c6.56-2.72,13.34-5.53,20.3-8.94,26.5-13,39-30.8,39.29-56.16.26-22.25.17-44.73.09-66.47,0-11-.09-22.3-.09-33.54,0-10.8,3-18.67,7.91-20.53,4.27-1.62,9.79,1.18,16,8.11,12.38,13.91,24.95,28.71,33,42.69,8.19,14.19,13.84,31.3,15.11,45.77,1,11.45-2.17,19.53-5.53,28.09a126.44,126.44,0,0,0-4.7,13.52c-5.91,21.74,8.81,28.6,23.05,35.22,11.62,5.41,22.65,10.56,23.37,23.21h1c-.76-13.31-12.52-18.79-23.95-24.11-14.5-6.75-28.2-13.13-22.51-34.06a130,130,0,0,1,4.67-13.42c3.41-8.67,6.62-16.85,5.59-28.53-1.28-14.62-7-31.88-15.23-46.19-8.12-14.06-20.73-28.91-33.14-42.85-8.18-9.19-13.79-9.63-17.06-8.38-5.36,2-8.56,10.06-8.56,21.46s0,22.58.09,33.55c.08,21.73.17,44.2-.09,66.44-.3,24.94-12.61,42.51-38.73,55.28-6.93,3.4-13.7,6.2-20.25,8.91-8.8,3.65-17.35,7.2-25.56,11.9Z"/><path class="cls-4" d="M294.37,505.08c17-10.39,34.63-20.24,51.86-29.85l3.44-1.92c12.63-7,24.56-13.7,28.68-28.89,3.7-13.59.87-28.41-1.63-41.49-.47-2.44-.93-4.84-1.34-7.19-1.72-9.91-2.51-20.34-3.28-30.42-.67-8.76-1.36-17.82-2.66-26.56q-.44-2.94-.9-6c-2.55-16.68-5.44-35.58-2.9-52.62,1.84-12.32,6.26-19.52,13.15-21.4,16.86-4.61,46.81,22.82,61.73,41.2,20.86,25.7,31.76,61,29.92,96.95-.42,8.15-4.17,17.54-7.8,26.63-5.33,13.36-10.85,27.17-5.87,37.62,2.82,5.93,8.62,10.2,17.72,13,4.32,1.35,12.23,2.13,21.39,3,21.85,2.15,51.76,5.09,61.13,17.83a14.43,14.43,0,0,1,2.81,10h3a17.52,17.52,0,0,0-3.39-11.79c-10.17-13.81-40.85-16.83-63.25-19-9-.88-16.77-1.65-20.8-2.9-8.26-2.58-13.46-6.33-15.9-11.46-4.41-9.28.62-21.88,5.95-35.23,3.72-9.31,7.56-18.94,8-27.58,1.89-36.65-9.26-72.74-30.58-99-11.08-13.64-44.3-47.82-64.85-42.21-8.14,2.23-13.3,10.26-15.33,23.86-2.6,17.48.32,36.63,2.91,53.52q.45,3,.9,5.95c1.28,8.64,2,17.64,2.63,26.34.77,10.16,1.57,20.66,3.32,30.72.41,2.36.87,4.77,1.34,7.24,2.44,12.75,5.2,27.21,1.69,40.13-3.8,14-15.19,20.33-27.25,27.06l-3.44,1.92C326.1,483,307,493.72,288.68,505.08Z"/><path class="cls-4" d="M438.47,154.17c1.46-6,3-18.88-1.47-24.6-2.26-2.87-5.73-3.58-10.23-2l-3,2c-8,.76-24.19,6.1-28.27,14.22a11.33,11.33,0,0,0-.57,9.68c3.3,8.14,15.22,12.82,18.8,14.06a24,24,0,0,0,7.85,1.42h0C430,168.89,436.21,163.52,438.47,154.17Zm-2.26-24c4.26,5.42,2.71,17.9,1.29,23.74-2.15,8.87-8,14-15.93,14a23.08,23.08,0,0,1-7.52-1.36c-3.48-1.21-15.06-5.75-18.2-13.49a10.35,10.35,0,0,1,.54-8.86c3.87-7.72,20-13,27.59-13.68h.13l3.05-2C431.18,127.1,434.23,127.68,436.21,130.19Z"/><path class="cls-4" d="M435.18,174.44l.12-.07,4.07-7.12.06-.17c.74-4.79,2.93-9.45,5-14,4.32-9.21,8.78-18.73,1.12-29.66-4.08-5.82-10.17-8.78-18.1-8.78-8.93,0-17.95,3.84-22.53,6.12-11.12,5.55-27.82,19.44-25.29,33.07,3.11,16.79,31.85,23,35.12,23.65a35.78,35.78,0,0,0,6.94.76h0C426.28,178.28,430.3,177.13,435.18,174.44Zm9.6-50.4c7.32,10.45,3.18,19.29-1.21,28.66-2.14,4.54-4.34,9.24-5.11,14.13l-3.89,6.8c-4.66,2.56-8.51,3.65-12.84,3.65h0a34.61,34.61,0,0,1-6.75-.74c-3.2-.64-31.34-6.71-34.33-22.85-2.43-13.1,13.9-26.57,24.76-32,4.5-2.25,13.35-6,22.08-6C435.07,115.68,440.89,118.49,444.78,124Z"/><path class="cls-4" d="M432.18,178c7.45-4.47,10.37-13.6,12.94-21.67.63-2,1.23-3.83,1.87-5.58.73-2,1.68-4.09,2.69-6.31,3.21-7.08,6.84-15.1,4.32-22.61-3.39-10.09-14.5-11.26-22.57-11.26-2.7,0-5.37.14-7.52.25A52.38,52.38,0,0,0,393,122.62l-.17.15V123a1.21,1.21,0,0,0,.07.45l-2.17,1.45a18.77,18.77,0,0,0-5.32,5c-.24.3-.49.59-.74.89a26.65,26.65,0,0,1-3.83,3.56,34.61,34.61,0,0,0-3.13,2.75c-4.59,4.73-7.22,12-7.23,19.92,0,7.35,2.9,11.57,10,14.56a154.56,154.56,0,0,0,18.31,6.19c6.14,1.68,13.35,3.4,20.21,3.4h0C424.28,181.14,428.72,180.09,432.18,178ZM424,111.83c2.14-.11,4.79-.25,7.47-.25,8.42,0,18.48,1.2,21.63,10.58,2.39,7.13-1.16,15-4.29,21.88-1,2.23-2,4.34-2.72,6.38-.65,1.77-1.25,3.64-1.88,5.62-2.52,7.89-5.38,16.84-12.5,21.11-3.31,2-7.57,3-12.67,3h0c-6.74,0-13.87-1.7-19.95-3.36a153.08,153.08,0,0,1-18.18-6.15c-6.8-2.85-9.44-6.67-9.43-13.64,0-7.67,2.54-14.68,6.95-19.22a33.3,33.3,0,0,1,3-2.68,27.9,27.9,0,0,0,4-3.69l.74-.89a18,18,0,0,1,5.07-4.76l3.65-2.43-.66-.41h0A51.43,51.43,0,0,1,424,111.83Z"/><path class="cls-4" d="M420.33,185.83c10.41-1.18,17.5-7.44,23-20.3,1.35-3.17,2.43-6.32,3.46-9.36,2.55-7.52,5-14.62,11.17-20.83,5.45-5.45,10.16-14.07,8.36-21-1.13-4.38-4.58-7.42-10.24-9a39.2,39.2,0,0,0-10.95-1.4c-7.55,0-15.4,1.59-22.34,3l-3.27.66A111.13,111.13,0,0,0,407.08,111l-2.63.82c-.68.22-1.64.47-2.75.77-5.61,1.48-10.76,3-12.12,5.08l-3.2,1.6-.15.11a35,35,0,0,1-3.85,3.45,43.21,43.21,0,0,0-3.89,3.46c-6.17,6.48-13.2,16.71-15,25-2.73,12.77,5.19,26.54,17.65,30.68,6.89,2.29,14,2.92,20.71,3.26,1.84.09,3.7.25,5.5.41,2.77.25,5.64.5,8.47.5h0A39.24,39.24,0,0,0,420.33,185.83Zm-30-67.45.07-.13c1.11-2,7.67-3.71,11.58-4.75,1.13-.3,2.11-.55,2.8-.77l2.63-.83a111.51,111.51,0,0,1,12.32-3.41l3.28-.65c6.89-1.39,14.69-3,22.14-3a38.44,38.44,0,0,1,10.68,1.36c5.29,1.52,8.5,4.33,9.54,8.34,1.7,6.57-2.84,14.81-8.1,20.07-6.36,6.37-8.81,13.57-11.41,21.2-1,3-2.09,6.17-3.43,9.3-5.33,12.48-12.18,18.56-22.19,19.7a39.38,39.38,0,0,1-4.34.23h0c-2.79,0-5.63-.25-8.39-.49-1.8-.16-3.67-.33-5.53-.42-6.61-.34-13.67-1-20.44-3.21-12-4-19.62-17.23-17-29.52,1.72-8.08,8.63-18.12,14.71-24.5a39,39,0,0,1,3.8-3.37,40.2,40.2,0,0,0,3.89-3.49Z"/><path class="cls-4" d="M391,192.24l1.64-.07c2.8-.13,5.7-.15,8.77-.16,9.77,0,19.87-.1,28.08-3.81,8.89-4,12.88-14.93,16.07-23.7.55-1.5,1.08-2.95,1.61-4.31.81-2.08,1.48-4.18,2.12-6.22a61.73,61.73,0,0,1,3.2-8.67c1.94-4,4.44-5.62,7.89-7.86.62-.4,1.27-.82,1.95-1.28,9.79-6.59,19-18.78,16.1-29.95-2.14-8.23-9.54-12.41-22-12.41a80.59,80.59,0,0,0-10.48.78c-14.44,1.91-28.26,6.07-38.91,11.74a89.45,89.45,0,0,1-10.13,4.34c-1.91.72-3.89,1.47-5.83,2.3a38,38,0,0,0-7.35,4.3c-.54.39-1.25.82-2,1.28-1.86,1.15-4,2.45-4.85,3.81L373.24,126a93.24,93.24,0,0,0-16.35,23.54c-1.7,3.68-3.79,9.17-4.12,14.44-.38,6.08-.55,14.7,2.4,19.3,5.34,8.3,17.71,9.26,26.55,9.26h0C385,192.53,388.19,192.38,391,192.24Zm86.46-85.78c2.79,10.7-6.18,22.47-15.69,28.88-.67.45-1.32.86-1.94,1.27-3.45,2.23-6.18,4-8.24,8.25a62.86,62.86,0,0,0-3.26,8.81c-.63,2-1.29,4.11-2.09,6.16-.53,1.36-1.06,2.81-1.61,4.32-3.14,8.6-7,19.29-15.55,23.14-8,3.62-18,3.67-27.68,3.72-3.08,0-6,0-8.8.16l-1.65.08c-2.77.13-5.92.28-9.21.28h0c-8.61,0-20.64-.91-25.7-8.8-2.8-4.35-2.63-12.76-2.25-18.7.32-5.12,2.37-10.48,4-14.08A92,92,0,0,1,374,126.69l3.66-3.67.07-.09c.74-1.18,2.77-2.43,4.56-3.53.77-.47,1.49-.92,2.06-1.33a37.34,37.34,0,0,1,7.16-4.19c1.92-.82,3.89-1.57,5.79-2.29a89.35,89.35,0,0,0,10.24-4.39c10.56-5.61,24.26-9.74,38.58-11.63a78.71,78.71,0,0,1,10.35-.77C468.36,94.8,475.43,98.72,477.44,106.46Z"/><path class="cls-4" d="M371.94,209.61c2.14-1,4.15-2.12,6.1-3.2,3.89-2.18,7.57-4.23,12.08-5.26a125.33,125.33,0,0,1,21.42-2.66,98.07,98.07,0,0,1,17.4,1.27c2.93.4,6,.8,9,1.06,1.28.11,2.43.17,3.54.17h0c6.94,0,11.68-2.2,14.52-6.72,3.4-5.44,2.33-11.28,1.29-16.92-.36-2-.74-4.07-.9-6.06-.88-11-.27-23.3,10.9-31.81a66.06,66.06,0,0,0,21.67-30c2.62-7.27,1.14-13.81-4.38-19.46-4.83-4.94-12.14-5.92-19.32-6.24-1.27-.06-2.54-.09-3.79-.09a98.61,98.61,0,0,0-22.27,2.78l-1.69.37c-7,1.55-14.91,3.3-21.48,6.41A113.88,113.88,0,0,0,402.94,101,95.86,95.86,0,0,1,388,109.46c-5.25,2.19-8.68,5-12.82,9.1a32.71,32.71,0,0,1-4.58,3.55c-2.33,1.59-4.74,3.23-6.42,5.65l-1.53,2.75c-3.27.49-8.63,12.55-9.24,14a148.31,148.31,0,0,0-7.68,22.06c-.64,2.49-1.49,5.07-2.4,7.8-3.68,11.09-7.86,23.66,3.66,31.74,5.18,3.63,10.69,5.55,15.94,5.55A21.27,21.27,0,0,0,371.94,209.61Zm-9.06-78.11.33,0,1.8-3.24a23.1,23.1,0,0,1,6.14-5.36,32.9,32.9,0,0,0,4.72-3.66c4.05-4,7.4-6.76,12.51-8.89a96,96,0,0,0,15.11-8.56,113.43,113.43,0,0,1,13-7.63c6.48-3.06,14.34-4.8,21.28-6.33l1.68-.37c10.27-2.29,17.68-3,25.81-2.67,7,.31,14.06,1.25,18.64,5.94,5.31,5.42,6.67,11.45,4.16,18.42a65,65,0,0,1-21.33,29.5c-11.56,8.8-12.2,21.46-11.3,32.69a61.86,61.86,0,0,0,.92,6.16c1,5.46,2,11.1-1.16,16.2-2.64,4.21-7.11,6.26-13.67,6.26-1.08,0-2.21-.06-3.46-.16-3-.26-6.05-.67-9-1.06a98.69,98.69,0,0,0-17.57-1.28,126.4,126.4,0,0,0-21.6,2.69c-4.65,1.06-8.39,3.14-12.35,5.35-1.93,1.08-3.92,2.19-6,3.17a20.1,20.1,0,0,1-8.6,1.92c-5,0-10.35-1.86-15.36-5.37-10.91-7.66-7-19.32-3.29-30.61.91-2.74,1.77-5.33,2.42-7.86a147.38,147.38,0,0,1,7.62-21.91c2.43-5.56,6.68-13.37,8.57-13.37Z"/><path class="cls-4" d="M383,213.25c10.44-5.44,18-9,27.78-9a41.72,41.72,0,0,1,4.68.27c6,.67,14.75,2.19,22.14,5.59,1.4.65,2.84,1.44,4.36,2.28,4.22,2.33,8.58,4.73,13.36,4.73h0a13.47,13.47,0,0,0,3-.33,9.13,9.13,0,0,0,6.17-4.53c4.3-7.62-.5-22.26-2.81-29.3l-.35-1.07c-3.17-9.77-3.18-24.06,4-34,2.21-3.08,5.4-5.74,8.48-8.31,1.44-1.2,2.94-2.45,4.31-3.72a89.73,89.73,0,0,0,13.84-16.28c.68-1,1.36-2,2-3,3.91-5.66,7.29-10.56,6.89-18.66l-.06-1.19c-.29-6.25-.58-12.7-7.42-16.33-8-4.25-17-6.31-27.4-6.31a123.42,123.42,0,0,0-22.9,2.5C427.22,79.55,414,85,402.73,93.11c-5.33,3.83-10.57,7.57-16.25,11-1.36.82-2.78,1.62-4.16,2.39-3.86,2.16-7.85,4.39-11.13,7.74C368.53,117,366,120,363.63,123c-1.28,1.55-2.49,3-3.73,4.46a48.65,48.65,0,0,1-3.74,3.7c-3.21,3-6.52,6-7.68,10.17l-1,3.81c-1.45,2.61-2.82,5.35-4.14,8-1.58,3.17-3.2,6.44-5,9.55a59.85,59.85,0,0,0-8,21.86c-1.22,8.41.8,15.94,5.84,21.77,6.14,7.1,16.58,11.34,27.93,11.34A40.93,40.93,0,0,0,383,213.25ZM491.88,83.07c5.33,2.83,5.55,7.67,5.83,13.81l.06,1.2c.35,7.1-2.61,11.39-6.36,16.82-.67,1-1.36,2-2.05,3A87.15,87.15,0,0,1,476,133.66c-1.31,1.22-2.71,2.38-4.19,3.62-3.23,2.69-6.57,5.47-9,8.86-7.74,10.78-7.77,26.18-4.36,36.66l.35,1.09c2,6.11,6.7,20.41,3.05,26.89a6.21,6.21,0,0,1-4.23,3.08,10.48,10.48,0,0,1-2.31.25c-4,0-8-2.21-11.91-4.35-1.5-.83-3.05-1.69-4.56-2.38-7.75-3.57-16.81-5.15-23.06-5.85a45.11,45.11,0,0,0-5-.29c-10.44,0-18.33,3.7-29.17,9.35a37.87,37.87,0,0,1-17.43,4c-10.49,0-20.08-3.86-25.66-10.3-4.46-5.16-6.24-11.85-5.14-19.37A57.05,57.05,0,0,1,341,164.17c1.86-3.2,3.51-6.51,5.1-9.72,1.34-2.68,2.72-5.45,4.18-8l.09-.18,1-4.15c.92-3.3,3.91-6.06,6.81-8.73a53.07,53.07,0,0,0,4-4c1.26-1.46,2.54-3,3.78-4.52,2.36-2.88,4.81-5.85,7.39-8.5,3-3,6.6-5.07,10.44-7.21,1.41-.79,2.86-1.6,4.26-2.46,5.77-3.52,11.07-7.29,16.44-11.16,10.95-7.9,23.73-13.12,39.06-16a120.24,120.24,0,0,1,22.35-2.45C475.83,77.11,484.33,79.06,491.88,83.07Z"/><path class="cls-4" d="M433.38,275.33c5.48,6.06,11.15,12.32,15.87,19.18C473.16,329.25,486.91,357,486.44,396c-.1,8-2.1,15.93-4,23.59s-3.9,15.49-4,23.41c-.22,17.2,16.68,17.7,30.26,18.1,2.94.09,5.72.17,8.22.41,18.88,1.77,33.55,5.67,44.86,11.93,9.32,5.17,21.4,19.24,28.14,31.65h1.17C584.32,492.35,572,478,562.23,472.56,550.8,466.23,536,462.29,517,460.5c-2.53-.24-5.32-.32-8.28-.41-13.82-.41-29.5-.87-29.29-17.08.1-7.81,2.07-15.63,4-23.18,1.95-7.72,4-15.69,4.06-23.82.48-39.27-13.34-67.16-37.37-102.07-4.75-6.91-10.44-13.2-15.95-19.28a210.52,210.52,0,0,1-14.5-17.23c-5.05-6.94-10.5-20.86-6.16-28.67,2.23-4,6.75-5.79,13.44-5.31,3.93.28,8.37,2,13.07,3.83,10.2,4,21.77,8.46,29.14-3,5-7.76,3.89-21.39,2.94-33.41a121.81,121.81,0,0,1-.62-15.8c1-15.28,6.64-30.39,15.14-40.44a114.81,114.81,0,0,1,8.76-8.91c8.34-7.89,17-16.05,17.11-28.67.12-10.78-6.39-16-12.69-21-5-4-9.79-7.78-11.32-14.22-2.93-12.29,15.95-18.68,27.24-22.49,1.71-.58,3.32-1.12,4.66-1.62C544.19,28.86,570.69,19,584.79-4.9h-1.18c-14,23.24-40.12,33-63.63,41.68-1.32.49-2.93,1-4.63,1.61-11.61,3.93-31,10.49-27.9,23.67,1.62,6.78,6.73,10.85,11.68,14.78,6.11,4.85,12.42,9.87,12.31,20.15-.14,12.21-8.61,20.22-16.8,28a117,117,0,0,0-8.84,9c-8.62,10.2-14.37,25.53-15.36,41a120.14,120.14,0,0,0,.62,15.94c.94,11.86,2,25.31-2.8,32.79-6.92,10.81-17.6,6.66-27.93,2.65-4.77-1.85-9.28-3.6-13.36-3.9-7.11-.52-12,1.44-14.38,5.83-4.6,8.28.87,22.37,6.22,29.74A213.15,213.15,0,0,0,433.38,275.33Z"/><path class="cls-4" d="M629.47,495.06a49,49,0,0,0-7.45-8.2,85.54,85.54,0,0,0-10.15-6.75,95.29,95.29,0,0,1-8.63-5.56l-5.54-4.19c-8.67-6.59-17.63-13.4-27.52-19.05-13.58-7.75-24.2-12-38.3-10.59-1.83.18-3.83.47-6,.78-11,1.6-24.75,3.58-29.59-7.7-3.83-9-2.7-23.56-1.7-36.44.41-5.27.8-10.24.8-14.36v-3.53c0-15,.05-30.47-4.27-44.62-4.45-14.54-14.63-28-23.61-39.91l-2.42-3.21c-1.44-1.93-3.05-3.91-4.75-6-9-11.07-19.14-23.6-13.93-37.06,3.06-.08,5.7,1.31,8.26,2.67,3.58,1.89,7.27,3.84,11.73,1.38,11.45-6.32,10.05-26.38,9.21-38.36-.11-1.6-.21-3.07-.28-4.37a165.58,165.58,0,0,1,4.82-47.86c4.15-16.79,10.7-28,21.24-36.48C514.78,115,524.34,105.41,516.17,88c-1.51-3.21-4.85-6.68-8.38-10.35-5.29-5.49-10.76-11.17-9.89-16,.44-2.45,2.49-4.5,6.25-6.29,7.07-3.37,16.17-4.83,25-6.23,6.47-1,13.16-2.11,19-3.94C577.71,35.9,598,20.08,611.7-4.9h-1.14C597,19.56,577,35.1,547.79,44.28c-5.74,1.8-12.39,2.87-18.83,3.9-8.87,1.42-18,2.88-25.24,6.31-4.07,1.94-6.3,4.24-6.8,7-1,5.31,4.68,11.17,10.15,16.85,3.47,3.6,6.75,7,8.19,10.08,7.86,16.73-1.45,26-14.44,36.42-10.58,8.47-17.44,20.23-21.59,37A166.46,166.46,0,0,0,474.38,210c.07,1.31.17,2.79.29,4.4.82,11.74,2.19,31.41-8.7,37.42-4,2.2-7.29.45-10.78-1.39-2.78-1.48-5.65-3-9.11-2.77l-.32,0-.11.29c-5.7,14.11,5.2,27.56,14,38.36,1.7,2.1,3.3,4.07,4.73,6l2.42,3.21c8.94,11.83,19.06,25.23,23.45,39.61,4.28,14,4.26,28.73,4.23,44.32V383c0,4.08-.39,9-.8,14.28-1,13-2.15,27.73,1.78,36.91,5.14,12,19.29,9.95,30.66,8.3,2.1-.3,4.09-.59,5.9-.77,13.83-1.36,24.3,2.81,37.71,10.46,9.83,5.62,18.76,12.41,27.4,19q2.76,2.1,5.55,4.19a95.72,95.72,0,0,0,8.71,5.63,84.79,84.79,0,0,1,10,6.66,53.39,53.39,0,0,1,8.08,9.07Z"/><path class="cls-4" d="M629.47,463.11c-7.12-3.6-14.34-7.08-21.48-10.51s-13.83-6.64-20.38-10c-2.8-1.42-5.72-3.07-8.82-4.82-8.19-4.62-16.66-9.39-24.78-11.06-5.81-1.2-11.69-.12-17.38.93-7,1.29-13.6,2.5-19.86-.31-9.92-4.45-9.64-20.31-9.42-33.06.07-4.2.14-8.17-.14-11.45-1.68-19.26-4.38-36.16-8-50.25-3.6-13.9-11.24-27.76-23.38-42.38-.85-1-2-2.19-3.31-3.54-4.38-4.48-10.37-10.61-9.11-15.31.83-3.09,2.9-3.46,6.81-3.9,3.6-.41,8.08-.92,11.25-5.34,6.37-8.86,4.06-24.59,2.2-37.23-.66-4.44-1.28-8.64-1.44-12-1-19.83.35-34.34,4.39-48.52,3.69-12.93,9.34-27.55,23.28-38,14.37-10.71,23-19.09,13.12-37.14-1.22-2.22-2.63-4.39-4-6.49-3.52-5.38-6.83-10.46-5.54-14.45.88-2.7,3.82-5,9-7,12.86-4.92,29.71-5.94,44.58-6.84l1-.06c13.82-.84,33.81-3.13,47.76-13.24,5.19-3.76,9.77-9.43,13.68-14.78V21.35c-4.28,6-9.52,13.19-15.44,17.48-13.31,9.66-32.74,11.86-46.19,12.67l-1,.06c-15.08.92-32.18,1.95-45.47,7-6.09,2.33-9.62,5.22-10.79,8.84-1.74,5.36,2,11,5.87,17,1.34,2.06,2.73,4.18,3.89,6.29,9,16.32,1.57,23-12.28,33.3-14.66,10.94-20.55,26.13-24.37,39.54-4.14,14.52-5.49,29.31-4.51,49.48.17,3.5.8,7.77,1.47,12.29,1.78,12.11,4,27.17-1.66,35-2.4,3.34-5.69,3.71-9.16,4.11-3.74.42-8,.9-9.37,6.11-1.7,6.35,5,13.18,9.86,18.18,1.28,1.3,2.38,2.43,3.15,3.36,11.85,14.27,19.3,27.75,22.78,41.22,3.6,13.92,6.27,30.66,7.94,49.75.27,3.12.2,7,.13,11.14-.24,13.63-.53,30.58,11.19,35.85,7.12,3.19,14.5,1.83,21.63.52,5.66-1,11-2,16.24-.94,7.66,1.57,15.92,6.23,23.91,10.74,3.12,1.76,6.08,3.42,8.94,4.87,6.57,3.34,13.3,6.57,20.43,10,7.58,3.65,15.25,7.33,22.78,11.17Z"/><path class="cls-4" d="M629.47,405.54a82.31,82.31,0,0,0-10-6.85c-10.4-5.84-18.5-3.7-27.87-1.22l-4,1c-17.63,4.36-35.27-2.24-47.18-17.64-10.26-13.26-13.26-30-14.72-43.05-.88-7.82-1.95-15.64-3-23.2-1.24-9.09-2.53-18.48-3.46-27.83-.7-6.95-1.08-14.06-1.44-20.93-.52-9.91-1.06-20.15-2.57-30.1-.86-5.58-2.15-11.29-3.39-16.82-2.17-9.6-4.42-19.53-4.37-28.94v-1.57c.06-15.53.11-28.94,11.6-40.17,11.13-10.88,25.32-17.2,40-17.77,11.22-.44,21.58,1.19,31.6,2.76,5.26.83,10.69,1.68,16.2,2.23,8.93.89,16.58,0,22.68-2.46v-3.28c-7.82,3.52-17.22,3.27-22.38,2.75-5.43-.54-10.82-1.39-16-2.2-10.17-1.6-20.69-3.25-32.18-2.8-15.38.61-30.27,7.22-41.94,18.63-12.39,12.1-12.44,26.77-12.5,42.3V190c-.05,9.76,2.23,19.86,4.44,29.62,1.24,5.48,2.52,11.14,3.35,16.62,1.49,9.8,2,20,2.55,29.8.36,6.91.74,14.05,1.44,21.07.95,9.4,2.23,18.82,3.48,27.94,1,7.54,2.09,15.34,3,23.13,1.5,13.46,4.61,30.69,15.33,44.55,12.66,16.37,31.45,23.36,50.27,18.71,1.4-.35,2.75-.71,4.08-1.06,9.1-2.41,16.29-4.31,25.63.94a82.15,82.15,0,0,1,11.49,8.1Z"/><path class="cls-4" d="M629.47,440.39a141.56,141.56,0,0,0-29.57-18.62c-7.67-3.65-14.91-4.65-22.58-5.71a120.22,120.22,0,0,1-14.23-2.57c-24.14-6.34-40.77-31.75-44.72-53.58-3.24-17.93-5.16-36.59-7-54.63-1.47-14.27-3-29-5.15-43.35-.78-5.18-1.66-10.41-2.58-16-4.34-26-9.26-55.57-4.15-80.83,6.42-31.81,40.38-46.64,67.51-49.68,4.69-.52,9.3-.77,13.77-1,11.94-.66,23.22-1.28,34.64-6.78a41.1,41.1,0,0,0,14.07-10.43V95.69A39.75,39.75,0,0,1,615,106.77c-11.23,5.41-22.42,6-34.25,6.68-4.48.25-9.12.5-13.83,1C539.42,117.55,505,132.62,498.5,165c-5.14,25.44-.21,55.06,4.14,81.19.93,5.54,1.8,10.77,2.58,15.93,2.16,14.32,3.68,29.06,5.14,43.31,1.86,18.07,3.78,36.74,7,54.71,3.88,21.46,19.76,47.62,45.45,54.37a121.51,121.51,0,0,0,14.34,2.59c7.59,1.05,14.76,2,22.29,5.62a139.88,139.88,0,0,1,30,19Z"/><path class="cls-4" d="M629.47,460.93a59.18,59.18,0,0,1-9-4.59c-4.23-2.86-8.43-6.27-12.5-9.57-8.3-6.74-16.9-13.71-26.83-17-7-2.32-14.48-3.47-21.76-4.58-7.5-1.15-15.25-2.33-22.24-4.8C525,416.1,520.76,403,517,391.41c-.86-2.66-1.68-5.17-2.57-7.53a281.09,281.09,0,0,1-13-48c-3.71-20.13-6.49-41-9.18-61.19-1.52-11.43-3.09-23.24-4.81-34.79-1.81-12.1-.83-24.46.12-36.42.35-4.43.72-9,.93-13.49l.06-1.39c.76-16.21,1.36-29,8.86-43.45,14.15-27.24,60.68-38.84,74.61-41.74s28.38-7.21,39.31-18.85c4.82-5.14,8.53-12.46,12.12-19.54,1.93-3.83,3.9-7.71,6.05-11.24V51.92c-2.5,3.91-4.75,8.33-7,12.68-3.55,7-7.23,14.28-11.95,19.3-10.74,11.44-25,15.68-38.79,18.56-14,2.93-60.93,14.63-75.29,42.26-7.6,14.63-8.2,27.53-9,43.86l-.06,1.4c-.21,4.45-.57,9-.92,13.45-1,12-2,24.43-.12,36.64,1.72,11.55,3.29,23.36,4.81,34.78,2.69,20.2,5.47,41.09,9.19,61.24a281.92,281.92,0,0,0,13.05,48.14c.89,2.34,1.7,4.84,2.56,7.49,3.85,11.79,8.22,25.16,20.74,29.58,7.08,2.5,14.88,3.69,22.42,4.85,7.23,1.1,14.71,2.25,21.59,4.54,9.76,3.26,18.28,10.17,26.52,16.86,4.09,3.31,8.31,6.74,12.58,9.62a61,61,0,0,0,9.59,4.85Z"/><path class="cls-4" d="M284.56-4.9h-3a76.47,76.47,0,0,0-.14,8.14c0,.94,0,1.87,0,2.77.06,16.28-3.49,31.83-6.91,46.87C271,68.19,267.44,84,267.44,101c0,9.13.24,18.63.48,27.83.69,26.17,1.39,53.23-3.24,77.89-5.85,31.18-25.66,70.49-55.34,83.15-6.51,2.77-13.55,4-20.35,5.14-8.44,1.44-17.17,2.93-24.84,7.45-13.86,8.15-19,20.36-24.48,33.29-.92,2.17-1.87,4.41-2.86,6.64-3.75,8.43-7.69,13.15-12.4,14.87-5,1.82-11.34.49-21.82-4.61C94,348.48,89,348.53,80.41,350.28c-1.29.27-2.59.58-3.87.88-3.33.79-7.87,1.87-8.73.83-.14-.17-.74-1.25,1.24-5.56,1.55-3.37,4.4-5.8,7.42-8.37a35.69,35.69,0,0,0,7-7.18A42.22,42.22,0,0,0,88.09,320c1.26-4,2.44-7.7,5-11a129.22,129.22,0,0,1,11.56-12.71c7.28-7.32,14.17-14.22,18.46-25.91,4.8-13.05,4.53-24.27-.8-33.37-7.39-12.6-24.61-21.14-51.17-25.37-11.27-1.8-19.65-8.26-28.53-15.09-2.44-1.88-5-3.82-7.58-5.7-2.33-1.67-4.59-3.18-6.78-4.63-13.13-8.76-21.06-14-13.17-32.56,6.54-15.32,7.29-29.59,6.4-47.64-.11-2.17-.27-4.33-.43-6.63-1-14-2-28.37,7.67-38.3C50,39.22,86.92,40.76,114.43,49.46c1.19.37,2.38.76,3.57,1.15,14.54,4.71,29.57,9.58,42.75-2.53,2.83-2.6,5.22-5.15,7.32-7.4,7.06-7.55,11.73-12.54,24.71-11.19,16.27,1.69,33.46,2.63,48.93-5.93A39.12,39.12,0,0,0,257.23,8.74a43,43,0,0,0,2.69-7.33c.58-1.88,1.45-4.7,2.17-6.31h-3.24c-.55,1.41-1.11,3.21-1.8,5.42a43.81,43.81,0,0,1-2.42,6.73,36.29,36.29,0,0,1-14.37,13.69c-14.72,8.14-31.37,7.21-47.17,5.56C178.62,25,173,31,165.88,38.63c-2.17,2.32-4.41,4.72-7.15,7.24-11.9,10.93-25.45,6.53-39.8,1.88l-3.59-1.15C87,37.63,48.76,36.15,26.58,58.9,16,69.8,17.08,85.59,18.07,99.51c.16,2.28.31,4.43.42,6.56.88,17.63.15,31.53-6.16,46.32C3.46,173.19,13.67,180,26.6,188.62c2.16,1.44,4.4,2.94,6.69,4.58,2.59,1.85,5.08,3.78,7.5,5.64,9.19,7.07,17.86,13.75,29.88,15.67,25.64,4.09,42.15,12.14,49.06,23.93,4.85,8.28,5,18.65.57,30.82-4.06,11.07-10.72,17.75-17.77,24.82a133.44,133.44,0,0,0-11.81,13c-2.89,3.78-4.21,7.95-5.49,12a39.07,39.07,0,0,1-4.3,10.17,33,33,0,0,1-6.4,6.55c-3.14,2.67-6.38,5.43-8.2,9.4-2,4.31-2.25,7-.84,8.71,2,2.49,6.54,1.43,11.74.19,1.25-.3,2.52-.6,3.78-.86,8.43-1.7,12.53-1.64,20.27,2.12,7,3.41,13,5.71,18.46,5.7a16.55,16.55,0,0,0,5.69-1c5.53-2,10-7.25,14.12-16.47,1-2.25,2-4.51,2.89-6.7,5.26-12.45,10.23-24.21,23.23-31.86,7.2-4.24,15.28-5.62,23.82-7.08,7-1.19,14.19-2.43,21-5.34,30.69-13.09,51.12-53.42,57.11-85.35,4.69-25,4-52.2,3.29-78.53-.24-9.17-.48-18.66-.48-27.75,0-16.64,3.56-32.3,7-47.45s7.05-30.93,7-47.56c0-.91,0-1.85,0-2.81A72.5,72.5,0,0,1,284.56-4.9Z"/><path class="cls-4" d="M258.49,34.78C251,50.43,248.6,64,246.49,78.93c-2.58,18.25-6.56,36.46-10.4,54.07-3.06,14-6.21,28.45-8.68,42.92-6.24,36.69-35,63.45-64.09,87.67a135.43,135.43,0,0,1,.46-13.69c.72-10.56,1.47-21.48-4.14-31.37-7.76-13.69-21.85-19.56-35.51-25.24-14.34-6-28.75-11.32-41-15.76-2.66-1-5.52-1.87-8.55-2.82-11.23-3.53-24-7.53-30.54-16.72-7.8-10.9-3.91-29.16.35-43.85,1-3.62,1.84-7.83,2.68-12.27C49.16,91,51.49,78.58,58.49,71.61c14.58-14.55,34.8-8.51,54.35-2.67,13.81,4.13,28.09,8.4,40.21,5.32,8.19-2.08,15.46-6.52,22.5-10.81,3.19-1.94,6.49-4,9.85-5.73,11.45-6.07,22.54-9.28,35.67-12.23C245.4,40,258.4,27.87,267.41,2.17l-1-.34c-8.88,25.33-21.66,37.3-45.61,42.68-13.21,3-24.37,6.2-35.92,12.32-3.39,1.79-6.7,3.81-9.9,5.77-7,4.25-14.19,8.65-22.22,10.69-11.86,3-26-1.22-39.68-5.3C93.3,62.06,72.79,55.93,57.78,70.9c-7.21,7.19-9.58,19.72-11.66,30.78-.84,4.42-1.63,8.6-2.66,12.18-4.33,14.91-8.26,33.46-.21,44.71C50,168,62.93,172.09,74.31,175.66c3,1,5.87,1.84,8.51,2.81,12.2,4.44,26.61,9.78,41,15.76,13.47,5.6,27.4,11.4,35,24.79,5.45,9.63,4.75,19.92,4,30.81a123.74,123.74,0,0,0-.43,14.82l0,1,.77-.64C192.7,240.5,222,213.44,228.4,176.08c2.46-14.44,5.61-28.89,8.66-42.87,3.85-17.62,7.84-35.86,10.42-54.14,2.1-14.81,4.44-28.34,11.91-43.85,5.48-11.4,10.43-24.13,10-40.12h-1C268.82,9.93,264.74,21.78,258.49,34.78Z"/><path class="cls-4" d="M274-4.9c-.07,2.1-.15,4.46-.23,7.13-.3,10.27-.61,20.89-1.59,24.64C268.52,41,265,56,261.45,72.9c-5.11,24.26-6.89,47.62-8.77,72.35-.67,8.7-1.35,17.69-2.19,26.73-1.73,18.61-9.57,64.57-44.84,89.36-7.27,5.11-15.44,8.69-23.35,12.15a171.78,171.78,0,0,0-18.62,9.08c-5.81,3.45-11.36,9.37-16.73,15.09-7.17,7.65-14.57,15.55-22.94,18.14a15.25,15.25,0,0,0-2.8,1.36,18.4,18.4,0,0,1-2.09,1.1c-3.16-7.5,5.2-18.64,12.59-28.5,4.09-5.44,7.95-10.59,9.45-14.59,5.75-15.44,7.57-38-.07-51.14-10.64-18.34-31.78-24.36-52.23-30.19-11-3.13-22.39-6.37-31.68-11.5C41.63,173.76,29.64,165.63,28.43,146c-.61-10.06.64-19.44,2-29.36.84-6.33,1.71-12.88,2-19.59.75-15,6.87-27.17,17.71-35.19,12.72-9.42,31.37-12.25,49.9-7.57,2.08.53,4.22,1.1,6.4,1.68,13.56,3.64,28.92,7.75,42.67,3.54,6.16-1.89,11.57-5,16.8-8,7.34-4.19,14.28-8.15,23.07-9,15.92-1.57,31-3.06,46.43-10.8C248.93,24.93,254,17,260.51,7c1.8-2.78,3.66-5.66,5.86-8.76A17.57,17.57,0,0,0,268-4.9h-1.09a15.08,15.08,0,0,1-1.37,2.56c-2.21,3.12-4.07,6-5.88,8.8-6.39,9.89-11.43,17.7-24.71,24.34-15.31,7.67-30.25,9.14-46.07,10.7-9,.89-16.37,5.09-23.48,9.15-5.18,3-10.54,6-16.6,7.87-13.47,4.13-28.69.06-42.11-3.54-2.18-.59-4.33-1.16-6.42-1.69-19.09-4.82-37.58-2-50.74,7.73-11.09,8.21-17.35,20.64-18.1,36-.33,6.66-1.2,13.19-2,19.5-1.27,9.53-2.59,19.39-2,29.55,1.23,20.17,13.43,28.45,29.25,37.19,9.39,5.18,20.83,8.44,31.89,11.59,20.26,5.77,41.21,11.74,51.65,29.72,7.48,12.91,5.66,35.07,0,50.29-1.44,3.87-5.26,9-9.31,14.34-7.7,10.27-16.43,21.9-12.5,30l.2.39.42-.14a16.75,16.75,0,0,0,2.68-1.34,14.13,14.13,0,0,1,2.6-1.28c8.61-2.66,16.11-10.66,23.37-18.4,5.56-5.94,10.82-11.55,16.51-14.92a171.6,171.6,0,0,1,18.51-9c8-3.48,16.18-7.08,23.52-12.25,35.62-25,43.52-71.34,45.27-90.09.84-9,1.52-18,2.18-26.74,1.88-24.7,3.66-48,8.76-72.22,3.55-16.86,7.07-31.9,10.74-46,1-3.86,1.32-14.54,1.62-24.87.07-2.31.14-4.77.23-7.16Z"/><path class="cls-4" d="M194.62,217l.51-.78c8.12-12.31,11.74-26.94,15.24-41.08l.8-3.24a256.17,256.17,0,0,0,4.8-27.38c.92-6.66,1.87-13.54,3.23-20.42,1.81-9.14,5.49-18,9.05-26.55,3-7.25,6.13-14.75,8.14-22.48s1.85-12.8-.44-15.77c-1.51-2-3.91-2.92-7.31-2.92-5.54,0-12.88,2.55-19.93,5.15-3.2,1.18-7.31,2.31-11.66,3.5-11.5,3.14-24.52,6.7-30.39,13.52L159,80.47a18.62,18.62,0,0,0-7.29-1.25c-8.28,0-17.22,3.38-17.26,10.78a8.63,8.63,0,0,0,2.34,6.4c2.22,2.23,6,3.32,11.47,3.32a89.85,89.85,0,0,0,10-.76c1.83-.22,3.41-.4,4.68-.46.78,0,1.56-.06,2.31-.06,9.88,0,17.6,3.33,22.31,9.63,5.56,7.43,6.7,18.66,3.12,30.81s-12.58,19.49-22.12,27.29c-2.62,2.14-5.33,4.36-7.92,6.68-12.33,11-5.1,19.19,2.55,27.82,1.87,2.11,3.8,4.3,5.52,6.58a48,48,0,0,1,3.76,7.56c2.57,5.84,5.22,11.88,8,12.93a5.41,5.41,0,0,0,1.9.35h0C187.38,228.09,191.91,221.15,194.62,217ZM162.91,97.5c-1.3.06-2.9.25-4.75.46a85.91,85.91,0,0,1-9.91.76c-5.22,0-8.74-1-10.76-3A7.6,7.6,0,0,1,135.44,90c0-7.18,9.75-9.79,16.26-9.79a17.33,17.33,0,0,1,7,1.23l.16.08,8.33-2.08.11-.13c5.61-6.67,18.57-10.21,30-13.33,4.38-1.2,8.51-2.32,11.75-3.52,6.65-2.46,14.21-5.09,19.58-5.09,3.07,0,5.21.83,6.52,2.53,2.06,2.67,2.15,7.69.26,14.91-2,7.66-5.1,15.13-8.1,22.35-3.57,8.6-7.27,17.5-9.1,26.73-1.37,6.91-2.32,13.81-3.24,20.48a255.47,255.47,0,0,1-4.78,27.28l-.8,3.24c-3.48,14.06-7.08,28.6-15.1,40.77l-.52.78c-2.6,4-6.95,10.64-11.39,10.64a4.43,4.43,0,0,1-1.55-.29c-2.38-.9-5.18-7.27-7.43-12.39a48.7,48.7,0,0,0-3.88-7.76c-1.74-2.32-3.69-4.51-5.57-6.64-7.63-8.61-14.22-16-2.64-26.41,2.58-2.31,5.28-4.52,7.89-6.65,9.67-7.91,18.8-15.38,22.45-27.79s2.47-24-3.28-31.69c-4.91-6.56-12.9-10-23.11-10C164.5,97.44,163.71,97.46,162.91,97.5Z"/><path class="cls-4" d="M209.19,126.55c.54-2.86,1-5.12,1.23-6.45s.54-2.57.81-3.87c1.3-6.31,2.64-12.84,4.41-19.09a52.52,52.52,0,0,1,2.26-5.76c2.51-5.8,5.64-13,3.51-17.61-1.39-3-4.56-4.54-9.42-4.54-11.27,0-27.65,8-32.34,12.36l-7.87,3.93c-3.63.53-5.42,1.55-5.46,3.1-.07,3,7.27,6.25,10.52,6.87,2,.39,4,.61,5.92.83,4.86.55,9.46,1.07,13.82,4.31,11.84,8.78,9.41,28.24,4.89,39.18-3.7,9-11,16.75-18.1,24.3q-1.8,1.9-3.53,3.77c-7.29,7.93-7.6,12.15-6.63,22.17.07.63.11,1.38.17,2.23.34,5.64.92,15.09,7.57,15.29h.14C194.07,207.58,205.06,148.71,209.19,126.55ZM220.5,74.19c1.94,4.18-1.09,11.17-3.52,16.79a54.26,54.26,0,0,0-2.3,5.89c-1.78,6.28-3.13,12.83-4.43,19.16-.27,1.3-.54,2.59-.8,3.87s-.71,3.6-1.24,6.46c-3.7,19.84-15,80.22-27.12,80.22H181c-5.73-.18-6.28-9.06-6.61-14.36-.05-.86-.1-1.63-.16-2.27-.94-9.69-.65-13.76,6.37-21.39,1.14-1.24,2.32-2.5,3.52-3.77,7.14-7.61,14.53-15.47,18.3-24.6C207,129,209.47,109,197.18,99.82c-4.58-3.4-9.31-3.93-14.31-4.49-1.89-.22-3.84-.44-5.84-.82-3.6-.69-9.75-3.85-9.71-5.87,0-.94,1.73-1.72,4.69-2.14l8.15-4,.12-.09c4.4-4.15,20.82-12.13,31.71-12.13C216.42,70.23,219.29,71.56,220.5,74.19Z"/><path class="cls-4" d="M199.25,500.37a1,1,0,0,0,.92-.42c.26-.27.46-.45.75-.45h0v-1a2.17,2.17,0,0,0-1.47.73l-.07-.19c.65-5,1.61-10.13,2.54-15.11,2-10.72,4.07-21.8,3.49-33a108.76,108.76,0,0,0-1.79-13.34c-2.09-11.84-4.07-23,4.66-32.51,4.25-4.61,9.58-8.6,14.74-12.45,7.64-5.7,15.54-11.6,20.05-19.65,4.81-8.56,5.26-19.72,5.69-30.51.27-6.56.51-12.77,1.67-18.41,5.69-27.67,14-55.35,22.06-82.13q3-10,5.93-19.85c4.64-15.72,5-30.28,5-49.12q0-3.36,0-6.74c0-6.68.09-13.58-.25-20.28-.09-1.84-.4-4.14-.72-6.58-.83-6.15-1.85-13.8.1-18.22,4.47-10.09,17.67-10.45,29.32-10.76a74.47,74.47,0,0,0,12.1-.93c10.91-2.26,19.54-9.42,27.88-16.34,5.73-4.75,11.65-9.66,18.27-13,13.67-6.81,28.26-10.89,42.37-14.84l5.79-1.63c2-.57,4.94-1.68,8.37-3,12-4.53,30.13-11.38,37-6.39,1.05.76,2.24,1.86,2,2.83-.63,2.5-9.48,3.68-13.25,4.19-1.06.14-1.89.25-2.38.35-5.36,1.1-10.44,3.33-15.83,5.7-1.78.78-3.63,1.59-5.48,2.36q-4.85,2-9.6,3.86c-12.66,5-24.62,9.82-36.43,17.17-35.1,21.87-57.06,45.41-65.29,70-6.05,18.07-10.36,35.46,3.17,49.53,11.27,11.71,26.13,17.27,39.17,21.16.69.2,1.63.45,2.73.73,5.63,1.44,16.11,4.11,17.22,8.64,1.16,4.73-4.2,6.37-9.39,8a32,32,0,0,0-5.39,2C350,259,349.25,274.48,348.51,289.5l-.22,4.33c-.82,16.25-1.67,33.06-.91,49.19.4,8.36,2.25,16.37,4,24.11s3.61,15.61,4,23.9c1.67,33.14-20.73,49.79-44.45,67.41-4.08,3-8.31,6.18-12.36,9.39-13.69,10.81-28.78,22.77-39.89,37.25H260c11-14.12,25.8-25.85,39.25-36.47,4-3.2,8.26-6.33,12.34-9.36,23.93-17.8,46.54-34.6,44.84-68.28-.42-8.37-2.26-16.35-4-24.07s-3.62-15.65-4-23.92c-.76-16.09.09-32.87.91-49.1l.22-4.33c.72-14.74,1.47-30,15.91-37.89a30.21,30.21,0,0,1,5.2-1.9c5.11-1.56,11.46-3.5,10.07-9.15-1.25-5.11-11.7-7.78-17.94-9.37-1.09-.28-2-.52-2.7-.72-12.91-3.86-27.62-9.35-38.73-20.89-13.16-13.69-9.12-30.07-2.94-48.52,8.15-24.34,30-47.7,64.87-69.44,11.73-7.3,23.65-12.06,36.27-17.09,3.17-1.26,6.38-2.54,9.61-3.87,1.86-.77,3.71-1.58,5.51-2.37C440,66,445,63.79,450.26,62.71c.46-.09,1.28-.2,2.31-.34,6.43-.86,13.35-2,14.09-4.94.31-1.22-.47-2.5-2.38-3.88-7.31-5.3-25.75,1.66-37.95,6.27-3.4,1.28-6.34,2.39-8.29,2.94l-5.78,1.63c-14.15,4-28.79,8.07-42.55,14.91C363,82.65,357,87.6,351.26,92.38c-8.25,6.84-16.78,13.92-27.45,16.13a73.19,73.19,0,0,1-11.93.91c-11.94.32-25.48.68-30.2,11.35-2.07,4.68-1,12.49-.18,18.77.32,2.41.62,4.69.71,6.48.34,6.68.29,13.57.25,20.23,0,2.25,0,4.51,0,6.75,0,18.76-.36,33.24-5,48.84q-2.91,9.87-5.93,19.85c-8.05,26.79-16.38,54.5-22.08,82.21-1.17,5.72-1.43,12.25-1.69,18.57-.43,10.68-.87,21.71-5.56,30.06-4.41,7.87-12.22,13.7-19.77,19.34-5.2,3.88-10.58,7.89-14.88,12.57-9.07,9.85-7,21.27-4.92,33.37A109.59,109.59,0,0,1,204.44,451c.57,11-1.49,22.06-3.48,32.72-.94,5-1.91,10.23-2.57,15.28v.12l0,.11C198.63,499.87,198.84,500.27,199.25,500.37Z"/><path class="cls-4" d="M209,505.08h3.44c6.08-11.8,3.75-29.35,1.2-42.37-3.3-16.81-2-28.35,4.93-44.1,4.84-11,12.32-15.94,21-21.64a132.22,132.22,0,0,0,11.28-8c12.06-9.84,16.5-24.45,20.79-38.58.8-2.61,1.62-5.3,2.47-7.89a214.52,214.52,0,0,0,6-24.7c1.81-9,3.68-18.37,7-27.25,6.58-17.85,9.38-33,9.37-50.52,0-14.8-.15-32.32-1-50.07-1-20.29.75-36.92,5.14-49.43,3.64-10.38,13.17-14.54,21.54-16.13-15.93,27-26.08,49.12-16.58,81,2.51,8.44,4.32,13.13,10.08,19.66a52.06,52.06,0,0,0,7.6,6.55c3.25,2.45,6.32,4.77,8.24,7.52,6.09,8.73,1.49,21.38-2.58,32.54-1.43,3.91-2.77,7.61-3.62,11-5.23,21-3,41.63-.9,61.63,1.47,13.84,3,28.14,2.11,42.64-1.54,25.63-19,40-37.58,55.26-8.49,7-17.27,14.2-24.36,22.59-6.57,7.76-11.7,16.73-16.67,25.41-2.85,5-5.77,10.05-9,14.91h3.58c2.82-4.41,5.43-8.95,8-13.42,4.89-8.56,10-17.41,16.35-25,6.91-8.17,15.59-15.31,24-22.2,18.22-15,37.05-30.47,38.68-57.4.89-14.75-.65-29.18-2.13-43.13-2.2-20.65-4.27-40.15.84-60.6a112.07,112.07,0,0,1,3.52-10.69c4.31-11.84,9.21-25.27,2.22-35.28-2.19-3.14-5.6-5.71-8.9-8.2a49.46,49.46,0,0,1-7.15-6.13c-5.39-6.11-7-10.34-9.46-18.54-9.46-31.79,1.46-53.77,17.92-81.35l1.57-2.64-3.05.38c-9.82,1.23-22.49,5.46-27.1,18.59s-6.32,29.61-5.3,50.57c.85,17.69,1,35.17,1,49.93,0,17.19-2.73,32-9.19,49.48-3.36,9.1-5.25,18.55-7.08,27.7a211.75,211.75,0,0,1-5.91,24.35c-.85,2.63-1.68,5.34-2.48,8-4.16,13.7-8.47,27.87-19.82,37.13a129.37,129.37,0,0,1-11,7.84c-8.69,5.72-16.89,11.12-22.09,22.94-7.21,16.39-8.55,28.4-5.13,45.89C213.28,476.39,215.66,494.23,209,505.08Z"/><path class="cls-4" d="M220,490c-1.28,5.33-2.6,10.81-1,15h1.06c-1.66-4-.34-9.47.94-14.8a55.52,55.52,0,0,0,1.44-7.23,104,104,0,0,0-1.05-25.12c-2.74-18.57.51-27.45,15.15-41.34a163.21,163.21,0,0,1,14.7-12c7.45-5.61,15.16-11.42,21.29-19.25,9.66-12.33,11.75-26,14-40.56.53-3.42,1.07-7,1.72-10.49.75-4.16,1.42-8.8,2.12-13.72,2.76-19.22,6.18-43.09,18.3-55.71,5.18,7.59,4.56,19.49,4,31a112.53,112.53,0,0,0-.16,15.15c.66,7.38,1.19,15,1.71,22.45.66,9.41,1.33,19.14,2.28,28.56,3.24,32.08-17.3,53.47-39.05,76.12l-4.56,4.76c-15,15.7-23.85,33.05-33.26,51.41-1.81,3.52-3.66,7.12-5.56,10.74h1.12c1.83-3.46,3.6-6.92,5.33-10.29,9.38-18.29,18.23-35.57,33.1-51.17q2.26-2.39,4.55-4.76C300,416,320.71,394.49,317.43,362c-.95-9.4-1.63-19.13-2.28-28.53-.52-7.41-1-15.08-1.71-22.46a110.65,110.65,0,0,1,.16-15c.61-11.94,1.25-24.28-4.51-32.14l-.34-.47-.42.42c-12.69,12.74-16.18,37.11-19,56.7-.71,4.91-1.37,9.54-2.13,13.68-.65,3.55-1.19,7.09-1.71,10.52-2.2,14.39-4.28,28-13.77,40.09-6.06,7.73-13.37,13.24-21.12,19.07a165.82,165.82,0,0,0-14.78,12.05c-14.75,14-18.22,23.47-15.45,42.22a102.45,102.45,0,0,1,1,24.87A54.32,54.32,0,0,1,220,490Z"/><path class="cls-4" d="M227.44,481a59,59,0,0,1-1,12.45,62.25,62.25,0,0,0-1,11.54l1,0a61.44,61.44,0,0,1,1-11.35,59.31,59.31,0,0,0,1-12.66A94.49,94.49,0,0,0,227,470.3,81.64,81.64,0,0,1,225.44,457c-.2-16.89,6.73-24.91,18.05-36.59,4.59-4.73,9.45-9.24,14.16-13.59,17.7-16.38,34.41-31.85,35.78-57.78.18-3.28.23-6.72.28-10.35.23-15.38.49-32.77,10.6-43.44.48,6.68,1.3,13.54,2.17,20.79,3,24.69,6,50.22-4.25,71.7l-1.88,4c-5.89,12.41-12,25.25-20.55,35.23-3.76,4.39-7.92,8.57-11.95,12.61a179.15,179.15,0,0,0-15.06,16.41c-9.88,12.76-17.12,29.53-21.33,49.14h1c4.18-19.37,11.35-35.93,21.1-48.52a179.85,179.85,0,0,1,15-16.33c4-4.05,8.21-8.24,12-12.66,8.65-10.08,14.77-23,20.69-35.45l1.89-4c10.4-21.74,7.32-47.41,4.34-72.25-.92-7.63-1.79-14.85-2.24-21.84l-.08-1.08-.77.75c-11.17,10.88-11.44,29-11.68,44.92,0,3.63-.1,7-.27,10.31-1.35,25.53-17.92,40.87-35.47,57.1-4.72,4.37-9.59,8.88-14.19,13.63-11.51,11.87-18.55,20-18.34,37.31A82,82,0,0,0,226,470.47,91.91,91.91,0,0,1,227.44,481Z"/><path class="cls-4" d="M235.44,457c0-17.43,6.93-26.39,19.76-36.83,11.25-9.16,23-19.63,32.9-34.14,8.87-13,9.39-23.59,10.09-38.2.08-1.55.15-3.15.24-4.8.06-1,.09-2,.12-2.93.13-4.08.25-7.66,2-10.88,7.76,21.76.76,49.61-20.82,82.78a239.4,239.4,0,0,1-16.43,21.64c-11,13.34-21.35,25.95-25.93,44.18a99.2,99.2,0,0,1-3.2,9.8,82.7,82.7,0,0,0-3.76,12.29c-.33,1.74-.6,3.47-.84,5.17h1c.23-1.64.49-3.31.82-5A80.94,80.94,0,0,1,235.14,488c1.17-3.22,2.38-6.54,3.23-9.89,4.52-18,14.83-30.54,25.73-43.8a240.26,240.26,0,0,0,16.5-21.72c22.08-34,29-62.43,20.55-84.65l-.34-.91-.54.81c-2.44,3.68-2.57,7.85-2.72,12.27,0,.95-.06,1.92-.11,2.9-.09,1.66-.17,3.26-.25,4.82-.7,14.43-1.2,24.87-9.92,37.68-9.8,14.41-21.51,24.82-32.7,33.92C241.49,430,234.41,439.17,234.44,457s-2.36,31.86-8,46.82l.93.36C233.06,489.09,235.46,475,235.44,457Z"/></g></g></pattern></defs><g class="cls-5"><g id="BACKGROUND"><rect class="cls-6" x="-10" y="-10" width="919.14" height="919.14"/><rect class="cls-7" x="-10" y="-10" width="919.14" height="919.14"/></g><g id="DESIGN"><path class="cls-8" d="M378,412.51h0c-9-7.83-22.68-11.81-40.56-11.81-4.22,0-8.61.14-13,.41s-8.19.57-11.31.88a3,3,0,0,0-2.71,3v82.93a3,3,0,0,0,2.62,3c3,.38,6.74.72,11,1s8.57.41,12.89.41c17.84,0,31.55-3.75,40.76-11.16,9.4-7.56,14.17-19.18,14.17-34.52C391.79,431.93,387.14,420.46,378,412.51Zm-47.67,61.38V419A1.71,1.71,0,0,1,332,417.3l.77,0c2,0,3.9-.06,5.62-.06a54,54,0,0,1,13.71,1.63,26.47,26.47,0,0,1,10.13,5,22.69,22.69,0,0,1,6.45,8.83A35,35,0,0,1,371,446.27c0,5.88-.79,10.79-2.36,14.6a20.91,20.91,0,0,1-6.44,8.74,26.55,26.55,0,0,1-10.26,4.7,61.54,61.54,0,0,1-14,1.48c-2,0-4-.06-5.76-.17l-.29,0A1.71,1.71,0,0,1,330.31,473.89Z"/><path class="cls-8" d="M415,402c-1.16-.16-2.39-.28-3.64-.37h0a58.5,58.5,0,0,0-7.49,0c-1.25.08-2.47.21-3.64.37a3,3,0,0,0-2.59,3v82.93a3,3,0,0,0,2.55,3c1.09.16,2.3.29,3.62.37s2.59.12,3.81.12,2.6,0,3.82-.12,2.41-.21,3.56-.37a3,3,0,0,0,2.59-3V405A3,3,0,0,0,415,402Z"/><path class="cls-8" d="M506.69,403.46a3,3,0,0,0-2.18-1.46h0a35.23,35.23,0,0,0-3.95-.31q-2-.06-3.84-.06c-2.64,0-5.26.12-7.79.36l-1.93.18-20.91,60a1.68,1.68,0,0,1-1.62,1.15h0a1.69,1.69,0,0,1-1.63-1.15L442,402.61l-.13-.37L440,402c-1.26-.16-2.65-.29-4.12-.37s-2.84-.12-4.05-.12-2.72,0-4.2.12-2.81.21-3.91.38a3,3,0,0,0-2.35,4.05l32.34,84.26.14.36,1.8.22c1.33.16,2.75.28,4.23.36s2.88.12,4.19.12,2.73,0,4.26-.12,2.94-.2,4.18-.37l1.78-.22,32.61-84.61A2.94,2.94,0,0,0,506.69,403.46Zm-2.26-.82Z"/><path class="cls-8" d="M541.62,402.57l-.14-.36-1.8-.22c-1.34-.16-2.74-.28-4.16-.36a75.85,75.85,0,0,0-8.53,0c-1.43.08-2.79.21-4,.37l-1.78.23-32.61,84.6a3,3,0,0,0,.2,2.59,3,3,0,0,0,2.15,1.47c1.09.16,2.3.29,3.62.37s2.6.12,3.88.12,2.54,0,3.81-.12,2.51-.21,3.74-.37l1.84-.23,6.2-17.73a1.74,1.74,0,0,1,1.63-1.16h30.6a1.71,1.71,0,0,1,1.62,1.15l6.32,17.72,1.81.25c1.16.16,2.41.29,3.72.37a63.58,63.58,0,0,0,7.93,0c1.44-.08,2.77-.21,3.94-.37a3,3,0,0,0,2.39-4.06Zm-1,52.19a1.69,1.69,0,0,1-1.4.73H522.64A1.72,1.72,0,0,1,521,453.2l8.24-23.4a1.68,1.68,0,0,1,1.62-1.15h0a1.68,1.68,0,0,1,1.62,1.14l8.31,23.4A1.69,1.69,0,0,1,540.58,454.76Z"/><path class="cls-8" d="M649.34,402c-1.09-.17-2.23-.29-3.39-.38h0a52.55,52.55,0,0,0-7.1,0c-1.25.08-2.47.21-3.64.37a3,3,0,0,0-2.59,3v47a1.72,1.72,0,0,1-3.14,1l-34.71-50.56-.16-.23-1.28-.19c-1.09-.17-2.25-.29-3.47-.38a48.51,48.51,0,0,0-6.82,0c-1.22.09-2.39.21-3.47.38a3,3,0,0,0-2.55,3v82.93a3,3,0,0,0,2.51,3,33.22,33.22,0,0,0,3.37.38,54.66,54.66,0,0,0,7.24,0c1.22-.08,2.38-.21,3.46-.37a3,3,0,0,0,2.55-3v-46.8a1.72,1.72,0,0,1,3.14-1l34.86,50.33.16.23,1.28.2c1.07.16,2.24.29,3.46.37s2.35.12,3.41.12,2.18,0,3.42-.12,2.38-.21,3.46-.37a3,3,0,0,0,2.55-3V405A3,3,0,0,0,649.34,402Z"/><path class="cls-8" d="M732.74,474.24l-.55.33h0l.55-.33a3,3,0,0,0-3.61-1.27,46.65,46.65,0,0,1-8.22,2.17,57.81,57.81,0,0,1-9.87.76,39.49,39.49,0,0,1-12.37-1.81,24.34,24.34,0,0,1-9.08-5.23,23.37,23.37,0,0,1-5.8-8.8A36.49,36.49,0,0,1,681.67,447c0-9.83,2.5-17.39,7.42-22.48s12-7.62,21-7.62c2.2,0,4.18.06,5.89.17s3.22.27,4.57.49,2.67.47,3.87.76,2.52.64,3.85,1a3,3,0,0,0,3.52-1.59c.85-1.74,1.59-3.42,2.21-5a21.42,21.42,0,0,0,1.36-5.7,3,3,0,0,0-2.16-3.2,92.17,92.17,0,0,0-10.32-2.27,87,87,0,0,0-13.88-1,59.11,59.11,0,0,0-20,3.23,43.31,43.31,0,0,0-15.41,9.37,41.16,41.16,0,0,0-9.73,14.74,52,52,0,0,0-3.35,19,50.19,50.19,0,0,0,3.36,18.76,39.47,39.47,0,0,0,9.76,14.4,42.89,42.89,0,0,0,15.48,9.07,62,62,0,0,0,20.18,3.1,89.83,89.83,0,0,0,13.43-.95A65.15,65.15,0,0,0,735,488.2a3,3,0,0,0,1.94-3.35A31.2,31.2,0,0,0,732.74,474.24Z"/><path class="cls-8" d="M822.8,428.42h0a39.44,39.44,0,0,0-8.21-14.66,38.24,38.24,0,0,0-14-9.71,57.24,57.24,0,0,0-39.2,0,38.24,38.24,0,0,0-14,9.71,40.06,40.06,0,0,0-8.28,14.64,62.72,62.72,0,0,0,0,36.21,40.14,40.14,0,0,0,8.28,14.64,37.65,37.65,0,0,0,14,9.66,58.24,58.24,0,0,0,39.16,0,37.77,37.77,0,0,0,14-9.66,39.44,39.44,0,0,0,8.21-14.66,64.2,64.2,0,0,0,0-36.17ZM770.41,419a29.26,29.26,0,0,1,21.16,0,18.57,18.57,0,0,1,7.13,5.57,26,26,0,0,1,4.39,9.2,49.49,49.49,0,0,1,1.53,12.76,48.83,48.83,0,0,1-1.53,12.82,26.69,26.69,0,0,1-4.4,9.22,18.35,18.35,0,0,1-7.12,5.61,29.26,29.26,0,0,1-21.16,0,18.39,18.39,0,0,1-7.11-5.61,26.44,26.44,0,0,1-4.41-9.22,54.05,54.05,0,0,1,0-25.58,25.73,25.73,0,0,1,4.39-9.2A18.53,18.53,0,0,1,770.41,419Z"/><path class="cls-9" d="M266.74,437.11l-36-62.37a25.78,25.78,0,0,0-22.32-12.89h-72a25.78,25.78,0,0,0-22.32,12.89l-36,62.37a25.76,25.76,0,0,0,0,25.78l36,62.37a25.78,25.78,0,0,0,22.32,12.89h72a25.78,25.78,0,0,0,22.32-12.89l36-62.37A25.76,25.76,0,0,0,266.74,437.11Z"/><path class="cls-8" d="M142.06,432.64v5.2A25.08,25.08,0,0,0,153.5,431c6.85-6.85,7.5-13.33,8.08-19,.16-1.59.31-3.11.58-4.61H157.1c-.22,1.41-.36,2.78-.49,4.11-.57,5.59-1.05,10.42-6.64,16A20.58,20.58,0,0,1,142.06,432.64Z"/><path class="cls-8" d="M209.34,446c-1.24,7-2.41,13.61-10.32,21.52s-14.52,9.08-21.52,10.32c-7.45,1.32-15.16,2.68-24.18,11.7-1,1-1.93,2-2.76,3h6.84c7.67-7.41,14.14-8.58,21-9.78,7.45-1.32,15.16-2.69,24.18-11.71s10.39-16.73,11.71-24.18a61.67,61.67,0,0,1,1.82-8.1A47.31,47.31,0,0,0,214,431C211.07,436.3,210.19,441.22,209.34,446Z"/><path class="cls-8" d="M143.69,423c5.5-5.49,6.65-10.8,7.14-15.63h-5a18.31,18.31,0,0,1-3.75,9.95v7.18C142.6,424,143.14,423.53,143.69,423Z"/><path class="cls-8" d="M208.83,475.56c-8.37,8.37-15.29,9.67-22.61,11.05-5.47,1-11.07,2.1-17.22,5.95h8.39a52.5,52.5,0,0,0,6.36-.38q1.68-.35,3.39-.66l3.05-.6A34.07,34.07,0,0,0,213.54,470,42.1,42.1,0,0,1,208.83,475.56Z"/><path class="cls-8" d="M177.7,425.27c-.82,6-1.59,11.7-8.11,18.23s-12.21,7.29-18.22,8.11a46.13,46.13,0,0,0-9.31,1.95v5.33a36.85,36.85,0,0,1,10-2.33c6.26-.85,13.37-1.82,21.08-9.53s8.68-14.82,9.53-21.09c.77-5.67,1.5-11,7-17.1a44.4,44.4,0,0,0-5.6-1.08C179.23,414.1,178.42,420,177.7,425.27Z"/><path class="cls-8" d="M167.15,418.36c-.67,5.69-1.31,11.06-7.37,17.12s-11.43,6.7-17.12,7.38l-.6.07v5l1.19-.14c6-.72,12.78-1.53,20.06-8.81s8.09-14.07,8.8-20.06c.47-3.9.92-7.66,3.12-11.6h-5.56A38.3,38.3,0,0,0,167.15,418.36Z"/><path class="cls-8" d="M198.79,439.1c-1.09,6.67-2.13,13-9.58,20.43s-13.75,8.48-20.42,9.58c-7.16,1.17-14.57,2.39-23.15,11a43.75,43.75,0,0,0-3.58,4.05v8.43h.62a31.77,31.77,0,0,1,6.49-8.94c7.45-7.45,13.75-8.49,20.43-9.58,7.16-1.18,14.56-2.4,23.14-11s9.8-16,11-23.15c.91-5.56,1.8-10.86,6.37-16.78a33.51,33.51,0,0,0-3.15-4.08C200.89,426.34,199.83,432.82,198.79,439.1Z"/><path class="cls-8" d="M188.25,432.18c-1,6.35-1.86,12.35-8.85,19.33s-13,7.89-19.33,8.85c-5.68.85-11.54,1.75-18,6.66v6.58c6.74-6.48,12.59-7.37,18.76-8.3,6.86-1,14-2.11,22.11-10.26s9.22-15.24,10.25-22.11c.93-6.17,1.83-12,8.29-18.74a34.5,34.5,0,0,0-4.4-2.62C190.22,419.1,189.22,425.74,188.25,432.18Z"/></g></g></svg>