<svg id="BACKGROUND" xmlns="http://www.w3.org/2000/svg" viewBox="0 0 900 900"><defs><style>.cls-1{fill:#fff;}</style></defs><rect x="-10" y="-10" width="920" height="920"/><path class="cls-1" d="M378,412.51h0c-9-7.83-22.68-11.81-40.56-11.81-4.22,0-8.61.14-13,.41s-8.19.57-11.31.88a3,3,0,0,0-2.71,3v82.93a3,3,0,0,0,2.62,3c3,.38,6.74.72,11,1s8.57.41,12.89.41c17.84,0,31.55-3.75,40.76-11.16,9.4-7.56,14.17-19.18,14.17-34.52C391.79,431.93,387.14,420.46,378,412.51Zm-47.67,61.38V419A1.71,1.71,0,0,1,332,417.3l.77,0c2,0,3.9-.06,5.62-.06a54,54,0,0,1,13.71,1.63,26.47,26.47,0,0,1,10.13,5,22.69,22.69,0,0,1,6.45,8.83A35,35,0,0,1,371,446.27c0,5.88-.79,10.79-2.36,14.6a20.91,20.91,0,0,1-6.44,8.74,26.55,26.55,0,0,1-10.26,4.7,61.54,61.54,0,0,1-14,1.48c-2,0-4-.06-5.76-.17l-.29,0A1.71,1.71,0,0,1,330.31,473.89Z"/><path class="cls-1" d="M415,402c-1.16-.16-2.39-.28-3.64-.37h0a58.5,58.5,0,0,0-7.49,0c-1.25.08-2.47.21-3.64.37a3,3,0,0,0-2.59,3v82.93a3,3,0,0,0,2.55,3c1.09.16,2.3.29,3.62.37s2.59.12,3.81.12,2.6,0,3.82-.12,2.41-.21,3.56-.37a3,3,0,0,0,2.59-3V405A3,3,0,0,0,415,402Z"/><path class="cls-1" d="M506.69,403.46a3,3,0,0,0-2.18-1.46h0a35.23,35.23,0,0,0-3.95-.31q-2-.06-3.84-.06c-2.64,0-5.26.12-7.79.36l-1.93.18-20.91,60a1.68,1.68,0,0,1-1.62,1.15h0a1.69,1.69,0,0,1-1.63-1.15L442,402.61l-.13-.37L440,402c-1.26-.16-2.65-.29-4.12-.37s-2.84-.12-4.05-.12-2.72,0-4.2.12-2.81.21-3.91.38a3,3,0,0,0-2.35,4.05l32.34,84.26.14.36,1.8.22c1.33.16,2.75.28,4.23.36s2.88.12,4.19.12,2.73,0,4.26-.12,2.94-.2,4.18-.37l1.78-.22,32.61-84.61A2.94,2.94,0,0,0,506.69,403.46Zm-2.26-.82Z"/><path class="cls-1" d="M541.62,402.57l-.14-.36-1.8-.22c-1.34-.16-2.74-.28-4.16-.36a75.85,75.85,0,0,0-8.53,0c-1.43.08-2.79.21-4,.37l-1.78.23-32.61,84.6a3,3,0,0,0,.2,2.59,3,3,0,0,0,2.15,1.47c1.09.16,2.3.29,3.62.37s2.6.12,3.88.12,2.54,0,3.81-.12,2.51-.21,3.74-.37l1.84-.23,6.2-17.73a1.74,1.74,0,0,1,1.63-1.16h30.6a1.71,1.71,0,0,1,1.62,1.15l6.32,17.72,1.81.25c1.16.16,2.41.29,3.72.37a63.58,63.58,0,0,0,7.93,0c1.44-.08,2.77-.21,3.94-.37a3,3,0,0,0,2.39-4.06Zm-1,52.19a1.69,1.69,0,0,1-1.4.73H522.64A1.72,1.72,0,0,1,521,453.2l8.24-23.4a1.68,1.68,0,0,1,1.62-1.15h0a1.68,1.68,0,0,1,1.62,1.14l8.31,23.4A1.69,1.69,0,0,1,540.58,454.76Z"/><path class="cls-1" d="M649.34,402c-1.09-.17-2.23-.29-3.39-.38h0a52.55,52.55,0,0,0-7.1,0c-1.25.08-2.47.21-3.64.37a3,3,0,0,0-2.59,3v47a1.72,1.72,0,0,1-3.14,1l-34.71-50.56-.16-.23-1.28-.19c-1.09-.17-2.25-.29-3.47-.38a48.51,48.51,0,0,0-6.82,0c-1.22.09-2.39.21-3.47.38a3,3,0,0,0-2.55,3v82.93a3,3,0,0,0,2.51,3,33.22,33.22,0,0,0,3.37.38,54.66,54.66,0,0,0,7.24,0c1.22-.08,2.38-.21,3.46-.37a3,3,0,0,0,2.55-3v-46.8a1.72,1.72,0,0,1,3.14-1l34.86,50.33.16.23,1.28.2c1.07.16,2.24.29,3.46.37s2.35.12,3.41.12,2.18,0,3.42-.12,2.38-.21,3.46-.37a3,3,0,0,0,2.55-3V405A3,3,0,0,0,649.34,402Z"/><path class="cls-1" d="M732.74,474.24l-.55.33h0l.55-.33a3,3,0,0,0-3.61-1.27,46.65,46.65,0,0,1-8.22,2.17,57.81,57.81,0,0,1-9.87.76,39.49,39.49,0,0,1-12.37-1.81,24.34,24.34,0,0,1-9.08-5.23,23.37,23.37,0,0,1-5.8-8.8A36.49,36.49,0,0,1,681.67,447c0-9.83,2.5-17.39,7.42-22.48s12-7.62,21-7.62c2.2,0,4.18.06,5.89.17s3.22.27,4.57.49,2.67.47,3.87.76,2.52.64,3.85,1a3,3,0,0,0,3.52-1.59c.85-1.74,1.59-3.42,2.21-5a21.42,21.42,0,0,0,1.36-5.7,3,3,0,0,0-2.16-3.2,92.17,92.17,0,0,0-10.32-2.27,87,87,0,0,0-13.88-1,59.11,59.11,0,0,0-20,3.23,43.31,43.31,0,0,0-15.41,9.37,41.16,41.16,0,0,0-9.73,14.74,52,52,0,0,0-3.35,19,50.19,50.19,0,0,0,3.36,18.76,39.47,39.47,0,0,0,9.76,14.4,42.89,42.89,0,0,0,15.48,9.07,62,62,0,0,0,20.18,3.1,89.83,89.83,0,0,0,13.43-.95A65.15,65.15,0,0,0,735,488.2a3,3,0,0,0,1.94-3.35A31.2,31.2,0,0,0,732.74,474.24Z"/><path class="cls-1" d="M822.8,428.42h0a39.44,39.44,0,0,0-8.21-14.66,38.24,38.24,0,0,0-14-9.71,57.24,57.24,0,0,0-39.2,0,38.24,38.24,0,0,0-14,9.71,40.06,40.06,0,0,0-8.28,14.64,62.72,62.72,0,0,0,0,36.21,40.14,40.14,0,0,0,8.28,14.64,37.65,37.65,0,0,0,14,9.66,58.24,58.24,0,0,0,39.16,0,37.77,37.77,0,0,0,14-9.66,39.44,39.44,0,0,0,8.21-14.66,64.2,64.2,0,0,0,0-36.17ZM770.41,419a29.26,29.26,0,0,1,21.16,0,18.57,18.57,0,0,1,7.13,5.57,26,26,0,0,1,4.39,9.2,49.49,49.49,0,0,1,1.53,12.76,48.83,48.83,0,0,1-1.53,12.82,26.69,26.69,0,0,1-4.4,9.22,18.35,18.35,0,0,1-7.12,5.61,29.26,29.26,0,0,1-21.16,0,18.39,18.39,0,0,1-7.11-5.61,26.44,26.44,0,0,1-4.41-9.22,54.05,54.05,0,0,1,0-25.58,25.73,25.73,0,0,1,4.39-9.2A18.53,18.53,0,0,1,770.41,419Z"/><path class="cls-1" d="M266.74,437.11l-36-62.37a25.78,25.78,0,0,0-22.32-12.89h-72a25.78,25.78,0,0,0-22.32,12.89l-36,62.37a25.76,25.76,0,0,0,0,25.78l36,62.37a25.78,25.78,0,0,0,22.32,12.89h72a25.78,25.78,0,0,0,22.32-12.89l36-62.37A25.76,25.76,0,0,0,266.74,437.11Z"/><path d="M142.06,432.64v5.2A25.08,25.08,0,0,0,153.5,431c6.85-6.85,7.5-13.33,8.08-19,.16-1.59.31-3.11.58-4.61H157.1c-.22,1.41-.36,2.78-.49,4.11-.57,5.59-1.05,10.42-6.64,16A20.58,20.58,0,0,1,142.06,432.64Z"/><path d="M141.56,438.5v-6.22l.34-.12a19.91,19.91,0,0,0,7.71-5.05c5.47-5.46,5.95-10.2,6.5-15.7.15-1.45.28-2.76.5-4.14l.06-.42h6.09l-.11.59c-.25,1.43-.4,2.86-.58,4.57-.58,5.8-1.24,12.37-8.22,19.34a25.57,25.57,0,0,1-11.66,7Zm1-5.51v4.19a24.75,24.75,0,0,0,10.58-6.53c6.73-6.73,7.37-13.11,7.94-18.74.15-1.5.29-2.79.49-4.06h-4c-.17,1.2-.3,2.37-.43,3.66-.57,5.69-1.06,10.6-6.78,16.31A21,21,0,0,1,142.56,433Z"/><path d="M209.34,446c-1.24,7-2.41,13.61-10.32,21.52s-14.52,9.08-21.52,10.32c-7.45,1.32-15.16,2.68-24.18,11.7-1,1-1.93,2-2.76,3h6.84c7.67-7.41,14.14-8.58,21-9.78,7.45-1.32,15.16-2.69,24.18-11.71s10.39-16.73,11.71-24.18a61.67,61.67,0,0,1,1.82-8.1A47.31,47.31,0,0,0,214,431C211.07,436.3,210.19,441.22,209.34,446Z"/><path d="M157.61,493.06h-8.13l.7-.82c.91-1.07,1.82-2.07,2.79-3,9.13-9.14,16.91-10.51,24.44-11.84,6.92-1.23,13.46-2.38,21.26-10.18s9-14.34,10.18-21.26h0c.85-4.8,1.73-9.76,4.71-15.17l.53-1,.38,1a48.22,48.22,0,0,1,2.1,7.87l0,.13,0,.11a59.6,59.6,0,0,0-1.81,8c-1.33,7.53-2.71,15.31-11.84,24.45S186,481.94,178.46,483.27c-6.75,1.19-13.13,2.32-20.71,9.65Zm-6-1h5.55c7.73-7.41,14.22-8.56,21.09-9.78,7.37-1.3,15-2.65,23.91-11.56s10.26-16.54,11.57-23.92a63.82,63.82,0,0,1,1.79-8,46.6,46.6,0,0,0-1.66-6.51c-2.48,4.88-3.29,9.44-4.07,13.86l-.49-.09.49.09-.49-.09.49.09c-1.25,7.08-2.43,13.76-10.46,21.79s-14.7,9.2-21.78,10.45c-7.38,1.3-15,2.65-23.92,11.56C153,490.61,152.31,491.32,151.65,492.06Z"/><path d="M143.69,423c5.5-5.49,6.65-10.8,7.14-15.63h-5a18.31,18.31,0,0,1-3.75,9.95v7.18C142.6,424,143.14,423.53,143.69,423Z"/><path d="M141.56,425.57v-8.44l.11-.14a17.67,17.67,0,0,0,3.64-9.7l.05-.44h6l0,.55c-.51,5-1.75,10.4-7.29,15.94h0c-.49.49-1,1-1.65,1.52Zm1-8.1v5.9c.27-.25.53-.49.77-.74a22.94,22.94,0,0,0,6.94-14.78h-4A18.57,18.57,0,0,1,142.56,417.47Z"/><path d="M208.83,475.56c-8.37,8.37-15.29,9.67-22.61,11.05-5.47,1-11.07,2.1-17.22,5.95h8.39a52.5,52.5,0,0,0,6.36-.38q1.68-.35,3.39-.66l3.05-.6A34.07,34.07,0,0,0,213.54,470,42.1,42.1,0,0,1,208.83,475.56Z"/><path d="M177.39,493.06H167.26l1.47-.92c6.26-3.93,11.92-5,17.4-6,7.24-1.37,14.09-2.66,22.35-10.92a42,42,0,0,0,4.66-5.48l2.45-3.48-1.58,4a34.64,34.64,0,0,1-23.69,21.21l-3.08.6q-1.71.32-3.39.66A53.35,53.35,0,0,1,177.39,493.06Zm-6.57-1h6.57a52.26,52.26,0,0,0,6.3-.37c1.08-.23,2.22-.45,3.36-.67s2-.38,3-.59a33.42,33.42,0,0,0,21.21-16.77c-.66.75-1.36,1.5-2.11,2.25h0c-8.48,8.48-15.48,9.8-22.88,11.19C181.39,488,176.32,489,170.82,492.06Z"/><path d="M177.7,425.27c-.82,6-1.59,11.7-8.11,18.23s-12.21,7.29-18.22,8.11a46.13,46.13,0,0,0-9.31,1.95v5.33a36.85,36.85,0,0,1,10-2.33c6.26-.85,13.37-1.82,21.08-9.53s8.68-14.82,9.53-21.09c.77-5.67,1.5-11,7-17.1a44.4,44.4,0,0,0-5.6-1.08C179.23,414.1,178.42,420,177.7,425.27Z"/><path d="M141.56,459.65V453.2l.34-.12a48.09,48.09,0,0,1,9.4-2c5.93-.8,11.53-1.56,17.94-8s7.16-12,8-17.93l.5.06-.49-.06c.71-5.29,1.52-11.28,6.49-17.75l.17-.23.29,0a46,46,0,0,1,5.66,1.08l.8.21-.56.62c-5.44,5.94-6.16,11.23-6.92,16.83-.86,6.35-1.83,13.54-9.67,21.37s-15,8.81-21.37,9.67a36.43,36.43,0,0,0-9.84,2.3Zm1-5.73v4.23a39,39,0,0,1,9.41-2.09c6.19-.84,13.2-1.79,20.8-9.38s8.54-14.61,9.38-20.8c.76-5.57,1.47-10.83,6.62-16.76-1.45-.34-3-.62-4.46-.82-4.64,6.17-5.42,11.94-6.11,17h0l-.5-.07.5.07c-.83,6.11-1.62,11.87-8.26,18.51s-12.4,7.42-18.51,8.25A48.29,48.29,0,0,0,142.56,453.92Z"/><path d="M167.15,418.36c-.67,5.69-1.31,11.06-7.37,17.12s-11.43,6.7-17.12,7.38l-.6.07v5l1.19-.14c6-.72,12.78-1.53,20.06-8.81s8.09-14.07,8.8-20.06c.47-3.9.92-7.66,3.12-11.6h-5.56A38.3,38.3,0,0,0,167.15,418.36Z"/><path d="M141.56,448.53v-6l1-.12c5.6-.67,10.89-1.3,16.82-7.23s6.57-11.23,7.24-16.83h0a38.7,38.7,0,0,1,2.55-11.15l.13-.3h6.74l-.42.74c-2.15,3.86-2.59,7.53-3,11.42-.73,6.08-1.55,13-9,20.36s-14.28,8.22-20.35,8.94Zm1-5.16v4l.63-.08c5.91-.7,12.61-1.5,19.77-8.66s7.95-13.85,8.66-19.76c.44-3.75.86-7.3,2.77-11H170a38.54,38.54,0,0,0-2.36,10.57c-.69,5.78-1.34,11.24-7.52,17.42s-11.63,6.83-17.41,7.51Z"/><path d="M198.79,439.1c-1.09,6.67-2.13,13-9.58,20.43s-13.75,8.48-20.42,9.58c-7.16,1.17-14.57,2.39-23.15,11a43.75,43.75,0,0,0-3.58,4.05v8.43h.62a31.77,31.77,0,0,1,6.49-8.94c7.45-7.45,13.75-8.49,20.43-9.58,7.16-1.18,14.56-2.4,23.14-11s9.8-16,11-23.15c.91-5.56,1.8-10.86,6.37-16.78a33.51,33.51,0,0,0-3.15-4.08C200.89,426.34,199.83,432.82,198.79,439.1Z"/><path d="M143,493.06h-1.44V484l.11-.13a42.14,42.14,0,0,1,3.62-4.1c8.69-8.7,16.18-9.93,23.41-11.12,6.6-1.08,12.82-2.1,20.16-9.44s8.36-13.56,9.44-20.15l.49.08-.49-.08c1-6.33,2.12-12.88,8.26-20.29l.37-.44.39.43a33.68,33.68,0,0,1,3.18,4.14l.2.3-.22.28c-4.5,5.84-5.36,11-6.27,16.55-1.19,7.24-2.42,14.72-11.12,23.42s-16.17,9.93-23.41,11.12c-6.6,1.08-12.82,2.11-20.15,9.44a31.55,31.55,0,0,0-6.4,8.81Zm-.44-8.75v7.36a33,33,0,0,1,6.26-8.41c7.56-7.56,13.94-8.61,20.69-9.72,7.09-1.16,14.41-2.37,22.88-10.84s9.67-15.79,10.84-22.87c.91-5.55,1.77-10.8,6.24-16.72a33.23,33.23,0,0,0-2.51-3.29c-5.64,7-6.67,13.29-7.67,19.36l-.5-.08.5.08c-1.11,6.76-2.16,13.14-9.73,20.7s-13.94,8.61-20.69,9.72c-7.08,1.16-14.41,2.37-22.87,10.84A41.59,41.59,0,0,0,142.56,484.31Z"/><path d="M188.25,432.18c-1,6.35-1.86,12.35-8.85,19.33s-13,7.89-19.33,8.85c-5.68.85-11.54,1.75-18,6.66v6.58c6.74-6.48,12.59-7.37,18.76-8.3,6.86-1,14-2.11,22.11-10.26s9.22-15.24,10.25-22.11c.93-6.17,1.83-12,8.29-18.74a34.5,34.5,0,0,0-4.4-2.62C190.22,419.1,189.22,425.74,188.25,432.18Z"/><path d="M141.56,474.77v-8l.2-.15c6.59-5,12.51-5.89,18.24-6.76,6.26-.94,12.17-1.83,19.05-8.7s7.76-12.79,8.7-19.05h0c1-6.51,2-13.24,8.95-20.87L197,411l.34.16a33.71,33.71,0,0,1,4.46,2.67l.48.33-.4.42c-6.37,6.64-7.23,12.38-8.15,18.46-1.05,6.95-2.13,14.13-10.4,22.4s-15.44,9.34-22.39,10.39c-6.08.92-11.83,1.78-18.48,8.17Zm1-7.5v5.18c6.52-5.89,12.19-6.75,18.18-7.65,6.79-1,13.81-2.08,21.84-10.11s9.09-15.05,10.11-21.83c.92-6.12,1.79-11.9,8-18.59a34.59,34.59,0,0,0-3.52-2.08c-6.51,7.3-7.49,13.79-8.44,20.07l-.49-.08.49.08-.49-.08.49.08c-1,6.43-1.89,12.5-9,19.61s-13.17,8-19.6,9C154.61,461.69,148.88,462.55,142.56,467.27Z"/></svg>