<svg xmlns="http://www.w3.org/2000/svg" viewBox="0 0 900 900"><defs><style>.cls-1{fill:#30302e;}.cls-2{fill:#e5542e;}</style></defs><g id="DESIGN"><path class="cls-1" d="M705.4,415.11,607.92,246.26a69.79,69.79,0,0,0-60.44-34.89h-195a69.79,69.79,0,0,0-60.44,34.89L194.6,415.11a69.76,69.76,0,0,0,0,69.78l97.48,168.85a69.79,69.79,0,0,0,60.44,34.89h195a69.79,69.79,0,0,0,60.44-34.89L705.4,484.89A69.76,69.76,0,0,0,705.4,415.11Z"/><path class="cls-2" d="M367.86,403v14.1c9.85-2.7,20.24-7.8,31-18.53C417.37,380,419.14,362.49,420.7,347c.43-4.3.86-8.42,1.58-12.48H408.59c-.6,3.81-1,7.52-1.34,11.12-1.53,15.14-2.84,28.21-18,43.34C381.8,396.47,374.83,400.57,367.86,403Z"/><path class="cls-2" d="M550,439.22c-3.35,18.95-6.52,36.86-27.93,58.27s-39.31,24.58-58.26,27.93c-20.18,3.57-41,7.26-65.46,31.68-2.76,2.75-5.22,5.46-7.47,8.13H409.4c20.75-20.08,38.26-23.23,56.77-26.5,20.17-3.57,41-7.26,65.46-31.68s28.12-45.29,31.69-65.47a164.25,164.25,0,0,1,4.93-21.92,128.12,128.12,0,0,0-5.64-21.08C554.69,412.92,552.3,426.22,550,439.22Z"/><path class="cls-2" d="M372.27,376.86c14.89-14.88,18-29.25,19.33-42.32H378c-1,9.2-3.07,17.81-10.15,26.93v19.44C369.33,379.66,370.8,378.34,372.27,376.86Z"/><path class="cls-2" d="M548.63,519.19c-22.66,22.65-41.39,26.18-61.22,29.92-14.8,2.78-30,5.68-46.61,16.12h22.7a141.27,141.27,0,0,0,17.22-1c3-.64,6.11-1.23,9.19-1.81,2.74-.51,5.49-1,8.25-1.6,29.6-8.18,51.57-27.5,63.23-56.62A115.9,115.9,0,0,1,548.63,519.19Z"/><path class="cls-2" d="M464.35,383.06c-2.21,16.29-4.3,31.68-22,49.34s-33,19.74-49.33,22c-7.93,1.07-16.35,2.24-25.2,5.28v14.45c9.1-3.9,17.91-5.1,27-6.33,17-2.3,36.2-4.91,57.08-25.79s23.49-40.12,25.8-57.08c2.08-15.36,4.06-29.91,19.06-46.31a121.75,121.75,0,0,0-15.16-2.91C468.5,352.82,466.29,368.75,464.35,383.06Z"/><path class="cls-2" d="M435.8,364.35c-1.83,15.4-3.57,29.95-20,46.35s-30.94,18.13-46.34,20l-1.63.2v13.62c1.08-.14,2.15-.27,3.23-.39,16.21-1.93,34.59-4.12,54.3-23.83s21.9-38.09,23.83-54.31c1.26-10.58,2.48-20.76,8.43-31.41h-15C438.11,345.08,436.9,355.07,435.8,364.35Z"/><path class="cls-2" d="M521.45,420.49c-3,18.07-5.77,35.14-25.94,55.3s-37.22,23-55.29,25.94c-19.38,3.18-39.42,6.48-62.66,29.72a116.62,116.62,0,0,0-9.7,11v22.82h1.69c3.64-7.73,9-15.7,17.57-24.22,20.16-20.17,37.23-23,55.29-25.94,19.38-3.19,39.42-6.48,62.66-29.72s26.54-43.28,29.72-62.66c2.48-15.05,4.87-29.4,17.24-45.43a91.37,91.37,0,0,0-8.51-11C527.14,386,524.25,403.48,521.45,420.49Z"/><path class="cls-2" d="M492.9,401.77c-2.59,17.18-5,33.41-23.95,52.32s-35.14,21.36-52.32,24c-15.4,2.32-31.24,4.74-48.77,18v17.81c18.26-17.54,34.08-20,50.79-22.48,18.58-2.8,37.8-5.7,59.86-27.76s25-41.28,27.76-59.86c2.51-16.7,4.94-32.49,22.42-50.72a90.86,90.86,0,0,0-11.91-7.1C498.24,366.34,495.53,384.33,492.9,401.77Z"/></g></svg>