<svg xmlns="http://www.w3.org/2000/svg" viewBox="0 0 900 900"><defs><style>.cls-1{fill:#fff;}</style></defs><g id="BACKGROUND"><rect class="cls-1" x="-10" y="-10" width="920" height="920"/></g><g id="DESIGN"><path d="M209,578.39h0c-11.47-9.95-28.8-15-51.48-15-5.37,0-10.93.18-16.54.52s-10.4.72-14.36,1.11a3.8,3.8,0,0,0-3.44,3.8V674.08a3.83,3.83,0,0,0,3.34,3.79c3.86.49,8.55.92,13.93,1.26s10.89.52,16.37.52c22.64,0,40-4.76,51.72-14.16,11.94-9.6,18-24.34,18-43.82C226.52,603,220.62,588.47,209,578.39Zm-60.5,77.89V586.64a2.18,2.18,0,0,1,2.12-2.18l1,0c2.58,0,4.95-.07,7.13-.07a68.62,68.62,0,0,1,17.4,2.07A33.68,33.68,0,0,1,189,592.79a28.77,28.77,0,0,1,8.18,11.2c2,4.68,3,10.48,3,17.24,0,7.46-1,13.69-3,18.53A26.51,26.51,0,0,1,189,650.85a33.79,33.79,0,0,1-13,6,78.33,78.33,0,0,1-17.76,1.87c-2.57,0-5-.07-7.31-.21l-.36,0A2.19,2.19,0,0,1,148.49,656.28Z"/><path d="M256,565.05c-1.48-.21-3-.37-4.62-.47h0a73.61,73.61,0,0,0-9.51,0c-1.59.1-3.14.26-4.62.47a3.84,3.84,0,0,0-3.29,3.78V674.08a3.79,3.79,0,0,0,3.25,3.77c1.37.21,2.91.37,4.59.48s3.28.15,4.83.15,3.3-.05,4.85-.15,3.05-.26,4.52-.47a3.84,3.84,0,0,0,3.29-3.78V568.83A3.84,3.84,0,0,0,256,565.05Z"/><path d="M372.35,566.89a3.79,3.79,0,0,0-2.77-1.84h0a45.87,45.87,0,0,0-5-.4c-1.72,0-3.34-.08-4.88-.08-3.34,0-6.67.16-9.89.46l-2.45.23-26.53,76.12a2.13,2.13,0,0,1-2.06,1.46h0a2.12,2.12,0,0,1-2.06-1.46l-26.49-75.56-.17-.48-2.33-.3c-1.6-.2-3.36-.36-5.23-.46s-3.6-.15-5.15-.15-3.45.05-5.32.15a48.86,48.86,0,0,0-5,.48,3.81,3.81,0,0,0-3,5.14l41,106.94.18.46,2.29.27c1.69.2,3.49.36,5.36.46s3.67.15,5.32.15,3.47-.05,5.41-.15,3.73-.26,5.31-.46l2.26-.3L372.62,570.2A3.82,3.82,0,0,0,372.35,566.89Zm-2.88-1Z"/><path d="M416.68,565.77l-.18-.46-2.29-.27c-1.69-.21-3.47-.36-5.27-.46a97.82,97.82,0,0,0-10.83,0c-1.81.1-3.54.26-5.13.46l-2.25.29L349.34,672.7a3.81,3.81,0,0,0,3,5.15c1.38.21,2.92.37,4.6.48s3.3.15,4.91.15,3.23-.05,4.84-.15,3.19-.26,4.75-.46l2.34-.31,7.87-22.5a2.18,2.18,0,0,1,2.06-1.46h38.84a2.19,2.19,0,0,1,2.06,1.45l8,22.49,2.29.32c1.47.21,3.06.36,4.72.47a82.51,82.51,0,0,0,10.07,0c1.83-.1,3.51-.26,5-.47a3.78,3.78,0,0,0,2.76-1.84,3.82,3.82,0,0,0,.28-3.31ZM415.36,632a2.16,2.16,0,0,1-1.78.92h-21a2.17,2.17,0,0,1-2.05-2.91L401,600.32a2.14,2.14,0,0,1,2.06-1.46h0a2.13,2.13,0,0,1,2.06,1.46L415.64,630A2.15,2.15,0,0,1,415.36,632Z"/><path d="M553.38,565.05c-1.38-.21-2.82-.37-4.29-.47h0a64.48,64.48,0,0,0-9,0c-1.59.1-3.14.26-4.62.47a3.84,3.84,0,0,0-3.29,3.78v59.69a2.18,2.18,0,0,1-4,1.24L484.13,565.6l-.2-.3-1.63-.25c-1.38-.21-2.85-.36-4.4-.47a62.57,62.57,0,0,0-8.66,0c-1.55.11-3,.26-4.39.47a3.8,3.8,0,0,0-3.24,3.78V674.08a3.79,3.79,0,0,0,3.18,3.76,43.06,43.06,0,0,0,4.28.49,70.3,70.3,0,0,0,9.18,0c1.55-.11,3-.27,4.4-.48a3.78,3.78,0,0,0,3.24-3.77v-59.4a2.18,2.18,0,0,1,4-1.24l44.24,63.87.2.29,1.62.25c1.37.21,2.85.37,4.4.48s3,.15,4.33.15,2.76-.05,4.34-.15,3-.27,4.39-.48a3.79,3.79,0,0,0,3.24-3.77V568.83A3.81,3.81,0,0,0,553.38,565.05Z"/><path d="M659.24,656.73l-.7.42h0l.7-.42a3.82,3.82,0,0,0-4.58-1.61,61.1,61.1,0,0,1-10.44,2.75,74.06,74.06,0,0,1-12.52,1,50,50,0,0,1-15.71-2.3,31,31,0,0,1-11.52-6.64,29.4,29.4,0,0,1-7.35-11.16,46.14,46.14,0,0,1-2.7-16.63c0-12.47,3.17-22.07,9.42-28.52s15.18-9.67,26.64-9.67c2.79,0,5.3.07,7.47.21s4.09.35,5.81.62,3.38.6,4.9,1,3.2.81,4.89,1.28a3.81,3.81,0,0,0,4.47-2c1.07-2.21,2-4.35,2.81-6.34a27.52,27.52,0,0,0,1.72-7.23,3.81,3.81,0,0,0-2.74-4.06,113.3,113.3,0,0,0-13.1-2.88,110.67,110.67,0,0,0-17.61-1.23,74.93,74.93,0,0,0-25.4,4.11,54.82,54.82,0,0,0-19.56,11.89A52.12,52.12,0,0,0,571.79,598a65.93,65.93,0,0,0-4.25,24.15,63.72,63.72,0,0,0,4.26,23.82,50.28,50.28,0,0,0,12.39,18.28,54.51,54.51,0,0,0,19.65,11.5,78.47,78.47,0,0,0,25.6,3.94,113.9,113.9,0,0,0,17-1.21,83.28,83.28,0,0,0,15.64-4,3.82,3.82,0,0,0,2.46-4.26A39.46,39.46,0,0,0,659.24,656.73Z"/><path d="M773.53,598.57h0A49.82,49.82,0,0,0,763.11,580a48.53,48.53,0,0,0-17.77-12.33c-7-2.91-15.39-4.39-24.87-4.39s-17.84,1.48-24.87,4.39A48.61,48.61,0,0,0,677.84,580a50.82,50.82,0,0,0-10.5,18.58,79.36,79.36,0,0,0,0,46,50.9,50.9,0,0,0,10.5,18.58,47.83,47.83,0,0,0,17.78,12.26c7,2.85,15.38,4.3,24.85,4.3s17.83-1.45,24.85-4.3a47.87,47.87,0,0,0,17.79-12.26,49.94,49.94,0,0,0,10.42-18.61,81.49,81.49,0,0,0,0-45.91Zm-66.48-12a37,37,0,0,1,26.85,0,23.61,23.61,0,0,1,9.05,7.06,32.78,32.78,0,0,1,5.57,11.68,68.86,68.86,0,0,1,0,32.46,33.62,33.62,0,0,1-5.59,11.71,23.4,23.4,0,0,1-9,7.12,37.16,37.16,0,0,1-26.85,0,23.4,23.4,0,0,1-9-7.12,33.54,33.54,0,0,1-5.59-11.71,68.52,68.52,0,0,1,0-32.46A32.78,32.78,0,0,1,698,593.65,23.61,23.61,0,0,1,707.05,586.59Z"/><path d="M569.73,348.58,524,427.73a32.71,32.71,0,0,1-28.33,16.36H404.3A32.71,32.71,0,0,1,376,427.73l-45.7-79.15a32.7,32.7,0,0,1,0-32.72L376,236.7a32.7,32.7,0,0,1,28.33-16.35h91.4A32.7,32.7,0,0,1,524,236.7l45.7,79.16A32.7,32.7,0,0,1,569.73,348.58Z"/><path class="cls-1" d="M411,310.18v6.61a31.9,31.9,0,0,0,14.52-8.69c8.69-8.69,9.52-16.91,10.25-24.16.2-2,.4-3.95.74-5.85H430.1c-.28,1.79-.46,3.53-.63,5.21-.71,7.1-1.33,13.23-8.42,20.32A25.89,25.89,0,0,1,411,310.18Z"/><path class="cls-1" d="M496.4,327.17c-1.57,8.88-3.06,17.27-13.1,27.31S464.87,366,456,367.57c-9.46,1.68-19.24,3.41-30.69,14.86-1.29,1.29-2.44,2.56-3.5,3.81h8.68c9.73-9.42,17.94-10.89,26.62-12.43,9.45-1.67,19.23-3.4,30.68-14.85s13.19-21.23,14.86-30.69A78.37,78.37,0,0,1,505,318a60.46,60.46,0,0,0-2.64-9.88C498.6,314.84,497.48,321.07,496.4,327.17Z"/><path class="cls-1" d="M413.08,297.93c7-7,8.44-13.71,9.06-19.84h-6.37A23.14,23.14,0,0,1,411,290.71v9.12C411.7,299.24,412.39,298.62,413.08,297.93Z"/><path class="cls-1" d="M495.75,364.65c-10.62,10.62-19.4,12.28-28.7,14-6.94,1.31-14.05,2.66-21.85,7.56h10.65a68.09,68.09,0,0,0,8.07-.48c1.43-.31,2.86-.58,4.31-.85l3.87-.75a43.3,43.3,0,0,0,29.64-26.55A53.84,53.84,0,0,1,495.75,364.65Z"/><path class="cls-1" d="M456.24,300.84c-1,7.63-2,14.85-10.29,23.12s-15.49,9.26-23.13,10.3A59.94,59.94,0,0,0,411,336.73v6.77c4.26-1.82,8.4-2.38,12.66-3,8-1.08,17-2.3,26.76-12.09s11-18.81,12.09-26.76c1-7.2,1.91-14,8.94-21.71a56.26,56.26,0,0,0-7.11-1.36C458.19,286.66,457.15,294.13,456.24,300.84Z"/><path class="cls-1" d="M442.86,292.07c-.86,7.22-1.67,14-9.36,21.72s-14.51,8.5-21.73,9.36l-.76.09v6.39l1.51-.18c7.6-.91,16.22-1.93,25.46-11.17s10.27-17.86,11.17-25.46c.59-5,1.16-9.74,4-14.73h-7C443.94,283,443.38,287.72,442.86,292.07Z"/><path class="cls-1" d="M483,318.38c-1.39,8.47-2.7,16.48-12.16,25.93s-17.45,10.77-25.92,12.16c-9.09,1.49-18.48,3-29.37,13.93a54,54,0,0,0-4.55,5.14v10.7h.79A40.12,40.12,0,0,1,420,374.88c9.45-9.45,17.45-10.77,25.92-12.16,9.08-1.49,18.48-3,29.37-13.93s12.44-20.29,13.94-29.38c1.16-7.05,2.28-13.78,8.08-21.29a43.66,43.66,0,0,0-4-5.18C485.68,302.2,484.32,310.41,483,318.38Z"/><path class="cls-1" d="M469.63,309.61c-1.22,8.05-2.36,15.66-11.23,24.53s-16.47,10-24.53,11.22c-7.22,1.09-14.64,2.23-22.86,8.46v8.35c8.56-8.22,16-9.36,23.81-10.54,8.71-1.31,17.72-2.67,28.06-13s11.7-19.35,13-28.07c1.18-7.82,2.32-15.23,10.52-23.77a41.64,41.64,0,0,0-5.59-3.33C472.13,293,470.86,301.43,469.63,309.61Z"/></g></svg>