<svg xmlns="http://www.w3.org/2000/svg" viewBox="0 0 900 900"><defs><style>.cls-1{fill:#fff;}</style></defs><g id="BACKGROUND"><rect x="-10" y="-10" width="920" height="920"/></g><g id="DESIGN"><path class="cls-1" d="M705.4,415.11,607.92,246.26a69.79,69.79,0,0,0-60.44-34.89h-195a69.79,69.79,0,0,0-60.44,34.89L194.6,415.11a69.76,69.76,0,0,0,0,69.78l97.48,168.85a69.79,69.79,0,0,0,60.44,34.89h195a69.79,69.79,0,0,0,60.44-34.89L705.4,484.89A69.76,69.76,0,0,0,705.4,415.11Z"/><path d="M367.86,403v14.1c9.85-2.7,20.24-7.8,31-18.53C417.37,380,419.14,362.49,420.7,347c.43-4.3.86-8.42,1.58-12.48H408.59c-.6,3.81-1,7.52-1.34,11.12-1.53,15.14-2.84,28.21-18,43.34C381.8,396.47,374.83,400.57,367.86,403Z"/><path d="M367.37,417.75V402.64l.33-.12c7.68-2.67,14.42-7.08,21.22-13.87,15-15,16.31-28,17.83-43,.32-3.22.72-7.2,1.34-11.17l.07-.42h14.72l-.11.59c-.74,4.17-1.18,8.56-1.57,12.44-1.57,15.55-3.34,33.17-22,51.84-9.49,9.5-19.4,15.43-31.18,18.66Zm1-14.4v13.08c11.33-3.22,20.91-9,30.11-18.22,18.42-18.43,20.17-35.86,21.72-51.24.38-3.71.8-7.9,1.48-11.93H409c-.57,3.8-1,7.6-1.27,10.67-1.53,15.24-2.86,28.39-18.12,43.65C382.82,396.16,376.06,400.61,368.37,403.35Z"/><path d="M550,439.22c-3.35,18.95-6.52,36.86-27.93,58.27s-39.31,24.58-58.26,27.93c-20.18,3.57-41,7.26-65.46,31.68-2.76,2.75-5.22,5.46-7.47,8.13H409.4c20.75-20.08,38.26-23.23,56.77-26.5,20.17-3.57,41-7.26,65.46-31.68s28.12-45.29,31.69-65.47a164.25,164.25,0,0,1,4.93-21.92,128.12,128.12,0,0,0-5.64-21.08C554.69,412.92,552.3,426.22,550,439.22Z"/><path d="M409.6,565.73H389.8l.7-.82c2.44-2.89,4.89-5.56,7.49-8.16,24.54-24.54,45.48-28.24,65.73-31.83,18.87-3.33,36.69-6.48,58-27.78s24.46-39.13,27.8-58h0c2.29-12.93,4.66-26.3,12.66-40.8l.53-1,.38,1a129,129,0,0,1,5.66,21.16l0,.12,0,.12a165.92,165.92,0,0,0-4.92,21.86c-3.58,20.25-7.29,41.19-31.83,65.73s-45.47,28.24-65.72,31.82c-18.42,3.26-35.81,6.34-56.51,26.37Zm-17.64-1H409.2c20.85-20.12,38.35-23.21,56.88-26.49,20.1-3.56,40.88-7.23,65.19-31.54s28-45.11,31.56-65.21a166.86,166.86,0,0,1,4.9-21.86,129.25,129.25,0,0,0-5.21-19.83c-7.51,14-9.8,26.95-12,39.51l-.5-.09.5.09-.5-.09.49.1c-3.36,19-6.54,37-28.07,58.52s-39.49,24.7-58.52,28.07c-20.1,3.56-40.89,7.23-65.2,31.54C396.37,559.79,394.16,562.17,392,564.73Z"/><path d="M372.27,376.86c14.89-14.88,18-29.25,19.33-42.32H378c-1,9.2-3.07,17.81-10.15,26.93v19.44C369.33,379.66,370.8,378.34,372.27,376.86Z"/><path d="M367.37,382V361.3l.1-.14c6.86-8.84,9-17.06,10-26.68l.05-.44h14.59l-.06.55c-1.36,13.39-4.67,27.82-19.48,42.63h0c-1.31,1.31-2.72,2.61-4.43,4.07Zm1-20.36v18.18c1.32-1.16,2.47-2.23,3.55-3.31h0c14.38-14.39,17.75-28.42,19.13-41.47H378.46C377.51,343.34,375.57,352.29,368.37,361.64Z"/><path d="M548.63,519.19c-22.66,22.65-41.39,26.18-61.22,29.92-14.8,2.78-30,5.68-46.61,16.12h22.7a141.27,141.27,0,0,0,17.22-1c3-.64,6.11-1.23,9.19-1.81,2.74-.51,5.49-1,8.25-1.6,29.6-8.18,51.57-27.5,63.23-56.62A115.9,115.9,0,0,1,548.63,519.19Z"/><path d="M463.5,565.73H439.06l1.47-.93c16.8-10.54,32.05-13.41,46.79-16.19,19.75-3.72,38.41-7.23,61-29.78a113.85,113.85,0,0,0,12.7-15l2.46-3.48-1.59,4c-11.59,28.95-33.57,48.63-63.55,56.91-2.92.6-5.9,1.16-8.29,1.61-2.78.53-6,1.14-9.19,1.81A143.34,143.34,0,0,1,463.5,565.73Zm-20.94-1H463.5a144.45,144.45,0,0,0,17.16-1c3.14-.67,6.38-1.29,9.16-1.81,2.39-.45,5.37-1,8.24-1.6,28.28-7.81,49.37-25.9,61.21-52.41A116.92,116.92,0,0,1,549,519.54h0c-22.76,22.77-41.57,26.31-61.48,30.06C473.3,552.27,458.62,555,442.56,564.73Z"/><path d="M464.35,383.06c-2.21,16.29-4.3,31.68-22,49.34s-33,19.74-49.33,22c-7.93,1.07-16.35,2.24-25.2,5.28v14.45c9.1-3.9,17.91-5.1,27-6.33,17-2.3,36.2-4.91,57.08-25.79s23.49-40.12,25.8-57.08c2.08-15.36,4.06-29.91,19.06-46.31a121.75,121.75,0,0,0-15.16-2.91C468.5,352.82,466.29,368.75,464.35,383.06Z"/><path d="M367.37,474.83V459.27l.33-.11c9-3.1,17.66-4.27,25.29-5.31,16.2-2.19,31.51-4.27,49.05-21.81s19.61-32.84,21.81-49l.5.06-.5-.07c1.93-14.2,4.12-30.3,17.41-47.63l.17-.23.29,0a124.37,124.37,0,0,1,15.22,2.92l.8.21-.56.62c-14.9,16.3-16.86,30.74-18.94,46-2.31,17.06-4.94,36.37-25.94,57.37S412,465.93,394.94,468.24c-9.17,1.25-17.83,2.42-26.88,6.3Zm1-14.84v13.33c8.91-3.69,17.43-4.85,26.44-6.07,16.89-2.29,36-4.88,56.79-25.65s23.36-39.9,25.65-56.78c2.07-15.27,4-29.69,18.64-46a121.58,121.58,0,0,0-14-2.66c-13,17-15.13,32.92-17,46.94l-.49-.07.49.08c-2.22,16.37-4.32,31.83-22.09,49.61s-33.25,19.87-49.63,22.1C385.64,455.86,377.16,457,368.37,460Z"/><path d="M435.8,364.35c-1.83,15.4-3.57,29.95-20,46.35s-30.94,18.13-46.34,20l-1.63.2v13.62c1.08-.14,2.15-.27,3.23-.39,16.21-1.93,34.59-4.12,54.3-23.83s21.9-38.09,23.83-54.31c1.26-10.58,2.48-20.76,8.43-31.41h-15C438.11,345.08,436.9,355.07,435.8,364.35Z"/><path d="M367.37,445V430.41l2.06-.25c15.31-1.82,29.77-3.54,46.05-19.82s18-30.74,19.82-46h0c1.08-9.05,2.3-19.3,6.86-30l.13-.3h16.22l-.42.74c-5.91,10.57-7.1,20.61-8.37,31.23-1.94,16.31-4.15,34.77-24,54.6s-38.3,22-54.59,24l-3.22.39Zm1-13.74v12.61l2.66-.32c16.13-1.92,34.42-4.1,54-23.68s21.76-37.87,23.69-54c1.25-10.49,2.43-20.41,8.08-30.87H443c-4.39,10.41-5.6,20.48-6.66,29.37h0c-1.84,15.49-3.58,30.11-20.11,46.64S385,429.31,369.55,431.16Z"/><path d="M521.45,420.49c-3,18.07-5.77,35.14-25.94,55.3s-37.22,23-55.29,25.94c-19.38,3.18-39.42,6.48-62.66,29.72a116.62,116.62,0,0,0-9.7,11v22.82h1.69c3.64-7.73,9-15.7,17.57-24.22,20.16-20.17,37.23-23,55.29-25.94,19.38-3.19,39.42-6.48,62.66-29.72s26.54-43.28,29.72-62.66c2.48-15.05,4.87-29.4,17.24-45.43a91.37,91.37,0,0,0-8.51-11C527.14,386,524.25,403.48,521.45,420.49Z"/><path d="M369.86,565.73h-2.49v-23.5l.1-.13a118.22,118.22,0,0,1,9.74-11c23.35-23.35,43.47-26.66,62.92-29.85,18-3,35-5.75,55-25.8s22.84-37,25.8-55l.5.08-.5-.08c2.8-17,5.69-34.65,22.17-54.51l.37-.45.39.43A92.13,92.13,0,0,1,552.44,377l.2.3-.22.28c-12.33,16-14.66,30.17-17.13,45.2-3.2,19.46-6.51,39.58-29.87,62.94S462,512.36,442.5,515.56c-18,3-35,5.75-55,25.8A85.71,85.71,0,0,0,370,565.44Zm-1.49-1h.86a87,87,0,0,1,17.53-24.08c20.28-20.27,37.42-23.09,55.57-26.07,19.31-3.18,39.26-6.46,62.39-29.58s26.41-43.09,29.58-62.4c2.48-15.06,4.82-29.29,17.11-45.36A91,91,0,0,0,543.53,367c-16,19.48-18.83,36.82-21.58,53.59h0c-3,18.15-5.8,35.3-26.09,55.57s-37.41,23.1-55.56,26.08C421,505.39,401,508.67,377.91,531.8a114.78,114.78,0,0,0-9.54,10.78Z"/><path d="M492.9,401.77c-2.59,17.18-5,33.41-23.95,52.32s-35.14,21.36-52.32,24c-15.4,2.32-31.24,4.74-48.77,18v17.81c18.26-17.54,34.08-20,50.79-22.48,18.58-2.8,37.8-5.7,59.86-27.76s25-41.28,27.76-59.86c2.51-16.7,4.94-32.49,22.42-50.72a90.86,90.86,0,0,0-11.91-7.1C498.24,366.34,495.53,384.33,492.9,401.77Z"/><path d="M367.37,515.06V495.83l.19-.15c17.69-13.42,33.61-15.82,49-18.14,17.09-2.57,33.24-5,52-23.8s21.23-34.94,23.8-52l.5.07-.49-.07c2.63-17.5,5.36-35.58,24-56.07l.26-.28.33.17a91.64,91.64,0,0,1,12,7.14l.47.33-.4.42c-17.42,18.17-19.78,33.85-22.29,50.45-2.81,18.67-5.72,38-27.9,60.15s-41.47,25.08-60.14,27.89c-16.62,2.51-32.31,4.87-50.51,22.35Zm1-18.73v16.39c18.06-17,33.68-19.32,50.2-21.81,18.51-2.78,37.65-5.67,59.59-27.61s24.82-41.08,27.61-59.58c2.51-16.64,4.88-32.36,22.15-50.58a91.94,91.94,0,0,0-11-6.56c-18.21,20.15-20.9,38-23.51,55.27l-.49-.08.49.08c-2.6,17.27-5.06,33.57-24.09,52.6S434,475.93,416.71,478.53C401.5,480.83,385.77,483.2,368.37,496.33Z"/></g></svg>